<mxfile host="app.diagrams.net" modified="2022-04-24T00:11:59.451Z" agent="5.0 (Windows NT 10.0; Win64; x64) AppleWebKit/537.36 (KHTML, like Gecko) Chrome/100.0.4896.127 Safari/537.36 Edg/100.0.1185.50" etag="WsWVgDDLV4TkZh8F7ysq" version="17.4.6" type="github">
  <diagram id="6W1MyK6aDZMTI-PS_otd" name="Page-1">
    <mxGraphModel dx="4152" dy="2316" grid="1" gridSize="10" guides="1" tooltips="1" connect="1" arrows="1" fold="1" page="1" pageScale="1" pageWidth="850" pageHeight="1100" math="0" shadow="0">
      <root>
        <mxCell id="0" />
        <mxCell id="1" parent="0" />
        <mxCell id="WWlV5e2IUx9NMdd2vQTv-1" value="" style="rounded=0;whiteSpace=wrap;html=1;fontFamily=Verdana;" vertex="1" parent="1">
          <mxGeometry x="30" y="2237" width="1070" height="614" as="geometry" />
        </mxCell>
        <mxCell id="WWlV5e2IUx9NMdd2vQTv-2" value="" style="rounded=0;whiteSpace=wrap;html=1;fontFamily=Verdana;" vertex="1" parent="1">
          <mxGeometry x="970" y="380" width="880" height="310" as="geometry" />
        </mxCell>
        <mxCell id="WWlV5e2IUx9NMdd2vQTv-3" value="" style="rounded=0;whiteSpace=wrap;html=1;fontFamily=Verdana;" vertex="1" parent="1">
          <mxGeometry x="59" y="1206" width="1070" height="614" as="geometry" />
        </mxCell>
        <mxCell id="WWlV5e2IUx9NMdd2vQTv-4" value="" style="endArrow=none;dashed=1;html=1;rounded=0;fontFamily=Verdana;entryX=0.5;entryY=1;entryDx=0;entryDy=0;startArrow=none;" edge="1" parent="1" source="WWlV5e2IUx9NMdd2vQTv-264">
          <mxGeometry width="50" height="50" relative="1" as="geometry">
            <mxPoint x="1621.92" y="740" as="sourcePoint" />
            <mxPoint x="1621.5" y="140" as="targetPoint" />
          </mxGeometry>
        </mxCell>
        <mxCell id="WWlV5e2IUx9NMdd2vQTv-5" value="" style="endArrow=none;dashed=1;html=1;rounded=0;fontFamily=Verdana;entryX=0.5;entryY=1;entryDx=0;entryDy=0;startArrow=none;" edge="1" parent="1" source="WWlV5e2IUx9NMdd2vQTv-108">
          <mxGeometry width="50" height="50" relative="1" as="geometry">
            <mxPoint x="632" y="1680" as="sourcePoint" />
            <mxPoint x="632.4099999999999" y="970" as="targetPoint" />
          </mxGeometry>
        </mxCell>
        <mxCell id="WWlV5e2IUx9NMdd2vQTv-6" value="" style="rounded=0;whiteSpace=wrap;html=1;fontFamily=Verdana;" vertex="1" parent="1">
          <mxGeometry x="79" y="380" width="670" height="310" as="geometry" />
        </mxCell>
        <mxCell id="WWlV5e2IUx9NMdd2vQTv-7" value="" style="rounded=0;whiteSpace=wrap;html=1;fontFamily=Verdana;" vertex="1" parent="1">
          <mxGeometry x="39" y="380" width="40" height="310" as="geometry" />
        </mxCell>
        <mxCell id="WWlV5e2IUx9NMdd2vQTv-8" value="" style="endArrow=none;dashed=1;html=1;rounded=0;fontFamily=Verdana;entryX=0.5;entryY=1;entryDx=0;entryDy=0;" edge="1" parent="1">
          <mxGeometry width="50" height="50" relative="1" as="geometry">
            <mxPoint x="703.0000000000009" y="740" as="sourcePoint" />
            <mxPoint x="702.5799999999999" y="140" as="targetPoint" />
          </mxGeometry>
        </mxCell>
        <mxCell id="WWlV5e2IUx9NMdd2vQTv-9" value="" style="endArrow=none;dashed=1;html=1;rounded=0;fontFamily=Verdana;entryX=0.5;entryY=1;entryDx=0;entryDy=0;startArrow=none;" edge="1" parent="1" source="WWlV5e2IUx9NMdd2vQTv-36">
          <mxGeometry width="50" height="50" relative="1" as="geometry">
            <mxPoint x="503.58000000000004" y="850" as="sourcePoint" />
            <mxPoint x="503.58000000000084" y="140" as="targetPoint" />
          </mxGeometry>
        </mxCell>
        <mxCell id="WWlV5e2IUx9NMdd2vQTv-10" value="" style="endArrow=none;dashed=1;html=1;rounded=0;fontFamily=Verdana;entryX=0.5;entryY=1;entryDx=0;entryDy=0;" edge="1" parent="1" target="WWlV5e2IUx9NMdd2vQTv-11">
          <mxGeometry width="50" height="50" relative="1" as="geometry">
            <mxPoint x="269" y="750" as="sourcePoint" />
            <mxPoint x="429" y="60" as="targetPoint" />
          </mxGeometry>
        </mxCell>
        <mxCell id="WWlV5e2IUx9NMdd2vQTv-11" value="Sign-up Page" style="rounded=1;whiteSpace=wrap;html=1;flipH=0;flipV=0;" vertex="1" parent="1">
          <mxGeometry x="209" y="80" width="120" height="60" as="geometry" />
        </mxCell>
        <mxCell id="WWlV5e2IUx9NMdd2vQTv-12" value="Server" style="rounded=1;whiteSpace=wrap;html=1;flipH=0;flipV=0;" vertex="1" parent="1">
          <mxGeometry x="444" y="80" width="120" height="60" as="geometry" />
        </mxCell>
        <mxCell id="WWlV5e2IUx9NMdd2vQTv-13" value="DB" style="shape=cylinder3;whiteSpace=wrap;html=1;boundedLbl=1;backgroundOutline=1;size=15;flipH=0;flipV=0;" vertex="1" parent="1">
          <mxGeometry x="679" y="70" width="52.5" height="70" as="geometry" />
        </mxCell>
        <mxCell id="WWlV5e2IUx9NMdd2vQTv-14" value="Actor" style="shape=umlActor;verticalLabelPosition=bottom;verticalAlign=top;html=1;outlineConnect=0;" vertex="1" parent="1">
          <mxGeometry x="82" y="80" width="30" height="60" as="geometry" />
        </mxCell>
        <mxCell id="WWlV5e2IUx9NMdd2vQTv-15" value="" style="endArrow=classic;html=1;rounded=0;fontFamily=Verdana;" edge="1" parent="1">
          <mxGeometry width="50" height="50" relative="1" as="geometry">
            <mxPoint x="99" y="220" as="sourcePoint" />
            <mxPoint x="249" y="220" as="targetPoint" />
          </mxGeometry>
        </mxCell>
        <mxCell id="WWlV5e2IUx9NMdd2vQTv-16" value="Fill informations" style="edgeLabel;html=1;align=center;verticalAlign=middle;resizable=0;points=[];fontFamily=Verdana;" vertex="1" connectable="0" parent="WWlV5e2IUx9NMdd2vQTv-15">
          <mxGeometry x="-0.2933" y="1" relative="1" as="geometry">
            <mxPoint x="17" as="offset" />
          </mxGeometry>
        </mxCell>
        <mxCell id="WWlV5e2IUx9NMdd2vQTv-17" value="" style="endArrow=classic;html=1;rounded=0;fontFamily=Verdana;" edge="1" parent="1">
          <mxGeometry width="50" height="50" relative="1" as="geometry">
            <mxPoint x="280.9999999999991" y="310" as="sourcePoint" />
            <mxPoint x="480" y="310" as="targetPoint" />
          </mxGeometry>
        </mxCell>
        <mxCell id="WWlV5e2IUx9NMdd2vQTv-18" value="Sign-up details" style="edgeLabel;html=1;align=center;verticalAlign=middle;resizable=0;points=[];fontFamily=Verdana;" vertex="1" connectable="0" parent="WWlV5e2IUx9NMdd2vQTv-17">
          <mxGeometry x="-0.2933" y="1" relative="1" as="geometry">
            <mxPoint x="17" as="offset" />
          </mxGeometry>
        </mxCell>
        <mxCell id="WWlV5e2IUx9NMdd2vQTv-19" value="" style="endArrow=classic;html=1;rounded=0;fontFamily=Verdana;" edge="1" parent="1">
          <mxGeometry width="50" height="50" relative="1" as="geometry">
            <mxPoint x="499" y="333" as="sourcePoint" />
            <mxPoint x="689" y="333" as="targetPoint" />
          </mxGeometry>
        </mxCell>
        <mxCell id="WWlV5e2IUx9NMdd2vQTv-20" value="Check user" style="edgeLabel;html=1;align=center;verticalAlign=middle;resizable=0;points=[];fontFamily=Verdana;" vertex="1" connectable="0" parent="WWlV5e2IUx9NMdd2vQTv-19">
          <mxGeometry x="-0.2933" y="1" relative="1" as="geometry">
            <mxPoint x="17" as="offset" />
          </mxGeometry>
        </mxCell>
        <mxCell id="WWlV5e2IUx9NMdd2vQTv-21" value="" style="endArrow=classic;html=1;rounded=0;dashed=1;fontFamily=Verdana;" edge="1" parent="1">
          <mxGeometry width="50" height="50" relative="1" as="geometry">
            <mxPoint x="694" y="400" as="sourcePoint" />
            <mxPoint x="514" y="400" as="targetPoint" />
          </mxGeometry>
        </mxCell>
        <mxCell id="WWlV5e2IUx9NMdd2vQTv-22" value="does not exist" style="edgeLabel;html=1;align=center;verticalAlign=middle;resizable=0;points=[];fontFamily=Verdana;" vertex="1" connectable="0" parent="WWlV5e2IUx9NMdd2vQTv-21">
          <mxGeometry x="-0.2933" y="1" relative="1" as="geometry">
            <mxPoint x="-33" y="-3" as="offset" />
          </mxGeometry>
        </mxCell>
        <mxCell id="WWlV5e2IUx9NMdd2vQTv-23" value="" style="endArrow=classic;html=1;rounded=0;dashed=1;fontFamily=Verdana;entryX=1.125;entryY=0.582;entryDx=0;entryDy=0;entryPerimeter=0;" edge="1" parent="1" target="WWlV5e2IUx9NMdd2vQTv-27">
          <mxGeometry width="50" height="50" relative="1" as="geometry">
            <mxPoint x="494" y="490" as="sourcePoint" />
            <mxPoint x="289" y="490" as="targetPoint" />
          </mxGeometry>
        </mxCell>
        <mxCell id="WWlV5e2IUx9NMdd2vQTv-24" value="Succesfull message" style="edgeLabel;html=1;align=center;verticalAlign=middle;resizable=0;points=[];fontFamily=Verdana;" vertex="1" connectable="0" parent="WWlV5e2IUx9NMdd2vQTv-23">
          <mxGeometry x="-0.2933" y="1" relative="1" as="geometry">
            <mxPoint x="-34" y="-1" as="offset" />
          </mxGeometry>
        </mxCell>
        <mxCell id="WWlV5e2IUx9NMdd2vQTv-25" value="" style="endArrow=classic;html=1;rounded=0;dashed=1;fontFamily=Verdana;" edge="1" parent="1">
          <mxGeometry width="50" height="50" relative="1" as="geometry">
            <mxPoint x="269" y="510" as="sourcePoint" />
            <mxPoint x="99" y="509" as="targetPoint" />
          </mxGeometry>
        </mxCell>
        <mxCell id="WWlV5e2IUx9NMdd2vQTv-26" value="Succesfull message" style="edgeLabel;html=1;align=center;verticalAlign=middle;resizable=0;points=[];fontFamily=Verdana;" vertex="1" connectable="0" parent="WWlV5e2IUx9NMdd2vQTv-25">
          <mxGeometry x="-0.2933" y="1" relative="1" as="geometry">
            <mxPoint x="-27" y="-2" as="offset" />
          </mxGeometry>
        </mxCell>
        <mxCell id="WWlV5e2IUx9NMdd2vQTv-27" value="" style="verticalLabelPosition=bottom;verticalAlign=top;html=1;shape=mxgraph.basic.rect;fillColor2=none;strokeWidth=1;size=20;indent=5;fontFamily=Verdana;" vertex="1" parent="1">
          <mxGeometry x="259" y="193" width="20" height="510" as="geometry" />
        </mxCell>
        <mxCell id="WWlV5e2IUx9NMdd2vQTv-28" value="" style="verticalLabelPosition=bottom;verticalAlign=top;html=1;shape=mxgraph.basic.rect;fillColor2=none;strokeWidth=1;size=20;indent=5;fontFamily=Verdana;" vertex="1" parent="1">
          <mxGeometry x="693" y="323" width="20" height="147" as="geometry" />
        </mxCell>
        <mxCell id="WWlV5e2IUx9NMdd2vQTv-29" value="" style="endArrow=none;dashed=1;html=1;dashPattern=1 3;strokeWidth=2;rounded=0;fontFamily=Verdana;" edge="1" parent="1">
          <mxGeometry width="50" height="50" relative="1" as="geometry">
            <mxPoint x="29" y="534.5799999999999" as="sourcePoint" />
            <mxPoint x="789" y="534.5799999999999" as="targetPoint" />
          </mxGeometry>
        </mxCell>
        <mxCell id="WWlV5e2IUx9NMdd2vQTv-30" value="" style="verticalLabelPosition=bottom;verticalAlign=top;html=1;shape=mxgraph.basic.rect;fillColor2=none;strokeWidth=1;size=20;indent=5;fontFamily=Verdana;" vertex="1" parent="1">
          <mxGeometry x="494" y="290" width="20" height="220" as="geometry" />
        </mxCell>
        <mxCell id="WWlV5e2IUx9NMdd2vQTv-31" value="" style="endArrow=classic;html=1;rounded=0;fontFamily=Verdana;" edge="1" parent="1">
          <mxGeometry width="50" height="50" relative="1" as="geometry">
            <mxPoint x="517" y="430" as="sourcePoint" />
            <mxPoint x="693.0000000000009" y="430" as="targetPoint" />
          </mxGeometry>
        </mxCell>
        <mxCell id="WWlV5e2IUx9NMdd2vQTv-32" value="Insert user" style="edgeLabel;html=1;align=center;verticalAlign=middle;resizable=0;points=[];fontFamily=Verdana;" vertex="1" connectable="0" parent="WWlV5e2IUx9NMdd2vQTv-31">
          <mxGeometry x="-0.2933" y="1" relative="1" as="geometry">
            <mxPoint x="17" as="offset" />
          </mxGeometry>
        </mxCell>
        <mxCell id="WWlV5e2IUx9NMdd2vQTv-33" value="" style="endArrow=classic;html=1;rounded=0;dashed=1;fontFamily=Verdana;" edge="1" parent="1">
          <mxGeometry width="50" height="50" relative="1" as="geometry">
            <mxPoint x="693.0000000000009" y="460" as="sourcePoint" />
            <mxPoint x="519" y="460.4200000000001" as="targetPoint" />
          </mxGeometry>
        </mxCell>
        <mxCell id="WWlV5e2IUx9NMdd2vQTv-34" value="Succesfull message" style="edgeLabel;html=1;align=center;verticalAlign=middle;resizable=0;points=[];fontFamily=Verdana;" vertex="1" connectable="0" parent="WWlV5e2IUx9NMdd2vQTv-33">
          <mxGeometry x="-0.2933" y="1" relative="1" as="geometry">
            <mxPoint x="-28" y="-3" as="offset" />
          </mxGeometry>
        </mxCell>
        <mxCell id="WWlV5e2IUx9NMdd2vQTv-35" value="" style="verticalLabelPosition=bottom;verticalAlign=top;html=1;shape=mxgraph.basic.rect;fillColor2=none;strokeWidth=1;size=20;indent=5;fontFamily=Verdana;" vertex="1" parent="1">
          <mxGeometry x="693" y="554" width="20" height="36" as="geometry" />
        </mxCell>
        <mxCell id="WWlV5e2IUx9NMdd2vQTv-36" value="" style="verticalLabelPosition=bottom;verticalAlign=top;html=1;shape=mxgraph.basic.rect;fillColor2=none;strokeWidth=1;size=20;indent=5;fontFamily=Verdana;" vertex="1" parent="1">
          <mxGeometry x="494" y="554" width="20" height="46" as="geometry" />
        </mxCell>
        <mxCell id="WWlV5e2IUx9NMdd2vQTv-37" value="" style="endArrow=none;dashed=1;html=1;rounded=0;fontFamily=Verdana;entryX=0.5;entryY=1;entryDx=0;entryDy=0;" edge="1" parent="1" target="WWlV5e2IUx9NMdd2vQTv-36">
          <mxGeometry width="50" height="50" relative="1" as="geometry">
            <mxPoint x="504" y="750" as="sourcePoint" />
            <mxPoint x="503.5799999999999" y="140" as="targetPoint" />
          </mxGeometry>
        </mxCell>
        <mxCell id="WWlV5e2IUx9NMdd2vQTv-38" value="" style="endArrow=classic;html=1;rounded=0;dashed=1;fontFamily=Verdana;" edge="1" parent="1">
          <mxGeometry width="50" height="50" relative="1" as="geometry">
            <mxPoint x="693.0000000000009" y="570" as="sourcePoint" />
            <mxPoint x="513.0000000000009" y="570" as="targetPoint" />
          </mxGeometry>
        </mxCell>
        <mxCell id="WWlV5e2IUx9NMdd2vQTv-39" value="exist" style="edgeLabel;html=1;align=center;verticalAlign=middle;resizable=0;points=[];fontFamily=Verdana;" vertex="1" connectable="0" parent="WWlV5e2IUx9NMdd2vQTv-38">
          <mxGeometry x="-0.2933" y="1" relative="1" as="geometry">
            <mxPoint x="-33" y="-3" as="offset" />
          </mxGeometry>
        </mxCell>
        <mxCell id="WWlV5e2IUx9NMdd2vQTv-40" value="" style="endArrow=classic;html=1;rounded=0;dashed=1;fontFamily=Verdana;entryX=1.167;entryY=0.759;entryDx=0;entryDy=0;entryPerimeter=0;" edge="1" parent="1" target="WWlV5e2IUx9NMdd2vQTv-27">
          <mxGeometry width="50" height="50" relative="1" as="geometry">
            <mxPoint x="494" y="580" as="sourcePoint" />
            <mxPoint x="314" y="580" as="targetPoint" />
          </mxGeometry>
        </mxCell>
        <mxCell id="WWlV5e2IUx9NMdd2vQTv-41" value="error" style="edgeLabel;html=1;align=center;verticalAlign=middle;resizable=0;points=[];fontFamily=Verdana;" vertex="1" connectable="0" parent="WWlV5e2IUx9NMdd2vQTv-40">
          <mxGeometry x="-0.2933" y="1" relative="1" as="geometry">
            <mxPoint x="-33" y="-3" as="offset" />
          </mxGeometry>
        </mxCell>
        <mxCell id="WWlV5e2IUx9NMdd2vQTv-42" value="" style="endArrow=classic;html=1;rounded=0;dashed=1;fontFamily=Verdana;" edge="1" parent="1">
          <mxGeometry width="50" height="50" relative="1" as="geometry">
            <mxPoint x="259" y="612.0799999999999" as="sourcePoint" />
            <mxPoint x="99" y="612" as="targetPoint" />
          </mxGeometry>
        </mxCell>
        <mxCell id="WWlV5e2IUx9NMdd2vQTv-43" value="error" style="edgeLabel;html=1;align=center;verticalAlign=middle;resizable=0;points=[];fontFamily=Verdana;" vertex="1" connectable="0" parent="WWlV5e2IUx9NMdd2vQTv-42">
          <mxGeometry x="-0.2933" y="1" relative="1" as="geometry">
            <mxPoint x="-33" y="-3" as="offset" />
          </mxGeometry>
        </mxCell>
        <mxCell id="WWlV5e2IUx9NMdd2vQTv-44" value="" style="endArrow=none;dashed=1;html=1;rounded=0;fontFamily=Verdana;entryX=0.5;entryY=1;entryDx=0;entryDy=0;" edge="1" parent="1">
          <mxGeometry width="50" height="50" relative="1" as="geometry">
            <mxPoint x="97" y="750" as="sourcePoint" />
            <mxPoint x="96.57999999999902" y="160" as="targetPoint" />
          </mxGeometry>
        </mxCell>
        <mxCell id="WWlV5e2IUx9NMdd2vQTv-45" value="User does not exist" style="text;strokeColor=none;fillColor=none;align=center;verticalAlign=middle;spacingLeft=4;spacingRight=4;overflow=hidden;points=[[0,0.5],[1,0.5]];portConstraint=eastwest;rotatable=0;fontFamily=Verdana;html=0;horizontal=0;" vertex="1" parent="1">
          <mxGeometry x="44" y="390" width="30" height="130" as="geometry" />
        </mxCell>
        <mxCell id="WWlV5e2IUx9NMdd2vQTv-46" value="else" style="text;strokeColor=none;fillColor=none;align=center;verticalAlign=middle;spacingLeft=4;spacingRight=4;overflow=hidden;points=[[0,0.5],[1,0.5]];portConstraint=eastwest;rotatable=0;fontFamily=Verdana;html=0;horizontal=0;" vertex="1" parent="1">
          <mxGeometry x="44" y="540" width="30" height="130" as="geometry" />
        </mxCell>
        <mxCell id="WWlV5e2IUx9NMdd2vQTv-47" value="Actor" style="shape=umlActor;verticalLabelPosition=bottom;verticalAlign=top;html=1;outlineConnect=0;" vertex="1" parent="1">
          <mxGeometry x="82" y="890" width="30" height="60" as="geometry" />
        </mxCell>
        <mxCell id="WWlV5e2IUx9NMdd2vQTv-48" value="" style="endArrow=none;dashed=1;html=1;rounded=0;fontFamily=Verdana;startArrow=none;" edge="1" parent="1" source="WWlV5e2IUx9NMdd2vQTv-89">
          <mxGeometry width="50" height="50" relative="1" as="geometry">
            <mxPoint x="96.92" y="1560" as="sourcePoint" />
            <mxPoint x="97" y="980" as="targetPoint" />
          </mxGeometry>
        </mxCell>
        <mxCell id="WWlV5e2IUx9NMdd2vQTv-49" value="Home Page" style="rounded=1;whiteSpace=wrap;html=1;flipH=0;flipV=0;" vertex="1" parent="1">
          <mxGeometry x="178" y="890" width="120" height="60" as="geometry" />
        </mxCell>
        <mxCell id="WWlV5e2IUx9NMdd2vQTv-50" value="Event Page" style="rounded=1;whiteSpace=wrap;html=1;flipH=0;flipV=0;" vertex="1" parent="1">
          <mxGeometry x="354.5" y="890" width="120" height="60" as="geometry" />
        </mxCell>
        <mxCell id="WWlV5e2IUx9NMdd2vQTv-51" value="Server" style="rounded=1;whiteSpace=wrap;html=1;flipH=0;flipV=0;" vertex="1" parent="1">
          <mxGeometry x="800" y="890" width="120" height="60" as="geometry" />
        </mxCell>
        <mxCell id="WWlV5e2IUx9NMdd2vQTv-52" value="DB" style="shape=cylinder3;whiteSpace=wrap;html=1;boundedLbl=1;backgroundOutline=1;size=15;flipH=0;flipV=0;" vertex="1" parent="1">
          <mxGeometry x="981.5" y="880" width="52.5" height="70" as="geometry" />
        </mxCell>
        <mxCell id="WWlV5e2IUx9NMdd2vQTv-53" value="" style="endArrow=none;dashed=1;html=1;rounded=0;fontFamily=Verdana;entryX=0.5;entryY=1;entryDx=0;entryDy=0;startArrow=none;" edge="1" parent="1" source="WWlV5e2IUx9NMdd2vQTv-65">
          <mxGeometry width="50" height="50" relative="1" as="geometry">
            <mxPoint x="237.92000000000007" y="1560" as="sourcePoint" />
            <mxPoint x="237.5" y="970" as="targetPoint" />
          </mxGeometry>
        </mxCell>
        <mxCell id="WWlV5e2IUx9NMdd2vQTv-54" value="" style="endArrow=none;dashed=1;html=1;rounded=0;fontFamily=Verdana;entryX=0.5;entryY=1;entryDx=0;entryDy=0;startArrow=none;" edge="1" parent="1" source="WWlV5e2IUx9NMdd2vQTv-73">
          <mxGeometry width="50" height="50" relative="1" as="geometry">
            <mxPoint x="414.4200000000001" y="1560" as="sourcePoint" />
            <mxPoint x="414" y="970" as="targetPoint" />
          </mxGeometry>
        </mxCell>
        <mxCell id="WWlV5e2IUx9NMdd2vQTv-55" value="" style="endArrow=none;dashed=1;html=1;rounded=0;fontFamily=Verdana;entryX=0.5;entryY=1;entryDx=0;entryDy=0;startArrow=none;" edge="1" parent="1" source="WWlV5e2IUx9NMdd2vQTv-85">
          <mxGeometry width="50" height="50" relative="1" as="geometry">
            <mxPoint x="859.5" y="1080" as="sourcePoint" />
            <mxPoint x="859.5" y="970" as="targetPoint" />
          </mxGeometry>
        </mxCell>
        <mxCell id="WWlV5e2IUx9NMdd2vQTv-56" value="" style="endArrow=none;dashed=1;html=1;rounded=0;fontFamily=Verdana;entryX=0.5;entryY=1;entryDx=0;entryDy=0;startArrow=none;" edge="1" parent="1" source="WWlV5e2IUx9NMdd2vQTv-87">
          <mxGeometry width="50" height="50" relative="1" as="geometry">
            <mxPoint x="1007.6700000000001" y="1560" as="sourcePoint" />
            <mxPoint x="1007.2499999999991" y="970" as="targetPoint" />
          </mxGeometry>
        </mxCell>
        <mxCell id="WWlV5e2IUx9NMdd2vQTv-57" value="" style="endArrow=classic;html=1;rounded=0;fontFamily=Verdana;" edge="1" parent="1">
          <mxGeometry width="50" height="50" relative="1" as="geometry">
            <mxPoint x="100" y="1020" as="sourcePoint" />
            <mxPoint x="220" y="1020" as="targetPoint" />
          </mxGeometry>
        </mxCell>
        <mxCell id="WWlV5e2IUx9NMdd2vQTv-58" value="Visit HomePage" style="edgeLabel;html=1;align=center;verticalAlign=middle;resizable=0;points=[];fontFamily=Verdana;" vertex="1" connectable="0" parent="WWlV5e2IUx9NMdd2vQTv-57">
          <mxGeometry x="-0.2933" y="1" relative="1" as="geometry">
            <mxPoint x="20" as="offset" />
          </mxGeometry>
        </mxCell>
        <mxCell id="WWlV5e2IUx9NMdd2vQTv-59" value="" style="endArrow=classic;html=1;rounded=0;fontFamily=Verdana;" edge="1" parent="1">
          <mxGeometry width="50" height="50" relative="1" as="geometry">
            <mxPoint x="220" y="1060" as="sourcePoint" />
            <mxPoint x="110" y="1060" as="targetPoint" />
          </mxGeometry>
        </mxCell>
        <mxCell id="WWlV5e2IUx9NMdd2vQTv-60" value="List Events" style="edgeLabel;html=1;align=center;verticalAlign=middle;resizable=0;points=[];fontFamily=Verdana;" vertex="1" connectable="0" parent="WWlV5e2IUx9NMdd2vQTv-59">
          <mxGeometry x="-0.2933" y="1" relative="1" as="geometry">
            <mxPoint x="-13" y="-3" as="offset" />
          </mxGeometry>
        </mxCell>
        <mxCell id="WWlV5e2IUx9NMdd2vQTv-61" value="" style="endArrow=classic;html=1;rounded=0;fontFamily=Verdana;" edge="1" parent="1">
          <mxGeometry width="50" height="50" relative="1" as="geometry">
            <mxPoint x="99" y="1090" as="sourcePoint" />
            <mxPoint x="220" y="1090" as="targetPoint" />
          </mxGeometry>
        </mxCell>
        <mxCell id="WWlV5e2IUx9NMdd2vQTv-62" value="Click Event" style="edgeLabel;html=1;align=center;verticalAlign=middle;resizable=0;points=[];fontFamily=Verdana;" vertex="1" connectable="0" parent="WWlV5e2IUx9NMdd2vQTv-61">
          <mxGeometry x="-0.2933" y="1" relative="1" as="geometry">
            <mxPoint x="20" as="offset" />
          </mxGeometry>
        </mxCell>
        <mxCell id="WWlV5e2IUx9NMdd2vQTv-63" value="" style="endArrow=classic;html=1;rounded=0;fontFamily=Verdana;" edge="1" parent="1">
          <mxGeometry width="50" height="50" relative="1" as="geometry">
            <mxPoint x="244.5" y="1100" as="sourcePoint" />
            <mxPoint x="398.0000000000009" y="1100" as="targetPoint" />
          </mxGeometry>
        </mxCell>
        <mxCell id="WWlV5e2IUx9NMdd2vQTv-64" value="Redirect Event" style="edgeLabel;html=1;align=center;verticalAlign=middle;resizable=0;points=[];fontFamily=Verdana;" vertex="1" connectable="0" parent="WWlV5e2IUx9NMdd2vQTv-63">
          <mxGeometry x="-0.2933" y="1" relative="1" as="geometry">
            <mxPoint x="18" as="offset" />
          </mxGeometry>
        </mxCell>
        <mxCell id="WWlV5e2IUx9NMdd2vQTv-65" value="" style="verticalLabelPosition=bottom;verticalAlign=top;html=1;shape=mxgraph.basic.rect;fillColor2=none;strokeWidth=1;size=20;indent=5;fontFamily=Verdana;" vertex="1" parent="1">
          <mxGeometry x="228" y="1000" width="20" height="120" as="geometry" />
        </mxCell>
        <mxCell id="WWlV5e2IUx9NMdd2vQTv-66" value="" style="endArrow=none;dashed=1;html=1;rounded=0;fontFamily=Verdana;entryX=0.5;entryY=1;entryDx=0;entryDy=0;" edge="1" parent="1" target="WWlV5e2IUx9NMdd2vQTv-65">
          <mxGeometry width="50" height="50" relative="1" as="geometry">
            <mxPoint x="240" y="1840" as="sourcePoint" />
            <mxPoint x="237.5" y="970" as="targetPoint" />
          </mxGeometry>
        </mxCell>
        <mxCell id="WWlV5e2IUx9NMdd2vQTv-67" value="" style="endArrow=classic;html=1;rounded=0;fontFamily=Verdana;" edge="1" parent="1">
          <mxGeometry width="50" height="50" relative="1" as="geometry">
            <mxPoint x="390.9999999999991" y="1148" as="sourcePoint" />
            <mxPoint x="110" y="1148" as="targetPoint" />
          </mxGeometry>
        </mxCell>
        <mxCell id="WWlV5e2IUx9NMdd2vQTv-68" value="Show Event Interface" style="edgeLabel;html=1;align=center;verticalAlign=middle;resizable=0;points=[];fontFamily=Verdana;" vertex="1" connectable="0" parent="WWlV5e2IUx9NMdd2vQTv-67">
          <mxGeometry x="-0.2933" y="1" relative="1" as="geometry">
            <mxPoint x="-43" y="-3" as="offset" />
          </mxGeometry>
        </mxCell>
        <mxCell id="WWlV5e2IUx9NMdd2vQTv-69" value="" style="endArrow=classic;html=1;rounded=0;fontFamily=Verdana;" edge="1" parent="1">
          <mxGeometry width="50" height="50" relative="1" as="geometry">
            <mxPoint x="105.50000000000091" y="1170" as="sourcePoint" />
            <mxPoint x="390" y="1170" as="targetPoint" />
          </mxGeometry>
        </mxCell>
        <mxCell id="WWlV5e2IUx9NMdd2vQTv-70" value="Click Register Button" style="edgeLabel;html=1;align=center;verticalAlign=middle;resizable=0;points=[];fontFamily=Verdana;" vertex="1" connectable="0" parent="WWlV5e2IUx9NMdd2vQTv-69">
          <mxGeometry x="-0.2933" y="1" relative="1" as="geometry">
            <mxPoint x="40" as="offset" />
          </mxGeometry>
        </mxCell>
        <mxCell id="WWlV5e2IUx9NMdd2vQTv-71" value="" style="endArrow=classic;html=1;rounded=0;fontFamily=Verdana;" edge="1" parent="1">
          <mxGeometry width="50" height="50" relative="1" as="geometry">
            <mxPoint x="418.4999999999991" y="1255" as="sourcePoint" />
            <mxPoint x="840" y="1258" as="targetPoint" />
          </mxGeometry>
        </mxCell>
        <mxCell id="WWlV5e2IUx9NMdd2vQTv-72" value="User Informations" style="edgeLabel;html=1;align=center;verticalAlign=middle;resizable=0;points=[];fontFamily=Verdana;" vertex="1" connectable="0" parent="WWlV5e2IUx9NMdd2vQTv-71">
          <mxGeometry x="-0.2933" y="1" relative="1" as="geometry">
            <mxPoint x="62" y="-1" as="offset" />
          </mxGeometry>
        </mxCell>
        <mxCell id="WWlV5e2IUx9NMdd2vQTv-73" value="" style="verticalLabelPosition=bottom;verticalAlign=top;html=1;shape=mxgraph.basic.rect;fillColor2=none;strokeWidth=1;size=20;indent=5;fontFamily=Verdana;" vertex="1" parent="1">
          <mxGeometry x="404.5" y="1080" width="20" height="330" as="geometry" />
        </mxCell>
        <mxCell id="WWlV5e2IUx9NMdd2vQTv-74" value="" style="endArrow=none;dashed=1;html=1;rounded=0;fontFamily=Verdana;entryX=0.5;entryY=1;entryDx=0;entryDy=0;startArrow=none;" edge="1" parent="1" source="WWlV5e2IUx9NMdd2vQTv-103" target="WWlV5e2IUx9NMdd2vQTv-73">
          <mxGeometry width="50" height="50" relative="1" as="geometry">
            <mxPoint x="415" y="1680" as="sourcePoint" />
            <mxPoint x="414" y="970" as="targetPoint" />
          </mxGeometry>
        </mxCell>
        <mxCell id="WWlV5e2IUx9NMdd2vQTv-75" value="" style="endArrow=classic;html=1;rounded=0;fontFamily=Verdana;" edge="1" parent="1">
          <mxGeometry width="50" height="50" relative="1" as="geometry">
            <mxPoint x="864.5" y="1267" as="sourcePoint" />
            <mxPoint x="994.5" y="1267" as="targetPoint" />
          </mxGeometry>
        </mxCell>
        <mxCell id="WWlV5e2IUx9NMdd2vQTv-76" value="Add to DB" style="edgeLabel;html=1;align=center;verticalAlign=middle;resizable=0;points=[];fontFamily=Verdana;" vertex="1" connectable="0" parent="WWlV5e2IUx9NMdd2vQTv-75">
          <mxGeometry x="-0.2933" y="1" relative="1" as="geometry">
            <mxPoint x="19" y="-1" as="offset" />
          </mxGeometry>
        </mxCell>
        <mxCell id="WWlV5e2IUx9NMdd2vQTv-77" value="" style="endArrow=classic;html=1;rounded=0;dashed=1;fontFamily=Verdana;" edge="1" parent="1">
          <mxGeometry width="50" height="50" relative="1" as="geometry">
            <mxPoint x="992.5" y="1290" as="sourcePoint" />
            <mxPoint x="869.5" y="1290" as="targetPoint" />
          </mxGeometry>
        </mxCell>
        <mxCell id="WWlV5e2IUx9NMdd2vQTv-78" value="Success" style="edgeLabel;html=1;align=center;verticalAlign=middle;resizable=0;points=[];fontFamily=Verdana;" vertex="1" connectable="0" parent="WWlV5e2IUx9NMdd2vQTv-77">
          <mxGeometry x="-0.2933" y="1" relative="1" as="geometry">
            <mxPoint x="-20" y="-3" as="offset" />
          </mxGeometry>
        </mxCell>
        <mxCell id="WWlV5e2IUx9NMdd2vQTv-79" value="" style="endArrow=classic;html=1;rounded=0;dashed=1;fontFamily=Verdana;exitX=-0.017;exitY=0.865;exitDx=0;exitDy=0;exitPerimeter=0;" edge="1" parent="1" source="WWlV5e2IUx9NMdd2vQTv-85">
          <mxGeometry width="50" height="50" relative="1" as="geometry">
            <mxPoint x="572" y="1305" as="sourcePoint" />
            <mxPoint x="426.5" y="1305" as="targetPoint" />
          </mxGeometry>
        </mxCell>
        <mxCell id="WWlV5e2IUx9NMdd2vQTv-80" value="Success" style="edgeLabel;html=1;align=center;verticalAlign=middle;resizable=0;points=[];fontFamily=Verdana;" vertex="1" connectable="0" parent="WWlV5e2IUx9NMdd2vQTv-79">
          <mxGeometry x="-0.2933" y="1" relative="1" as="geometry">
            <mxPoint x="-51" y="-3" as="offset" />
          </mxGeometry>
        </mxCell>
        <mxCell id="WWlV5e2IUx9NMdd2vQTv-81" value="" style="endArrow=classic;html=1;rounded=0;dashed=1;fontFamily=Verdana;" edge="1" parent="1">
          <mxGeometry width="50" height="50" relative="1" as="geometry">
            <mxPoint x="387.5" y="1324" as="sourcePoint" />
            <mxPoint x="110" y="1324" as="targetPoint" />
          </mxGeometry>
        </mxCell>
        <mxCell id="WWlV5e2IUx9NMdd2vQTv-82" value="Success" style="edgeLabel;html=1;align=center;verticalAlign=middle;resizable=0;points=[];fontFamily=Verdana;" vertex="1" connectable="0" parent="WWlV5e2IUx9NMdd2vQTv-81">
          <mxGeometry x="-0.2933" y="1" relative="1" as="geometry">
            <mxPoint x="-52" y="-3" as="offset" />
          </mxGeometry>
        </mxCell>
        <mxCell id="WWlV5e2IUx9NMdd2vQTv-83" value="" style="endArrow=classic;html=1;rounded=0;fontFamily=Verdana;" edge="1" parent="1">
          <mxGeometry width="50" height="50" relative="1" as="geometry">
            <mxPoint x="398.0000000000009" y="1338" as="sourcePoint" />
            <mxPoint x="398.0000000000009" y="1398" as="targetPoint" />
            <Array as="points">
              <mxPoint x="338" y="1338" />
              <mxPoint x="338" y="1398" />
            </Array>
          </mxGeometry>
        </mxCell>
        <mxCell id="WWlV5e2IUx9NMdd2vQTv-84" value="Convert Button&lt;br&gt;from Register &lt;br&gt;to Cancel" style="edgeLabel;html=1;align=center;verticalAlign=middle;resizable=0;points=[];fontFamily=Verdana;" vertex="1" connectable="0" parent="WWlV5e2IUx9NMdd2vQTv-83">
          <mxGeometry x="-0.2933" y="1" relative="1" as="geometry">
            <mxPoint y="29" as="offset" />
          </mxGeometry>
        </mxCell>
        <mxCell id="WWlV5e2IUx9NMdd2vQTv-85" value="" style="verticalLabelPosition=bottom;verticalAlign=top;html=1;shape=mxgraph.basic.rect;fillColor2=none;strokeWidth=1;size=20;indent=5;fontFamily=Verdana;" vertex="1" parent="1">
          <mxGeometry x="850" y="1170" width="20" height="160" as="geometry" />
        </mxCell>
        <mxCell id="WWlV5e2IUx9NMdd2vQTv-86" value="" style="endArrow=none;dashed=1;html=1;rounded=0;fontFamily=Verdana;entryX=0.5;entryY=1;entryDx=0;entryDy=0;startArrow=none;" edge="1" parent="1" source="WWlV5e2IUx9NMdd2vQTv-101" target="WWlV5e2IUx9NMdd2vQTv-85">
          <mxGeometry width="50" height="50" relative="1" as="geometry">
            <mxPoint x="861.5" y="1680" as="sourcePoint" />
            <mxPoint x="859.5" y="970" as="targetPoint" />
          </mxGeometry>
        </mxCell>
        <mxCell id="WWlV5e2IUx9NMdd2vQTv-87" value="" style="verticalLabelPosition=bottom;verticalAlign=top;html=1;shape=mxgraph.basic.rect;fillColor2=none;strokeWidth=1;size=20;indent=5;fontFamily=Verdana;" vertex="1" parent="1">
          <mxGeometry x="996.5" y="1230" width="20" height="80" as="geometry" />
        </mxCell>
        <mxCell id="WWlV5e2IUx9NMdd2vQTv-88" value="" style="endArrow=none;dashed=1;html=1;rounded=0;fontFamily=Verdana;entryX=0.5;entryY=1;entryDx=0;entryDy=0;startArrow=none;" edge="1" parent="1" source="WWlV5e2IUx9NMdd2vQTv-114" target="WWlV5e2IUx9NMdd2vQTv-87">
          <mxGeometry width="50" height="50" relative="1" as="geometry">
            <mxPoint x="1007" y="1670" as="sourcePoint" />
            <mxPoint x="1007.25" y="970" as="targetPoint" />
          </mxGeometry>
        </mxCell>
        <mxCell id="WWlV5e2IUx9NMdd2vQTv-89" value="" style="verticalLabelPosition=bottom;verticalAlign=top;html=1;shape=mxgraph.basic.rect;fillColor2=none;strokeWidth=1;size=20;indent=5;fontFamily=Verdana;" vertex="1" parent="1">
          <mxGeometry x="87" y="1000" width="20" height="350" as="geometry" />
        </mxCell>
        <mxCell id="WWlV5e2IUx9NMdd2vQTv-90" value="" style="endArrow=none;dashed=1;html=1;rounded=0;fontFamily=Verdana;startArrow=none;" edge="1" parent="1" source="WWlV5e2IUx9NMdd2vQTv-134" target="WWlV5e2IUx9NMdd2vQTv-89">
          <mxGeometry width="50" height="50" relative="1" as="geometry">
            <mxPoint x="100" y="1840" as="sourcePoint" />
            <mxPoint x="97" y="980" as="targetPoint" />
          </mxGeometry>
        </mxCell>
        <mxCell id="WWlV5e2IUx9NMdd2vQTv-91" value="Sign-Up as a Student Sequence Diagram:" style="text;html=1;strokeColor=none;fillColor=none;align=left;verticalAlign=middle;whiteSpace=wrap;rounded=0;fontStyle=1;fontSize=16;" vertex="1" parent="1">
          <mxGeometry x="39" y="20" width="341" height="30" as="geometry" />
        </mxCell>
        <mxCell id="WWlV5e2IUx9NMdd2vQTv-92" value="Register to Event Sequence Diagram:" style="text;html=1;strokeColor=none;fillColor=none;align=left;verticalAlign=middle;whiteSpace=wrap;rounded=0;fontStyle=1;fontSize=16;" vertex="1" parent="1">
          <mxGeometry x="53" y="830" width="317" height="30" as="geometry" />
        </mxCell>
        <mxCell id="WWlV5e2IUx9NMdd2vQTv-93" value="" style="endArrow=classic;html=1;rounded=0;fontFamily=Verdana;" edge="1" parent="1">
          <mxGeometry width="50" height="50" relative="1" as="geometry">
            <mxPoint x="424.5" y="1180.4099999999999" as="sourcePoint" />
            <mxPoint x="840" y="1180" as="targetPoint" />
          </mxGeometry>
        </mxCell>
        <mxCell id="WWlV5e2IUx9NMdd2vQTv-94" value="Check Login" style="edgeLabel;html=1;align=center;verticalAlign=middle;resizable=0;points=[];fontFamily=Verdana;" vertex="1" connectable="0" parent="WWlV5e2IUx9NMdd2vQTv-93">
          <mxGeometry x="-0.2933" y="1" relative="1" as="geometry">
            <mxPoint x="62" as="offset" />
          </mxGeometry>
        </mxCell>
        <mxCell id="WWlV5e2IUx9NMdd2vQTv-95" value="" style="endArrow=classic;html=1;rounded=0;dashed=1;fontFamily=Verdana;exitX=0.729;exitY=0.032;exitDx=0;exitDy=0;exitPerimeter=0;" edge="1" parent="1">
          <mxGeometry width="50" height="50" relative="1" as="geometry">
            <mxPoint x="840.0300000000007" y="1224.08" as="sourcePoint" />
            <mxPoint x="431.25" y="1224" as="targetPoint" />
          </mxGeometry>
        </mxCell>
        <mxCell id="WWlV5e2IUx9NMdd2vQTv-96" value="true" style="edgeLabel;html=1;align=center;verticalAlign=middle;resizable=0;points=[];fontFamily=Verdana;" vertex="1" connectable="0" parent="WWlV5e2IUx9NMdd2vQTv-95">
          <mxGeometry x="-0.2933" y="1" relative="1" as="geometry">
            <mxPoint x="-64" y="-3" as="offset" />
          </mxGeometry>
        </mxCell>
        <mxCell id="WWlV5e2IUx9NMdd2vQTv-97" value="" style="rounded=0;whiteSpace=wrap;html=1;fontFamily=Verdana;" vertex="1" parent="1">
          <mxGeometry x="20" y="1206" width="40" height="614" as="geometry" />
        </mxCell>
        <mxCell id="WWlV5e2IUx9NMdd2vQTv-98" value="Logged in" style="text;strokeColor=none;fillColor=none;align=center;verticalAlign=middle;spacingLeft=4;spacingRight=4;overflow=hidden;points=[[0,0.5],[1,0.5]];portConstraint=eastwest;rotatable=0;fontFamily=Verdana;html=0;horizontal=0;" vertex="1" parent="1">
          <mxGeometry x="25" y="1268" width="30" height="130" as="geometry" />
        </mxCell>
        <mxCell id="WWlV5e2IUx9NMdd2vQTv-99" value="else" style="text;strokeColor=none;fillColor=none;align=center;verticalAlign=middle;spacingLeft=4;spacingRight=4;overflow=hidden;points=[[0,0.5],[1,0.5]];portConstraint=eastwest;rotatable=0;fontFamily=Verdana;html=0;horizontal=0;" vertex="1" parent="1">
          <mxGeometry x="25" y="1585" width="30" height="130" as="geometry" />
        </mxCell>
        <mxCell id="WWlV5e2IUx9NMdd2vQTv-100" value="" style="endArrow=none;dashed=1;html=1;dashPattern=1 3;strokeWidth=2;rounded=0;fontFamily=Verdana;" edge="1" parent="1">
          <mxGeometry width="50" height="50" relative="1" as="geometry">
            <mxPoint x="10" y="1460" as="sourcePoint" />
            <mxPoint x="1250" y="1460" as="targetPoint" />
          </mxGeometry>
        </mxCell>
        <mxCell id="WWlV5e2IUx9NMdd2vQTv-101" value="" style="verticalLabelPosition=bottom;verticalAlign=top;html=1;shape=mxgraph.basic.rect;fillColor2=none;strokeWidth=1;size=20;indent=5;fontFamily=Verdana;" vertex="1" parent="1">
          <mxGeometry x="850" y="1470" width="20" height="210" as="geometry" />
        </mxCell>
        <mxCell id="WWlV5e2IUx9NMdd2vQTv-102" value="" style="endArrow=none;dashed=1;html=1;rounded=0;fontFamily=Verdana;entryX=0.5;entryY=1;entryDx=0;entryDy=0;" edge="1" parent="1" target="WWlV5e2IUx9NMdd2vQTv-101">
          <mxGeometry width="50" height="50" relative="1" as="geometry">
            <mxPoint x="860" y="1840" as="sourcePoint" />
            <mxPoint x="860" y="1330" as="targetPoint" />
          </mxGeometry>
        </mxCell>
        <mxCell id="WWlV5e2IUx9NMdd2vQTv-103" value="" style="verticalLabelPosition=bottom;verticalAlign=top;html=1;shape=mxgraph.basic.rect;fillColor2=none;strokeWidth=1;size=20;indent=5;fontFamily=Verdana;" vertex="1" parent="1">
          <mxGeometry x="404" y="1480" width="20" height="290" as="geometry" />
        </mxCell>
        <mxCell id="WWlV5e2IUx9NMdd2vQTv-104" value="" style="endArrow=none;dashed=1;html=1;rounded=0;fontFamily=Verdana;entryX=0.5;entryY=1;entryDx=0;entryDy=0;" edge="1" parent="1" target="WWlV5e2IUx9NMdd2vQTv-103">
          <mxGeometry width="50" height="50" relative="1" as="geometry">
            <mxPoint x="414" y="1840" as="sourcePoint" />
            <mxPoint x="414.5" y="1410" as="targetPoint" />
          </mxGeometry>
        </mxCell>
        <mxCell id="WWlV5e2IUx9NMdd2vQTv-105" value="Login Page/PopUp" style="rounded=1;whiteSpace=wrap;html=1;flipH=0;flipV=0;" vertex="1" parent="1">
          <mxGeometry x="573" y="890" width="120" height="60" as="geometry" />
        </mxCell>
        <mxCell id="WWlV5e2IUx9NMdd2vQTv-106" value="" style="endArrow=classic;html=1;rounded=0;dashed=1;fontFamily=Verdana;exitX=0.729;exitY=0.032;exitDx=0;exitDy=0;exitPerimeter=0;" edge="1" parent="1">
          <mxGeometry width="50" height="50" relative="1" as="geometry">
            <mxPoint x="849.7799999999997" y="1490.08" as="sourcePoint" />
            <mxPoint x="429" y="1490" as="targetPoint" />
          </mxGeometry>
        </mxCell>
        <mxCell id="WWlV5e2IUx9NMdd2vQTv-107" value="false" style="edgeLabel;html=1;align=center;verticalAlign=middle;resizable=0;points=[];fontFamily=Verdana;" vertex="1" connectable="0" parent="WWlV5e2IUx9NMdd2vQTv-106">
          <mxGeometry x="-0.2933" y="1" relative="1" as="geometry">
            <mxPoint x="-72" y="-3" as="offset" />
          </mxGeometry>
        </mxCell>
        <mxCell id="WWlV5e2IUx9NMdd2vQTv-108" value="" style="verticalLabelPosition=bottom;verticalAlign=top;html=1;shape=mxgraph.basic.rect;fillColor2=none;strokeWidth=1;size=20;indent=5;fontFamily=Verdana;" vertex="1" parent="1">
          <mxGeometry x="623" y="1504" width="20" height="60" as="geometry" />
        </mxCell>
        <mxCell id="WWlV5e2IUx9NMdd2vQTv-109" value="" style="endArrow=none;dashed=1;html=1;rounded=0;fontFamily=Verdana;entryX=0.5;entryY=1;entryDx=0;entryDy=0;startArrow=none;" edge="1" parent="1" target="WWlV5e2IUx9NMdd2vQTv-108">
          <mxGeometry width="50" height="50" relative="1" as="geometry">
            <mxPoint x="640" y="1840" as="sourcePoint" />
            <mxPoint x="632.4099999999999" y="970" as="targetPoint" />
          </mxGeometry>
        </mxCell>
        <mxCell id="WWlV5e2IUx9NMdd2vQTv-110" value="" style="endArrow=classic;html=1;rounded=0;fontFamily=Verdana;entryX=-0.071;entryY=0.272;entryDx=0;entryDy=0;entryPerimeter=0;" edge="1" parent="1" target="WWlV5e2IUx9NMdd2vQTv-108">
          <mxGeometry width="50" height="50" relative="1" as="geometry">
            <mxPoint x="425.25" y="1520.4099999999999" as="sourcePoint" />
            <mxPoint x="620" y="1520" as="targetPoint" />
          </mxGeometry>
        </mxCell>
        <mxCell id="WWlV5e2IUx9NMdd2vQTv-111" value="Redirect Login Page/PopUp" style="edgeLabel;html=1;align=center;verticalAlign=middle;resizable=0;points=[];fontFamily=Verdana;" vertex="1" connectable="0" parent="WWlV5e2IUx9NMdd2vQTv-110">
          <mxGeometry x="-0.2933" y="1" relative="1" as="geometry">
            <mxPoint x="25" as="offset" />
          </mxGeometry>
        </mxCell>
        <mxCell id="WWlV5e2IUx9NMdd2vQTv-112" value="" style="endArrow=classic;html=1;rounded=0;fontFamily=Verdana;entryX=0.739;entryY=0.528;entryDx=0;entryDy=0;entryPerimeter=0;" edge="1" parent="1" target="WWlV5e2IUx9NMdd2vQTv-3">
          <mxGeometry width="50" height="50" relative="1" as="geometry">
            <mxPoint x="650" y="1530" as="sourcePoint" />
            <mxPoint x="780" y="1530" as="targetPoint" />
          </mxGeometry>
        </mxCell>
        <mxCell id="WWlV5e2IUx9NMdd2vQTv-113" value="Login Informations" style="edgeLabel;html=1;align=center;verticalAlign=middle;resizable=0;points=[];fontFamily=Verdana;" vertex="1" connectable="0" parent="WWlV5e2IUx9NMdd2vQTv-112">
          <mxGeometry x="-0.2933" y="1" relative="1" as="geometry">
            <mxPoint x="19" y="-2" as="offset" />
          </mxGeometry>
        </mxCell>
        <mxCell id="WWlV5e2IUx9NMdd2vQTv-114" value="" style="verticalLabelPosition=bottom;verticalAlign=top;html=1;shape=mxgraph.basic.rect;fillColor2=none;strokeWidth=1;size=20;indent=5;fontFamily=Verdana;" vertex="1" parent="1">
          <mxGeometry x="996.5" y="1520" width="20" height="140" as="geometry" />
        </mxCell>
        <mxCell id="WWlV5e2IUx9NMdd2vQTv-115" value="" style="endArrow=none;dashed=1;html=1;rounded=0;fontFamily=Verdana;entryX=0.5;entryY=1;entryDx=0;entryDy=0;" edge="1" parent="1" target="WWlV5e2IUx9NMdd2vQTv-114">
          <mxGeometry width="50" height="50" relative="1" as="geometry">
            <mxPoint x="1007" y="1840" as="sourcePoint" />
            <mxPoint x="1006.5" y="1310" as="targetPoint" />
          </mxGeometry>
        </mxCell>
        <mxCell id="WWlV5e2IUx9NMdd2vQTv-116" value="" style="endArrow=classic;html=1;rounded=0;fontFamily=Verdana;" edge="1" parent="1">
          <mxGeometry width="50" height="50" relative="1" as="geometry">
            <mxPoint x="877" y="1539" as="sourcePoint" />
            <mxPoint x="993.0000000000009" y="1539.4099999999999" as="targetPoint" />
          </mxGeometry>
        </mxCell>
        <mxCell id="WWlV5e2IUx9NMdd2vQTv-117" value="Check User" style="edgeLabel;html=1;align=center;verticalAlign=middle;resizable=0;points=[];fontFamily=Verdana;" vertex="1" connectable="0" parent="WWlV5e2IUx9NMdd2vQTv-116">
          <mxGeometry x="-0.2933" y="1" relative="1" as="geometry">
            <mxPoint x="19" y="-1" as="offset" />
          </mxGeometry>
        </mxCell>
        <mxCell id="WWlV5e2IUx9NMdd2vQTv-118" value="" style="endArrow=classic;html=1;rounded=0;dashed=1;fontFamily=Verdana;" edge="1" parent="1">
          <mxGeometry width="50" height="50" relative="1" as="geometry">
            <mxPoint x="996.5" y="1564" as="sourcePoint" />
            <mxPoint x="873.4999999999991" y="1564" as="targetPoint" />
          </mxGeometry>
        </mxCell>
        <mxCell id="WWlV5e2IUx9NMdd2vQTv-119" value="Success" style="edgeLabel;html=1;align=center;verticalAlign=middle;resizable=0;points=[];fontFamily=Verdana;" vertex="1" connectable="0" parent="WWlV5e2IUx9NMdd2vQTv-118">
          <mxGeometry x="-0.2933" y="1" relative="1" as="geometry">
            <mxPoint x="-20" y="-3" as="offset" />
          </mxGeometry>
        </mxCell>
        <mxCell id="WWlV5e2IUx9NMdd2vQTv-120" value="" style="endArrow=classic;html=1;rounded=0;fontFamily=Verdana;entryX=0.347;entryY=0.609;entryDx=0;entryDy=0;entryPerimeter=0;" edge="1" parent="1" target="WWlV5e2IUx9NMdd2vQTv-3">
          <mxGeometry width="50" height="50" relative="1" as="geometry">
            <mxPoint x="840" y="1580" as="sourcePoint" />
            <mxPoint x="564.75" y="1580" as="targetPoint" />
          </mxGeometry>
        </mxCell>
        <mxCell id="WWlV5e2IUx9NMdd2vQTv-121" value="authenticate" style="edgeLabel;html=1;align=center;verticalAlign=middle;resizable=0;points=[];fontFamily=Verdana;" vertex="1" connectable="0" parent="WWlV5e2IUx9NMdd2vQTv-120">
          <mxGeometry x="-0.2933" y="1" relative="1" as="geometry">
            <mxPoint x="-65" y="-3" as="offset" />
          </mxGeometry>
        </mxCell>
        <mxCell id="WWlV5e2IUx9NMdd2vQTv-122" value="" style="endArrow=classic;html=1;rounded=0;dashed=1;fontFamily=Verdana;" edge="1" parent="1">
          <mxGeometry width="50" height="50" relative="1" as="geometry">
            <mxPoint x="387.5" y="1679" as="sourcePoint" />
            <mxPoint x="110" y="1679" as="targetPoint" />
          </mxGeometry>
        </mxCell>
        <mxCell id="WWlV5e2IUx9NMdd2vQTv-123" value="Success" style="edgeLabel;html=1;align=center;verticalAlign=middle;resizable=0;points=[];fontFamily=Verdana;" vertex="1" connectable="0" parent="WWlV5e2IUx9NMdd2vQTv-122">
          <mxGeometry x="-0.2933" y="1" relative="1" as="geometry">
            <mxPoint x="-52" y="-3" as="offset" />
          </mxGeometry>
        </mxCell>
        <mxCell id="WWlV5e2IUx9NMdd2vQTv-124" value="" style="endArrow=classic;html=1;rounded=0;fontFamily=Verdana;" edge="1" parent="1">
          <mxGeometry width="50" height="50" relative="1" as="geometry">
            <mxPoint x="398.0000000000009" y="1693" as="sourcePoint" />
            <mxPoint x="398.0000000000009" y="1753" as="targetPoint" />
            <Array as="points">
              <mxPoint x="338" y="1693" />
              <mxPoint x="338" y="1753" />
            </Array>
          </mxGeometry>
        </mxCell>
        <mxCell id="WWlV5e2IUx9NMdd2vQTv-125" value="Convert Button&lt;br&gt;from Register &lt;br&gt;to Cancel" style="edgeLabel;html=1;align=center;verticalAlign=middle;resizable=0;points=[];fontFamily=Verdana;" vertex="1" connectable="0" parent="WWlV5e2IUx9NMdd2vQTv-124">
          <mxGeometry x="-0.2933" y="1" relative="1" as="geometry">
            <mxPoint y="29" as="offset" />
          </mxGeometry>
        </mxCell>
        <mxCell id="WWlV5e2IUx9NMdd2vQTv-126" value="" style="endArrow=classic;html=1;rounded=0;dashed=1;fontFamily=Verdana;exitX=-0.017;exitY=0.865;exitDx=0;exitDy=0;exitPerimeter=0;" edge="1" parent="1">
          <mxGeometry width="50" height="50" relative="1" as="geometry">
            <mxPoint x="849.659999999999" y="1663.3999999999996" as="sourcePoint" />
            <mxPoint x="427" y="1663" as="targetPoint" />
          </mxGeometry>
        </mxCell>
        <mxCell id="WWlV5e2IUx9NMdd2vQTv-127" value="Success" style="edgeLabel;html=1;align=center;verticalAlign=middle;resizable=0;points=[];fontFamily=Verdana;" vertex="1" connectable="0" parent="WWlV5e2IUx9NMdd2vQTv-126">
          <mxGeometry x="-0.2933" y="1" relative="1" as="geometry">
            <mxPoint x="-65" y="-3" as="offset" />
          </mxGeometry>
        </mxCell>
        <mxCell id="WWlV5e2IUx9NMdd2vQTv-128" value="" style="endArrow=classic;html=1;rounded=0;fontFamily=Verdana;" edge="1" parent="1">
          <mxGeometry width="50" height="50" relative="1" as="geometry">
            <mxPoint x="880" y="1622" as="sourcePoint" />
            <mxPoint x="995.5000000000009" y="1622" as="targetPoint" />
          </mxGeometry>
        </mxCell>
        <mxCell id="WWlV5e2IUx9NMdd2vQTv-129" value="Add to DB" style="edgeLabel;html=1;align=center;verticalAlign=middle;resizable=0;points=[];fontFamily=Verdana;" vertex="1" connectable="0" parent="WWlV5e2IUx9NMdd2vQTv-128">
          <mxGeometry x="-0.2933" y="1" relative="1" as="geometry">
            <mxPoint x="19" y="-1" as="offset" />
          </mxGeometry>
        </mxCell>
        <mxCell id="WWlV5e2IUx9NMdd2vQTv-130" value="" style="endArrow=classic;html=1;rounded=0;dashed=1;fontFamily=Verdana;" edge="1" parent="1">
          <mxGeometry width="50" height="50" relative="1" as="geometry">
            <mxPoint x="994.5" y="1645" as="sourcePoint" />
            <mxPoint x="871.5" y="1645" as="targetPoint" />
          </mxGeometry>
        </mxCell>
        <mxCell id="WWlV5e2IUx9NMdd2vQTv-131" value="Success" style="edgeLabel;html=1;align=center;verticalAlign=middle;resizable=0;points=[];fontFamily=Verdana;" vertex="1" connectable="0" parent="WWlV5e2IUx9NMdd2vQTv-130">
          <mxGeometry x="-0.2933" y="1" relative="1" as="geometry">
            <mxPoint x="-20" y="-3" as="offset" />
          </mxGeometry>
        </mxCell>
        <mxCell id="WWlV5e2IUx9NMdd2vQTv-132" value="" style="endArrow=classic;html=1;rounded=0;fontFamily=Verdana;" edge="1" parent="1">
          <mxGeometry width="50" height="50" relative="1" as="geometry">
            <mxPoint x="430" y="1613" as="sourcePoint" />
            <mxPoint x="840" y="1613" as="targetPoint" />
          </mxGeometry>
        </mxCell>
        <mxCell id="WWlV5e2IUx9NMdd2vQTv-133" value="User Informations" style="edgeLabel;html=1;align=center;verticalAlign=middle;resizable=0;points=[];fontFamily=Verdana;" vertex="1" connectable="0" parent="WWlV5e2IUx9NMdd2vQTv-132">
          <mxGeometry x="-0.2933" y="1" relative="1" as="geometry">
            <mxPoint x="62" y="-1" as="offset" />
          </mxGeometry>
        </mxCell>
        <mxCell id="WWlV5e2IUx9NMdd2vQTv-134" value="" style="verticalLabelPosition=bottom;verticalAlign=top;html=1;shape=mxgraph.basic.rect;fillColor2=none;strokeWidth=1;size=20;indent=5;fontFamily=Verdana;" vertex="1" parent="1">
          <mxGeometry x="87" y="1635" width="20" height="80" as="geometry" />
        </mxCell>
        <mxCell id="WWlV5e2IUx9NMdd2vQTv-135" value="" style="endArrow=none;dashed=1;html=1;rounded=0;fontFamily=Verdana;" edge="1" parent="1" target="WWlV5e2IUx9NMdd2vQTv-134">
          <mxGeometry width="50" height="50" relative="1" as="geometry">
            <mxPoint x="100" y="1840" as="sourcePoint" />
            <mxPoint x="97.7894736842104" y="1350" as="targetPoint" />
          </mxGeometry>
        </mxCell>
        <mxCell id="WWlV5e2IUx9NMdd2vQTv-136" value="" style="rounded=0;whiteSpace=wrap;html=1;fontFamily=Verdana;" vertex="1" parent="1">
          <mxGeometry x="1459" y="1204" width="1070" height="614" as="geometry" />
        </mxCell>
        <mxCell id="WWlV5e2IUx9NMdd2vQTv-137" value="" style="endArrow=none;dashed=1;html=1;rounded=0;fontFamily=Verdana;entryX=0.5;entryY=1;entryDx=0;entryDy=0;startArrow=none;" edge="1" parent="1" source="WWlV5e2IUx9NMdd2vQTv-198">
          <mxGeometry width="50" height="50" relative="1" as="geometry">
            <mxPoint x="2032" y="1678" as="sourcePoint" />
            <mxPoint x="2032.4099999999999" y="968" as="targetPoint" />
          </mxGeometry>
        </mxCell>
        <mxCell id="WWlV5e2IUx9NMdd2vQTv-138" value="Actor" style="shape=umlActor;verticalLabelPosition=bottom;verticalAlign=top;html=1;outlineConnect=0;" vertex="1" parent="1">
          <mxGeometry x="1482" y="888" width="30" height="60" as="geometry" />
        </mxCell>
        <mxCell id="WWlV5e2IUx9NMdd2vQTv-139" value="" style="endArrow=none;dashed=1;html=1;rounded=0;fontFamily=Verdana;startArrow=none;" edge="1" parent="1" source="WWlV5e2IUx9NMdd2vQTv-180">
          <mxGeometry width="50" height="50" relative="1" as="geometry">
            <mxPoint x="1496.92" y="1558" as="sourcePoint" />
            <mxPoint x="1497" y="978" as="targetPoint" />
          </mxGeometry>
        </mxCell>
        <mxCell id="WWlV5e2IUx9NMdd2vQTv-140" value="Home Page" style="rounded=1;whiteSpace=wrap;html=1;flipH=0;flipV=0;" vertex="1" parent="1">
          <mxGeometry x="1578" y="888" width="120" height="60" as="geometry" />
        </mxCell>
        <mxCell id="WWlV5e2IUx9NMdd2vQTv-141" value="Event Page" style="rounded=1;whiteSpace=wrap;html=1;flipH=0;flipV=0;" vertex="1" parent="1">
          <mxGeometry x="1754.5" y="888" width="120" height="60" as="geometry" />
        </mxCell>
        <mxCell id="WWlV5e2IUx9NMdd2vQTv-142" value="Server" style="rounded=1;whiteSpace=wrap;html=1;flipH=0;flipV=0;" vertex="1" parent="1">
          <mxGeometry x="2200" y="888" width="120" height="60" as="geometry" />
        </mxCell>
        <mxCell id="WWlV5e2IUx9NMdd2vQTv-143" value="DB" style="shape=cylinder3;whiteSpace=wrap;html=1;boundedLbl=1;backgroundOutline=1;size=15;flipH=0;flipV=0;" vertex="1" parent="1">
          <mxGeometry x="2381.5" y="878" width="52.5" height="70" as="geometry" />
        </mxCell>
        <mxCell id="WWlV5e2IUx9NMdd2vQTv-144" value="" style="endArrow=none;dashed=1;html=1;rounded=0;fontFamily=Verdana;entryX=0.5;entryY=1;entryDx=0;entryDy=0;startArrow=none;" edge="1" parent="1" source="WWlV5e2IUx9NMdd2vQTv-156">
          <mxGeometry width="50" height="50" relative="1" as="geometry">
            <mxPoint x="1637.92" y="1558" as="sourcePoint" />
            <mxPoint x="1637.5" y="968" as="targetPoint" />
          </mxGeometry>
        </mxCell>
        <mxCell id="WWlV5e2IUx9NMdd2vQTv-145" value="" style="endArrow=none;dashed=1;html=1;rounded=0;fontFamily=Verdana;entryX=0.5;entryY=1;entryDx=0;entryDy=0;startArrow=none;" edge="1" parent="1" source="WWlV5e2IUx9NMdd2vQTv-164">
          <mxGeometry width="50" height="50" relative="1" as="geometry">
            <mxPoint x="1814.42" y="1558" as="sourcePoint" />
            <mxPoint x="1814" y="968" as="targetPoint" />
          </mxGeometry>
        </mxCell>
        <mxCell id="WWlV5e2IUx9NMdd2vQTv-146" value="" style="endArrow=none;dashed=1;html=1;rounded=0;fontFamily=Verdana;entryX=0.5;entryY=1;entryDx=0;entryDy=0;startArrow=none;" edge="1" parent="1" source="WWlV5e2IUx9NMdd2vQTv-176">
          <mxGeometry width="50" height="50" relative="1" as="geometry">
            <mxPoint x="2259.5" y="1078" as="sourcePoint" />
            <mxPoint x="2259.5" y="968" as="targetPoint" />
          </mxGeometry>
        </mxCell>
        <mxCell id="WWlV5e2IUx9NMdd2vQTv-147" value="" style="endArrow=none;dashed=1;html=1;rounded=0;fontFamily=Verdana;entryX=0.5;entryY=1;entryDx=0;entryDy=0;startArrow=none;" edge="1" parent="1" source="WWlV5e2IUx9NMdd2vQTv-178">
          <mxGeometry width="50" height="50" relative="1" as="geometry">
            <mxPoint x="2407.67" y="1558" as="sourcePoint" />
            <mxPoint x="2407.25" y="968" as="targetPoint" />
          </mxGeometry>
        </mxCell>
        <mxCell id="WWlV5e2IUx9NMdd2vQTv-148" value="" style="endArrow=classic;html=1;rounded=0;fontFamily=Verdana;" edge="1" parent="1">
          <mxGeometry width="50" height="50" relative="1" as="geometry">
            <mxPoint x="1500" y="1018" as="sourcePoint" />
            <mxPoint x="1620" y="1018" as="targetPoint" />
          </mxGeometry>
        </mxCell>
        <mxCell id="WWlV5e2IUx9NMdd2vQTv-149" value="Visit HomePage" style="edgeLabel;html=1;align=center;verticalAlign=middle;resizable=0;points=[];fontFamily=Verdana;" vertex="1" connectable="0" parent="WWlV5e2IUx9NMdd2vQTv-148">
          <mxGeometry x="-0.2933" y="1" relative="1" as="geometry">
            <mxPoint x="20" as="offset" />
          </mxGeometry>
        </mxCell>
        <mxCell id="WWlV5e2IUx9NMdd2vQTv-150" value="" style="endArrow=classic;html=1;rounded=0;fontFamily=Verdana;" edge="1" parent="1">
          <mxGeometry width="50" height="50" relative="1" as="geometry">
            <mxPoint x="1620" y="1058" as="sourcePoint" />
            <mxPoint x="1510" y="1058" as="targetPoint" />
          </mxGeometry>
        </mxCell>
        <mxCell id="WWlV5e2IUx9NMdd2vQTv-151" value="List Events" style="edgeLabel;html=1;align=center;verticalAlign=middle;resizable=0;points=[];fontFamily=Verdana;" vertex="1" connectable="0" parent="WWlV5e2IUx9NMdd2vQTv-150">
          <mxGeometry x="-0.2933" y="1" relative="1" as="geometry">
            <mxPoint x="-13" y="-3" as="offset" />
          </mxGeometry>
        </mxCell>
        <mxCell id="WWlV5e2IUx9NMdd2vQTv-152" value="" style="endArrow=classic;html=1;rounded=0;fontFamily=Verdana;" edge="1" parent="1">
          <mxGeometry width="50" height="50" relative="1" as="geometry">
            <mxPoint x="1499" y="1088" as="sourcePoint" />
            <mxPoint x="1620" y="1088" as="targetPoint" />
          </mxGeometry>
        </mxCell>
        <mxCell id="WWlV5e2IUx9NMdd2vQTv-153" value="Click Event" style="edgeLabel;html=1;align=center;verticalAlign=middle;resizable=0;points=[];fontFamily=Verdana;" vertex="1" connectable="0" parent="WWlV5e2IUx9NMdd2vQTv-152">
          <mxGeometry x="-0.2933" y="1" relative="1" as="geometry">
            <mxPoint x="20" as="offset" />
          </mxGeometry>
        </mxCell>
        <mxCell id="WWlV5e2IUx9NMdd2vQTv-154" value="" style="endArrow=classic;html=1;rounded=0;fontFamily=Verdana;" edge="1" parent="1">
          <mxGeometry width="50" height="50" relative="1" as="geometry">
            <mxPoint x="1644.5" y="1098" as="sourcePoint" />
            <mxPoint x="1798" y="1098" as="targetPoint" />
          </mxGeometry>
        </mxCell>
        <mxCell id="WWlV5e2IUx9NMdd2vQTv-155" value="Redirect Event" style="edgeLabel;html=1;align=center;verticalAlign=middle;resizable=0;points=[];fontFamily=Verdana;" vertex="1" connectable="0" parent="WWlV5e2IUx9NMdd2vQTv-154">
          <mxGeometry x="-0.2933" y="1" relative="1" as="geometry">
            <mxPoint x="18" as="offset" />
          </mxGeometry>
        </mxCell>
        <mxCell id="WWlV5e2IUx9NMdd2vQTv-156" value="" style="verticalLabelPosition=bottom;verticalAlign=top;html=1;shape=mxgraph.basic.rect;fillColor2=none;strokeWidth=1;size=20;indent=5;fontFamily=Verdana;" vertex="1" parent="1">
          <mxGeometry x="1628" y="998" width="20" height="120" as="geometry" />
        </mxCell>
        <mxCell id="WWlV5e2IUx9NMdd2vQTv-157" value="" style="endArrow=none;dashed=1;html=1;rounded=0;fontFamily=Verdana;entryX=0.5;entryY=1;entryDx=0;entryDy=0;" edge="1" parent="1" target="WWlV5e2IUx9NMdd2vQTv-156">
          <mxGeometry width="50" height="50" relative="1" as="geometry">
            <mxPoint x="1640" y="1838" as="sourcePoint" />
            <mxPoint x="1637.5" y="968" as="targetPoint" />
          </mxGeometry>
        </mxCell>
        <mxCell id="WWlV5e2IUx9NMdd2vQTv-158" value="" style="endArrow=classic;html=1;rounded=0;fontFamily=Verdana;" edge="1" parent="1">
          <mxGeometry width="50" height="50" relative="1" as="geometry">
            <mxPoint x="1791" y="1146" as="sourcePoint" />
            <mxPoint x="1510" y="1146" as="targetPoint" />
          </mxGeometry>
        </mxCell>
        <mxCell id="WWlV5e2IUx9NMdd2vQTv-159" value="Show Event Interface" style="edgeLabel;html=1;align=center;verticalAlign=middle;resizable=0;points=[];fontFamily=Verdana;" vertex="1" connectable="0" parent="WWlV5e2IUx9NMdd2vQTv-158">
          <mxGeometry x="-0.2933" y="1" relative="1" as="geometry">
            <mxPoint x="-43" y="-3" as="offset" />
          </mxGeometry>
        </mxCell>
        <mxCell id="WWlV5e2IUx9NMdd2vQTv-160" value="" style="endArrow=classic;html=1;rounded=0;fontFamily=Verdana;" edge="1" parent="1">
          <mxGeometry width="50" height="50" relative="1" as="geometry">
            <mxPoint x="1505.5" y="1168" as="sourcePoint" />
            <mxPoint x="1790" y="1168" as="targetPoint" />
          </mxGeometry>
        </mxCell>
        <mxCell id="WWlV5e2IUx9NMdd2vQTv-161" value="Click Cancel Button" style="edgeLabel;html=1;align=center;verticalAlign=middle;resizable=0;points=[];fontFamily=Verdana;" vertex="1" connectable="0" parent="WWlV5e2IUx9NMdd2vQTv-160">
          <mxGeometry x="-0.2933" y="1" relative="1" as="geometry">
            <mxPoint x="40" as="offset" />
          </mxGeometry>
        </mxCell>
        <mxCell id="WWlV5e2IUx9NMdd2vQTv-162" value="" style="endArrow=classic;html=1;rounded=0;fontFamily=Verdana;" edge="1" parent="1">
          <mxGeometry width="50" height="50" relative="1" as="geometry">
            <mxPoint x="1818.5" y="1253" as="sourcePoint" />
            <mxPoint x="2240" y="1253" as="targetPoint" />
          </mxGeometry>
        </mxCell>
        <mxCell id="WWlV5e2IUx9NMdd2vQTv-163" value="User Informations" style="edgeLabel;html=1;align=center;verticalAlign=middle;resizable=0;points=[];fontFamily=Verdana;" vertex="1" connectable="0" parent="WWlV5e2IUx9NMdd2vQTv-162">
          <mxGeometry x="-0.2933" y="1" relative="1" as="geometry">
            <mxPoint x="62" y="-1" as="offset" />
          </mxGeometry>
        </mxCell>
        <mxCell id="WWlV5e2IUx9NMdd2vQTv-164" value="" style="verticalLabelPosition=bottom;verticalAlign=top;html=1;shape=mxgraph.basic.rect;fillColor2=none;strokeWidth=1;size=20;indent=5;fontFamily=Verdana;" vertex="1" parent="1">
          <mxGeometry x="1804.5" y="1078" width="20" height="330" as="geometry" />
        </mxCell>
        <mxCell id="WWlV5e2IUx9NMdd2vQTv-165" value="" style="endArrow=none;dashed=1;html=1;rounded=0;fontFamily=Verdana;entryX=0.5;entryY=1;entryDx=0;entryDy=0;startArrow=none;" edge="1" parent="1" source="WWlV5e2IUx9NMdd2vQTv-193" target="WWlV5e2IUx9NMdd2vQTv-164">
          <mxGeometry width="50" height="50" relative="1" as="geometry">
            <mxPoint x="1815" y="1678" as="sourcePoint" />
            <mxPoint x="1814" y="968" as="targetPoint" />
          </mxGeometry>
        </mxCell>
        <mxCell id="WWlV5e2IUx9NMdd2vQTv-166" value="" style="endArrow=classic;html=1;rounded=0;fontFamily=Verdana;" edge="1" parent="1">
          <mxGeometry width="50" height="50" relative="1" as="geometry">
            <mxPoint x="2264.5" y="1265" as="sourcePoint" />
            <mxPoint x="2394.5" y="1265" as="targetPoint" />
          </mxGeometry>
        </mxCell>
        <mxCell id="WWlV5e2IUx9NMdd2vQTv-167" value="Change State" style="edgeLabel;html=1;align=center;verticalAlign=middle;resizable=0;points=[];fontFamily=Verdana;" vertex="1" connectable="0" parent="WWlV5e2IUx9NMdd2vQTv-166">
          <mxGeometry x="-0.2933" y="1" relative="1" as="geometry">
            <mxPoint x="19" y="-1" as="offset" />
          </mxGeometry>
        </mxCell>
        <mxCell id="WWlV5e2IUx9NMdd2vQTv-168" value="" style="endArrow=classic;html=1;rounded=0;dashed=1;fontFamily=Verdana;" edge="1" parent="1">
          <mxGeometry width="50" height="50" relative="1" as="geometry">
            <mxPoint x="2392.5" y="1288" as="sourcePoint" />
            <mxPoint x="2269.5" y="1288" as="targetPoint" />
          </mxGeometry>
        </mxCell>
        <mxCell id="WWlV5e2IUx9NMdd2vQTv-169" value="Success" style="edgeLabel;html=1;align=center;verticalAlign=middle;resizable=0;points=[];fontFamily=Verdana;" vertex="1" connectable="0" parent="WWlV5e2IUx9NMdd2vQTv-168">
          <mxGeometry x="-0.2933" y="1" relative="1" as="geometry">
            <mxPoint x="-20" y="-3" as="offset" />
          </mxGeometry>
        </mxCell>
        <mxCell id="WWlV5e2IUx9NMdd2vQTv-170" value="" style="endArrow=classic;html=1;rounded=0;dashed=1;fontFamily=Verdana;exitX=-0.017;exitY=0.865;exitDx=0;exitDy=0;exitPerimeter=0;" edge="1" parent="1" source="WWlV5e2IUx9NMdd2vQTv-176">
          <mxGeometry width="50" height="50" relative="1" as="geometry">
            <mxPoint x="1972" y="1303" as="sourcePoint" />
            <mxPoint x="1826.5" y="1303" as="targetPoint" />
          </mxGeometry>
        </mxCell>
        <mxCell id="WWlV5e2IUx9NMdd2vQTv-171" value="Success" style="edgeLabel;html=1;align=center;verticalAlign=middle;resizable=0;points=[];fontFamily=Verdana;" vertex="1" connectable="0" parent="WWlV5e2IUx9NMdd2vQTv-170">
          <mxGeometry x="-0.2933" y="1" relative="1" as="geometry">
            <mxPoint x="-51" y="-3" as="offset" />
          </mxGeometry>
        </mxCell>
        <mxCell id="WWlV5e2IUx9NMdd2vQTv-172" value="" style="endArrow=classic;html=1;rounded=0;dashed=1;fontFamily=Verdana;" edge="1" parent="1">
          <mxGeometry width="50" height="50" relative="1" as="geometry">
            <mxPoint x="1787.5" y="1322" as="sourcePoint" />
            <mxPoint x="1510" y="1322" as="targetPoint" />
          </mxGeometry>
        </mxCell>
        <mxCell id="WWlV5e2IUx9NMdd2vQTv-173" value="Success" style="edgeLabel;html=1;align=center;verticalAlign=middle;resizable=0;points=[];fontFamily=Verdana;" vertex="1" connectable="0" parent="WWlV5e2IUx9NMdd2vQTv-172">
          <mxGeometry x="-0.2933" y="1" relative="1" as="geometry">
            <mxPoint x="-52" y="-3" as="offset" />
          </mxGeometry>
        </mxCell>
        <mxCell id="WWlV5e2IUx9NMdd2vQTv-174" value="" style="endArrow=classic;html=1;rounded=0;fontFamily=Verdana;" edge="1" parent="1">
          <mxGeometry width="50" height="50" relative="1" as="geometry">
            <mxPoint x="1798" y="1336" as="sourcePoint" />
            <mxPoint x="1798" y="1396" as="targetPoint" />
            <Array as="points">
              <mxPoint x="1738" y="1336" />
              <mxPoint x="1738" y="1396" />
            </Array>
          </mxGeometry>
        </mxCell>
        <mxCell id="WWlV5e2IUx9NMdd2vQTv-175" value="Convert Button&lt;br&gt;from Register &lt;br&gt;to Cancel" style="edgeLabel;html=1;align=center;verticalAlign=middle;resizable=0;points=[];fontFamily=Verdana;" vertex="1" connectable="0" parent="WWlV5e2IUx9NMdd2vQTv-174">
          <mxGeometry x="-0.2933" y="1" relative="1" as="geometry">
            <mxPoint y="29" as="offset" />
          </mxGeometry>
        </mxCell>
        <mxCell id="WWlV5e2IUx9NMdd2vQTv-176" value="" style="verticalLabelPosition=bottom;verticalAlign=top;html=1;shape=mxgraph.basic.rect;fillColor2=none;strokeWidth=1;size=20;indent=5;fontFamily=Verdana;" vertex="1" parent="1">
          <mxGeometry x="2250" y="1168" width="20" height="160" as="geometry" />
        </mxCell>
        <mxCell id="WWlV5e2IUx9NMdd2vQTv-177" value="" style="endArrow=none;dashed=1;html=1;rounded=0;fontFamily=Verdana;entryX=0.5;entryY=1;entryDx=0;entryDy=0;startArrow=none;" edge="1" parent="1" source="WWlV5e2IUx9NMdd2vQTv-191" target="WWlV5e2IUx9NMdd2vQTv-176">
          <mxGeometry width="50" height="50" relative="1" as="geometry">
            <mxPoint x="2261.5" y="1678" as="sourcePoint" />
            <mxPoint x="2259.5" y="968" as="targetPoint" />
          </mxGeometry>
        </mxCell>
        <mxCell id="WWlV5e2IUx9NMdd2vQTv-178" value="" style="verticalLabelPosition=bottom;verticalAlign=top;html=1;shape=mxgraph.basic.rect;fillColor2=none;strokeWidth=1;size=20;indent=5;fontFamily=Verdana;" vertex="1" parent="1">
          <mxGeometry x="2396.5" y="1228" width="20" height="80" as="geometry" />
        </mxCell>
        <mxCell id="WWlV5e2IUx9NMdd2vQTv-179" value="" style="endArrow=none;dashed=1;html=1;rounded=0;fontFamily=Verdana;entryX=0.5;entryY=1;entryDx=0;entryDy=0;startArrow=none;" edge="1" parent="1" source="WWlV5e2IUx9NMdd2vQTv-204" target="WWlV5e2IUx9NMdd2vQTv-178">
          <mxGeometry width="50" height="50" relative="1" as="geometry">
            <mxPoint x="2407" y="1668" as="sourcePoint" />
            <mxPoint x="2407.25" y="968" as="targetPoint" />
          </mxGeometry>
        </mxCell>
        <mxCell id="WWlV5e2IUx9NMdd2vQTv-180" value="" style="verticalLabelPosition=bottom;verticalAlign=top;html=1;shape=mxgraph.basic.rect;fillColor2=none;strokeWidth=1;size=20;indent=5;fontFamily=Verdana;" vertex="1" parent="1">
          <mxGeometry x="1487" y="998" width="20" height="350" as="geometry" />
        </mxCell>
        <mxCell id="WWlV5e2IUx9NMdd2vQTv-181" value="" style="endArrow=none;dashed=1;html=1;rounded=0;fontFamily=Verdana;startArrow=none;" edge="1" parent="1" source="WWlV5e2IUx9NMdd2vQTv-224" target="WWlV5e2IUx9NMdd2vQTv-180">
          <mxGeometry width="50" height="50" relative="1" as="geometry">
            <mxPoint x="1500" y="1838" as="sourcePoint" />
            <mxPoint x="1497" y="978" as="targetPoint" />
          </mxGeometry>
        </mxCell>
        <mxCell id="WWlV5e2IUx9NMdd2vQTv-182" value="Cancel Registration to Event Sequence Diagram:" style="text;html=1;strokeColor=none;fillColor=none;align=left;verticalAlign=middle;whiteSpace=wrap;rounded=0;fontStyle=1;fontSize=16;" vertex="1" parent="1">
          <mxGeometry x="1453" y="828" width="377" height="30" as="geometry" />
        </mxCell>
        <mxCell id="WWlV5e2IUx9NMdd2vQTv-183" value="" style="endArrow=classic;html=1;rounded=0;fontFamily=Verdana;" edge="1" parent="1">
          <mxGeometry width="50" height="50" relative="1" as="geometry">
            <mxPoint x="1824.5" y="1178.4099999999999" as="sourcePoint" />
            <mxPoint x="2240" y="1178" as="targetPoint" />
          </mxGeometry>
        </mxCell>
        <mxCell id="WWlV5e2IUx9NMdd2vQTv-184" value="Check Login" style="edgeLabel;html=1;align=center;verticalAlign=middle;resizable=0;points=[];fontFamily=Verdana;" vertex="1" connectable="0" parent="WWlV5e2IUx9NMdd2vQTv-183">
          <mxGeometry x="-0.2933" y="1" relative="1" as="geometry">
            <mxPoint x="62" as="offset" />
          </mxGeometry>
        </mxCell>
        <mxCell id="WWlV5e2IUx9NMdd2vQTv-185" value="" style="endArrow=classic;html=1;rounded=0;dashed=1;fontFamily=Verdana;exitX=0.729;exitY=0.032;exitDx=0;exitDy=0;exitPerimeter=0;" edge="1" parent="1">
          <mxGeometry width="50" height="50" relative="1" as="geometry">
            <mxPoint x="2240.029999999999" y="1222.08" as="sourcePoint" />
            <mxPoint x="1831.25" y="1222" as="targetPoint" />
          </mxGeometry>
        </mxCell>
        <mxCell id="WWlV5e2IUx9NMdd2vQTv-186" value="true" style="edgeLabel;html=1;align=center;verticalAlign=middle;resizable=0;points=[];fontFamily=Verdana;" vertex="1" connectable="0" parent="WWlV5e2IUx9NMdd2vQTv-185">
          <mxGeometry x="-0.2933" y="1" relative="1" as="geometry">
            <mxPoint x="-64" y="-3" as="offset" />
          </mxGeometry>
        </mxCell>
        <mxCell id="WWlV5e2IUx9NMdd2vQTv-187" value="" style="rounded=0;whiteSpace=wrap;html=1;fontFamily=Verdana;" vertex="1" parent="1">
          <mxGeometry x="1420" y="1204" width="40" height="614" as="geometry" />
        </mxCell>
        <mxCell id="WWlV5e2IUx9NMdd2vQTv-188" value="Logged in" style="text;strokeColor=none;fillColor=none;align=center;verticalAlign=middle;spacingLeft=4;spacingRight=4;overflow=hidden;points=[[0,0.5],[1,0.5]];portConstraint=eastwest;rotatable=0;fontFamily=Verdana;html=0;horizontal=0;" vertex="1" parent="1">
          <mxGeometry x="1425" y="1266" width="30" height="130" as="geometry" />
        </mxCell>
        <mxCell id="WWlV5e2IUx9NMdd2vQTv-189" value="else" style="text;strokeColor=none;fillColor=none;align=center;verticalAlign=middle;spacingLeft=4;spacingRight=4;overflow=hidden;points=[[0,0.5],[1,0.5]];portConstraint=eastwest;rotatable=0;fontFamily=Verdana;html=0;horizontal=0;" vertex="1" parent="1">
          <mxGeometry x="1425" y="1583" width="30" height="130" as="geometry" />
        </mxCell>
        <mxCell id="WWlV5e2IUx9NMdd2vQTv-190" value="" style="endArrow=none;dashed=1;html=1;dashPattern=1 3;strokeWidth=2;rounded=0;fontFamily=Verdana;" edge="1" parent="1">
          <mxGeometry width="50" height="50" relative="1" as="geometry">
            <mxPoint x="1410" y="1458" as="sourcePoint" />
            <mxPoint x="2650" y="1458" as="targetPoint" />
          </mxGeometry>
        </mxCell>
        <mxCell id="WWlV5e2IUx9NMdd2vQTv-191" value="" style="verticalLabelPosition=bottom;verticalAlign=top;html=1;shape=mxgraph.basic.rect;fillColor2=none;strokeWidth=1;size=20;indent=5;fontFamily=Verdana;" vertex="1" parent="1">
          <mxGeometry x="2250" y="1468" width="20" height="210" as="geometry" />
        </mxCell>
        <mxCell id="WWlV5e2IUx9NMdd2vQTv-192" value="" style="endArrow=none;dashed=1;html=1;rounded=0;fontFamily=Verdana;entryX=0.5;entryY=1;entryDx=0;entryDy=0;" edge="1" parent="1" target="WWlV5e2IUx9NMdd2vQTv-191">
          <mxGeometry width="50" height="50" relative="1" as="geometry">
            <mxPoint x="2260" y="1838" as="sourcePoint" />
            <mxPoint x="2260" y="1328" as="targetPoint" />
          </mxGeometry>
        </mxCell>
        <mxCell id="WWlV5e2IUx9NMdd2vQTv-193" value="" style="verticalLabelPosition=bottom;verticalAlign=top;html=1;shape=mxgraph.basic.rect;fillColor2=none;strokeWidth=1;size=20;indent=5;fontFamily=Verdana;" vertex="1" parent="1">
          <mxGeometry x="1804" y="1478" width="20" height="290" as="geometry" />
        </mxCell>
        <mxCell id="WWlV5e2IUx9NMdd2vQTv-194" value="" style="endArrow=none;dashed=1;html=1;rounded=0;fontFamily=Verdana;entryX=0.5;entryY=1;entryDx=0;entryDy=0;" edge="1" parent="1" target="WWlV5e2IUx9NMdd2vQTv-193">
          <mxGeometry width="50" height="50" relative="1" as="geometry">
            <mxPoint x="1814" y="1838" as="sourcePoint" />
            <mxPoint x="1814.5" y="1408" as="targetPoint" />
          </mxGeometry>
        </mxCell>
        <mxCell id="WWlV5e2IUx9NMdd2vQTv-195" value="Login Page/PopUp" style="rounded=1;whiteSpace=wrap;html=1;flipH=0;flipV=0;" vertex="1" parent="1">
          <mxGeometry x="1973" y="888" width="120" height="60" as="geometry" />
        </mxCell>
        <mxCell id="WWlV5e2IUx9NMdd2vQTv-196" value="" style="endArrow=classic;html=1;rounded=0;dashed=1;fontFamily=Verdana;exitX=0.729;exitY=0.032;exitDx=0;exitDy=0;exitPerimeter=0;" edge="1" parent="1">
          <mxGeometry width="50" height="50" relative="1" as="geometry">
            <mxPoint x="2249.779999999999" y="1488.08" as="sourcePoint" />
            <mxPoint x="1829" y="1488" as="targetPoint" />
          </mxGeometry>
        </mxCell>
        <mxCell id="WWlV5e2IUx9NMdd2vQTv-197" value="false" style="edgeLabel;html=1;align=center;verticalAlign=middle;resizable=0;points=[];fontFamily=Verdana;" vertex="1" connectable="0" parent="WWlV5e2IUx9NMdd2vQTv-196">
          <mxGeometry x="-0.2933" y="1" relative="1" as="geometry">
            <mxPoint x="-72" y="-3" as="offset" />
          </mxGeometry>
        </mxCell>
        <mxCell id="WWlV5e2IUx9NMdd2vQTv-198" value="" style="verticalLabelPosition=bottom;verticalAlign=top;html=1;shape=mxgraph.basic.rect;fillColor2=none;strokeWidth=1;size=20;indent=5;fontFamily=Verdana;" vertex="1" parent="1">
          <mxGeometry x="2023" y="1502" width="20" height="60" as="geometry" />
        </mxCell>
        <mxCell id="WWlV5e2IUx9NMdd2vQTv-199" value="" style="endArrow=none;dashed=1;html=1;rounded=0;fontFamily=Verdana;entryX=0.5;entryY=1;entryDx=0;entryDy=0;startArrow=none;" edge="1" parent="1" target="WWlV5e2IUx9NMdd2vQTv-198">
          <mxGeometry width="50" height="50" relative="1" as="geometry">
            <mxPoint x="2040" y="1838" as="sourcePoint" />
            <mxPoint x="2032.4099999999999" y="968" as="targetPoint" />
          </mxGeometry>
        </mxCell>
        <mxCell id="WWlV5e2IUx9NMdd2vQTv-200" value="" style="endArrow=classic;html=1;rounded=0;fontFamily=Verdana;entryX=-0.071;entryY=0.272;entryDx=0;entryDy=0;entryPerimeter=0;" edge="1" parent="1" target="WWlV5e2IUx9NMdd2vQTv-198">
          <mxGeometry width="50" height="50" relative="1" as="geometry">
            <mxPoint x="1825.25" y="1518.4099999999999" as="sourcePoint" />
            <mxPoint x="2020" y="1518" as="targetPoint" />
          </mxGeometry>
        </mxCell>
        <mxCell id="WWlV5e2IUx9NMdd2vQTv-201" value="Redirect Login Page/PopUp" style="edgeLabel;html=1;align=center;verticalAlign=middle;resizable=0;points=[];fontFamily=Verdana;" vertex="1" connectable="0" parent="WWlV5e2IUx9NMdd2vQTv-200">
          <mxGeometry x="-0.2933" y="1" relative="1" as="geometry">
            <mxPoint x="25" as="offset" />
          </mxGeometry>
        </mxCell>
        <mxCell id="WWlV5e2IUx9NMdd2vQTv-202" value="" style="endArrow=classic;html=1;rounded=0;fontFamily=Verdana;entryX=0.739;entryY=0.528;entryDx=0;entryDy=0;entryPerimeter=0;" edge="1" parent="1" target="WWlV5e2IUx9NMdd2vQTv-136">
          <mxGeometry width="50" height="50" relative="1" as="geometry">
            <mxPoint x="2050" y="1528" as="sourcePoint" />
            <mxPoint x="2180" y="1528" as="targetPoint" />
          </mxGeometry>
        </mxCell>
        <mxCell id="WWlV5e2IUx9NMdd2vQTv-203" value="Login Informations" style="edgeLabel;html=1;align=center;verticalAlign=middle;resizable=0;points=[];fontFamily=Verdana;" vertex="1" connectable="0" parent="WWlV5e2IUx9NMdd2vQTv-202">
          <mxGeometry x="-0.2933" y="1" relative="1" as="geometry">
            <mxPoint x="19" y="-2" as="offset" />
          </mxGeometry>
        </mxCell>
        <mxCell id="WWlV5e2IUx9NMdd2vQTv-204" value="" style="verticalLabelPosition=bottom;verticalAlign=top;html=1;shape=mxgraph.basic.rect;fillColor2=none;strokeWidth=1;size=20;indent=5;fontFamily=Verdana;" vertex="1" parent="1">
          <mxGeometry x="2396.5" y="1518" width="20" height="140" as="geometry" />
        </mxCell>
        <mxCell id="WWlV5e2IUx9NMdd2vQTv-205" value="" style="endArrow=none;dashed=1;html=1;rounded=0;fontFamily=Verdana;entryX=0.5;entryY=1;entryDx=0;entryDy=0;" edge="1" parent="1" target="WWlV5e2IUx9NMdd2vQTv-204">
          <mxGeometry width="50" height="50" relative="1" as="geometry">
            <mxPoint x="2407" y="1838" as="sourcePoint" />
            <mxPoint x="2406.5" y="1308" as="targetPoint" />
          </mxGeometry>
        </mxCell>
        <mxCell id="WWlV5e2IUx9NMdd2vQTv-206" value="" style="endArrow=classic;html=1;rounded=0;fontFamily=Verdana;" edge="1" parent="1">
          <mxGeometry width="50" height="50" relative="1" as="geometry">
            <mxPoint x="2277" y="1537" as="sourcePoint" />
            <mxPoint x="2393" y="1537.4099999999999" as="targetPoint" />
          </mxGeometry>
        </mxCell>
        <mxCell id="WWlV5e2IUx9NMdd2vQTv-207" value="Check User" style="edgeLabel;html=1;align=center;verticalAlign=middle;resizable=0;points=[];fontFamily=Verdana;" vertex="1" connectable="0" parent="WWlV5e2IUx9NMdd2vQTv-206">
          <mxGeometry x="-0.2933" y="1" relative="1" as="geometry">
            <mxPoint x="19" y="-1" as="offset" />
          </mxGeometry>
        </mxCell>
        <mxCell id="WWlV5e2IUx9NMdd2vQTv-208" value="" style="endArrow=classic;html=1;rounded=0;dashed=1;fontFamily=Verdana;" edge="1" parent="1">
          <mxGeometry width="50" height="50" relative="1" as="geometry">
            <mxPoint x="2396.5" y="1562" as="sourcePoint" />
            <mxPoint x="2273.5" y="1562" as="targetPoint" />
          </mxGeometry>
        </mxCell>
        <mxCell id="WWlV5e2IUx9NMdd2vQTv-209" value="Success" style="edgeLabel;html=1;align=center;verticalAlign=middle;resizable=0;points=[];fontFamily=Verdana;" vertex="1" connectable="0" parent="WWlV5e2IUx9NMdd2vQTv-208">
          <mxGeometry x="-0.2933" y="1" relative="1" as="geometry">
            <mxPoint x="-20" y="-3" as="offset" />
          </mxGeometry>
        </mxCell>
        <mxCell id="WWlV5e2IUx9NMdd2vQTv-210" value="" style="endArrow=classic;html=1;rounded=0;fontFamily=Verdana;entryX=0.347;entryY=0.609;entryDx=0;entryDy=0;entryPerimeter=0;" edge="1" parent="1" target="WWlV5e2IUx9NMdd2vQTv-136">
          <mxGeometry width="50" height="50" relative="1" as="geometry">
            <mxPoint x="2240" y="1578" as="sourcePoint" />
            <mxPoint x="1964.75" y="1578" as="targetPoint" />
          </mxGeometry>
        </mxCell>
        <mxCell id="WWlV5e2IUx9NMdd2vQTv-211" value="authenticate" style="edgeLabel;html=1;align=center;verticalAlign=middle;resizable=0;points=[];fontFamily=Verdana;" vertex="1" connectable="0" parent="WWlV5e2IUx9NMdd2vQTv-210">
          <mxGeometry x="-0.2933" y="1" relative="1" as="geometry">
            <mxPoint x="-65" y="-3" as="offset" />
          </mxGeometry>
        </mxCell>
        <mxCell id="WWlV5e2IUx9NMdd2vQTv-212" value="" style="endArrow=classic;html=1;rounded=0;dashed=1;fontFamily=Verdana;" edge="1" parent="1">
          <mxGeometry width="50" height="50" relative="1" as="geometry">
            <mxPoint x="1787.5" y="1677" as="sourcePoint" />
            <mxPoint x="1510" y="1677" as="targetPoint" />
          </mxGeometry>
        </mxCell>
        <mxCell id="WWlV5e2IUx9NMdd2vQTv-213" value="Success" style="edgeLabel;html=1;align=center;verticalAlign=middle;resizable=0;points=[];fontFamily=Verdana;" vertex="1" connectable="0" parent="WWlV5e2IUx9NMdd2vQTv-212">
          <mxGeometry x="-0.2933" y="1" relative="1" as="geometry">
            <mxPoint x="-52" y="-3" as="offset" />
          </mxGeometry>
        </mxCell>
        <mxCell id="WWlV5e2IUx9NMdd2vQTv-214" value="" style="endArrow=classic;html=1;rounded=0;fontFamily=Verdana;" edge="1" parent="1">
          <mxGeometry width="50" height="50" relative="1" as="geometry">
            <mxPoint x="1798" y="1691" as="sourcePoint" />
            <mxPoint x="1798" y="1751" as="targetPoint" />
            <Array as="points">
              <mxPoint x="1738" y="1691" />
              <mxPoint x="1738" y="1751" />
            </Array>
          </mxGeometry>
        </mxCell>
        <mxCell id="WWlV5e2IUx9NMdd2vQTv-215" value="Convert Button&lt;br&gt;from Register &lt;br&gt;to Cancel" style="edgeLabel;html=1;align=center;verticalAlign=middle;resizable=0;points=[];fontFamily=Verdana;" vertex="1" connectable="0" parent="WWlV5e2IUx9NMdd2vQTv-214">
          <mxGeometry x="-0.2933" y="1" relative="1" as="geometry">
            <mxPoint y="29" as="offset" />
          </mxGeometry>
        </mxCell>
        <mxCell id="WWlV5e2IUx9NMdd2vQTv-216" value="" style="endArrow=classic;html=1;rounded=0;dashed=1;fontFamily=Verdana;exitX=-0.017;exitY=0.865;exitDx=0;exitDy=0;exitPerimeter=0;" edge="1" parent="1">
          <mxGeometry width="50" height="50" relative="1" as="geometry">
            <mxPoint x="2249.66" y="1661.3999999999996" as="sourcePoint" />
            <mxPoint x="1826.5" y="1658" as="targetPoint" />
          </mxGeometry>
        </mxCell>
        <mxCell id="WWlV5e2IUx9NMdd2vQTv-217" value="Success" style="edgeLabel;html=1;align=center;verticalAlign=middle;resizable=0;points=[];fontFamily=Verdana;" vertex="1" connectable="0" parent="WWlV5e2IUx9NMdd2vQTv-216">
          <mxGeometry x="-0.2933" y="1" relative="1" as="geometry">
            <mxPoint x="-51" y="-3" as="offset" />
          </mxGeometry>
        </mxCell>
        <mxCell id="WWlV5e2IUx9NMdd2vQTv-218" value="" style="endArrow=classic;html=1;rounded=0;fontFamily=Verdana;" edge="1" parent="1">
          <mxGeometry width="50" height="50" relative="1" as="geometry">
            <mxPoint x="2280" y="1620" as="sourcePoint" />
            <mxPoint x="2395.5" y="1620" as="targetPoint" />
          </mxGeometry>
        </mxCell>
        <mxCell id="WWlV5e2IUx9NMdd2vQTv-219" value="Change State" style="edgeLabel;html=1;align=center;verticalAlign=middle;resizable=0;points=[];fontFamily=Verdana;" vertex="1" connectable="0" parent="WWlV5e2IUx9NMdd2vQTv-218">
          <mxGeometry x="-0.2933" y="1" relative="1" as="geometry">
            <mxPoint x="19" y="-1" as="offset" />
          </mxGeometry>
        </mxCell>
        <mxCell id="WWlV5e2IUx9NMdd2vQTv-220" value="" style="endArrow=classic;html=1;rounded=0;dashed=1;fontFamily=Verdana;" edge="1" parent="1">
          <mxGeometry width="50" height="50" relative="1" as="geometry">
            <mxPoint x="2394.5" y="1643" as="sourcePoint" />
            <mxPoint x="2271.5" y="1643" as="targetPoint" />
          </mxGeometry>
        </mxCell>
        <mxCell id="WWlV5e2IUx9NMdd2vQTv-221" value="Success" style="edgeLabel;html=1;align=center;verticalAlign=middle;resizable=0;points=[];fontFamily=Verdana;" vertex="1" connectable="0" parent="WWlV5e2IUx9NMdd2vQTv-220">
          <mxGeometry x="-0.2933" y="1" relative="1" as="geometry">
            <mxPoint x="-20" y="-3" as="offset" />
          </mxGeometry>
        </mxCell>
        <mxCell id="WWlV5e2IUx9NMdd2vQTv-222" value="" style="endArrow=classic;html=1;rounded=0;fontFamily=Verdana;" edge="1" parent="1">
          <mxGeometry width="50" height="50" relative="1" as="geometry">
            <mxPoint x="1830" y="1608" as="sourcePoint" />
            <mxPoint x="2240" y="1608" as="targetPoint" />
          </mxGeometry>
        </mxCell>
        <mxCell id="WWlV5e2IUx9NMdd2vQTv-223" value="User Informations" style="edgeLabel;html=1;align=center;verticalAlign=middle;resizable=0;points=[];fontFamily=Verdana;" vertex="1" connectable="0" parent="WWlV5e2IUx9NMdd2vQTv-222">
          <mxGeometry x="-0.2933" y="1" relative="1" as="geometry">
            <mxPoint x="62" y="-1" as="offset" />
          </mxGeometry>
        </mxCell>
        <mxCell id="WWlV5e2IUx9NMdd2vQTv-224" value="" style="verticalLabelPosition=bottom;verticalAlign=top;html=1;shape=mxgraph.basic.rect;fillColor2=none;strokeWidth=1;size=20;indent=5;fontFamily=Verdana;" vertex="1" parent="1">
          <mxGeometry x="1487" y="1633" width="20" height="80" as="geometry" />
        </mxCell>
        <mxCell id="WWlV5e2IUx9NMdd2vQTv-225" value="" style="endArrow=none;dashed=1;html=1;rounded=0;fontFamily=Verdana;" edge="1" parent="1" target="WWlV5e2IUx9NMdd2vQTv-224">
          <mxGeometry width="50" height="50" relative="1" as="geometry">
            <mxPoint x="1500" y="1838" as="sourcePoint" />
            <mxPoint x="1497.7894736842104" y="1348" as="targetPoint" />
          </mxGeometry>
        </mxCell>
        <mxCell id="WWlV5e2IUx9NMdd2vQTv-226" value="" style="rounded=0;whiteSpace=wrap;html=1;fontFamily=Verdana;" vertex="1" parent="1">
          <mxGeometry x="930" y="380" width="40" height="310" as="geometry" />
        </mxCell>
        <mxCell id="WWlV5e2IUx9NMdd2vQTv-227" value="" style="endArrow=none;dashed=1;html=1;rounded=0;fontFamily=Verdana;entryX=0.5;entryY=1;entryDx=0;entryDy=0;" edge="1" parent="1">
          <mxGeometry width="50" height="50" relative="1" as="geometry">
            <mxPoint x="1806" y="740" as="sourcePoint" />
            <mxPoint x="1805.58" y="140" as="targetPoint" />
          </mxGeometry>
        </mxCell>
        <mxCell id="WWlV5e2IUx9NMdd2vQTv-228" value="" style="endArrow=none;dashed=1;html=1;rounded=0;fontFamily=Verdana;entryX=0.5;entryY=1;entryDx=0;entryDy=0;startArrow=none;" edge="1" parent="1" source="WWlV5e2IUx9NMdd2vQTv-253">
          <mxGeometry width="50" height="50" relative="1" as="geometry">
            <mxPoint x="1394.58" y="850" as="sourcePoint" />
            <mxPoint x="1394.58" y="140" as="targetPoint" />
          </mxGeometry>
        </mxCell>
        <mxCell id="WWlV5e2IUx9NMdd2vQTv-229" value="" style="endArrow=none;dashed=1;html=1;rounded=0;fontFamily=Verdana;entryX=0.5;entryY=1;entryDx=0;entryDy=0;" edge="1" parent="1" target="WWlV5e2IUx9NMdd2vQTv-230">
          <mxGeometry width="50" height="50" relative="1" as="geometry">
            <mxPoint x="1160" y="750" as="sourcePoint" />
            <mxPoint x="1320" y="60" as="targetPoint" />
          </mxGeometry>
        </mxCell>
        <mxCell id="WWlV5e2IUx9NMdd2vQTv-230" value="Sign-up Page" style="rounded=1;whiteSpace=wrap;html=1;flipH=0;flipV=0;" vertex="1" parent="1">
          <mxGeometry x="1100" y="80" width="120" height="60" as="geometry" />
        </mxCell>
        <mxCell id="WWlV5e2IUx9NMdd2vQTv-231" value="Server" style="rounded=1;whiteSpace=wrap;html=1;flipH=0;flipV=0;" vertex="1" parent="1">
          <mxGeometry x="1335" y="80" width="120" height="60" as="geometry" />
        </mxCell>
        <mxCell id="WWlV5e2IUx9NMdd2vQTv-232" value="DB" style="shape=cylinder3;whiteSpace=wrap;html=1;boundedLbl=1;backgroundOutline=1;size=15;flipH=0;flipV=0;" vertex="1" parent="1">
          <mxGeometry x="1782" y="70" width="52.5" height="70" as="geometry" />
        </mxCell>
        <mxCell id="WWlV5e2IUx9NMdd2vQTv-233" value="Actor" style="shape=umlActor;verticalLabelPosition=bottom;verticalAlign=top;html=1;outlineConnect=0;" vertex="1" parent="1">
          <mxGeometry x="973" y="80" width="30" height="60" as="geometry" />
        </mxCell>
        <mxCell id="WWlV5e2IUx9NMdd2vQTv-234" value="" style="endArrow=classic;html=1;rounded=0;fontFamily=Verdana;" edge="1" parent="1">
          <mxGeometry width="50" height="50" relative="1" as="geometry">
            <mxPoint x="990" y="220" as="sourcePoint" />
            <mxPoint x="1140" y="220" as="targetPoint" />
          </mxGeometry>
        </mxCell>
        <mxCell id="WWlV5e2IUx9NMdd2vQTv-235" value="Fill informations" style="edgeLabel;html=1;align=center;verticalAlign=middle;resizable=0;points=[];fontFamily=Verdana;" vertex="1" connectable="0" parent="WWlV5e2IUx9NMdd2vQTv-234">
          <mxGeometry x="-0.2933" y="1" relative="1" as="geometry">
            <mxPoint x="18" y="-1" as="offset" />
          </mxGeometry>
        </mxCell>
        <mxCell id="WWlV5e2IUx9NMdd2vQTv-236" value="" style="endArrow=classic;html=1;rounded=0;fontFamily=Verdana;" edge="1" parent="1">
          <mxGeometry width="50" height="50" relative="1" as="geometry">
            <mxPoint x="1180" y="313" as="sourcePoint" />
            <mxPoint x="1380" y="313" as="targetPoint" />
          </mxGeometry>
        </mxCell>
        <mxCell id="WWlV5e2IUx9NMdd2vQTv-237" value="Sign-up details" style="edgeLabel;html=1;align=center;verticalAlign=middle;resizable=0;points=[];fontFamily=Verdana;" vertex="1" connectable="0" parent="WWlV5e2IUx9NMdd2vQTv-236">
          <mxGeometry x="-0.2933" y="1" relative="1" as="geometry">
            <mxPoint x="25" y="-1" as="offset" />
          </mxGeometry>
        </mxCell>
        <mxCell id="WWlV5e2IUx9NMdd2vQTv-238" value="" style="endArrow=classic;html=1;rounded=0;fontFamily=Verdana;" edge="1" parent="1">
          <mxGeometry width="50" height="50" relative="1" as="geometry">
            <mxPoint x="1410" y="340" as="sourcePoint" />
            <mxPoint x="1790" y="340" as="targetPoint" />
          </mxGeometry>
        </mxCell>
        <mxCell id="WWlV5e2IUx9NMdd2vQTv-239" value="Check user" style="edgeLabel;html=1;align=center;verticalAlign=middle;resizable=0;points=[];fontFamily=Verdana;" vertex="1" connectable="0" parent="WWlV5e2IUx9NMdd2vQTv-238">
          <mxGeometry x="-0.2933" y="1" relative="1" as="geometry">
            <mxPoint x="73" y="-2" as="offset" />
          </mxGeometry>
        </mxCell>
        <mxCell id="WWlV5e2IUx9NMdd2vQTv-240" value="" style="endArrow=classic;html=1;rounded=0;dashed=1;fontFamily=Verdana;entryX=0.5;entryY=0.065;entryDx=0;entryDy=0;entryPerimeter=0;" edge="1" parent="1" target="WWlV5e2IUx9NMdd2vQTv-2">
          <mxGeometry width="50" height="50" relative="1" as="geometry">
            <mxPoint x="1798" y="400" as="sourcePoint" />
            <mxPoint x="1448" y="400" as="targetPoint" />
          </mxGeometry>
        </mxCell>
        <mxCell id="WWlV5e2IUx9NMdd2vQTv-241" value="does not exist" style="edgeLabel;html=1;align=center;verticalAlign=middle;resizable=0;points=[];fontFamily=Verdana;" vertex="1" connectable="0" parent="WWlV5e2IUx9NMdd2vQTv-240">
          <mxGeometry x="-0.2933" y="1" relative="1" as="geometry">
            <mxPoint x="-33" y="-3" as="offset" />
          </mxGeometry>
        </mxCell>
        <mxCell id="WWlV5e2IUx9NMdd2vQTv-242" value="" style="endArrow=classic;html=1;rounded=0;dashed=1;fontFamily=Verdana;entryX=1.125;entryY=0.582;entryDx=0;entryDy=0;entryPerimeter=0;" edge="1" parent="1">
          <mxGeometry width="50" height="50" relative="1" as="geometry">
            <mxPoint x="1386" y="546" as="sourcePoint" />
            <mxPoint x="1173.499999999999" y="545.8199999999997" as="targetPoint" />
          </mxGeometry>
        </mxCell>
        <mxCell id="WWlV5e2IUx9NMdd2vQTv-243" value="Succesfull message" style="edgeLabel;html=1;align=center;verticalAlign=middle;resizable=0;points=[];fontFamily=Verdana;" vertex="1" connectable="0" parent="WWlV5e2IUx9NMdd2vQTv-242">
          <mxGeometry x="-0.2933" y="1" relative="1" as="geometry">
            <mxPoint x="-34" y="-1" as="offset" />
          </mxGeometry>
        </mxCell>
        <mxCell id="WWlV5e2IUx9NMdd2vQTv-244" value="" style="endArrow=classic;html=1;rounded=0;dashed=1;fontFamily=Verdana;" edge="1" parent="1">
          <mxGeometry width="50" height="50" relative="1" as="geometry">
            <mxPoint x="1160" y="566" as="sourcePoint" />
            <mxPoint x="990" y="565" as="targetPoint" />
          </mxGeometry>
        </mxCell>
        <mxCell id="WWlV5e2IUx9NMdd2vQTv-245" value="Succesfull message" style="edgeLabel;html=1;align=center;verticalAlign=middle;resizable=0;points=[];fontFamily=Verdana;" vertex="1" connectable="0" parent="WWlV5e2IUx9NMdd2vQTv-244">
          <mxGeometry x="-0.2933" y="1" relative="1" as="geometry">
            <mxPoint x="-27" y="-2" as="offset" />
          </mxGeometry>
        </mxCell>
        <mxCell id="WWlV5e2IUx9NMdd2vQTv-246" value="" style="verticalLabelPosition=bottom;verticalAlign=top;html=1;shape=mxgraph.basic.rect;fillColor2=none;strokeWidth=1;size=20;indent=5;fontFamily=Verdana;" vertex="1" parent="1">
          <mxGeometry x="1150" y="193" width="20" height="510" as="geometry" />
        </mxCell>
        <mxCell id="WWlV5e2IUx9NMdd2vQTv-247" value="" style="verticalLabelPosition=bottom;verticalAlign=top;html=1;shape=mxgraph.basic.rect;fillColor2=none;strokeWidth=1;size=20;indent=5;fontFamily=Verdana;" vertex="1" parent="1">
          <mxGeometry x="1796" y="323" width="20" height="217" as="geometry" />
        </mxCell>
        <mxCell id="WWlV5e2IUx9NMdd2vQTv-248" value="" style="endArrow=none;dashed=1;html=1;dashPattern=1 3;strokeWidth=2;rounded=0;fontFamily=Verdana;" edge="1" parent="1">
          <mxGeometry width="50" height="50" relative="1" as="geometry">
            <mxPoint x="910.9999999999991" y="593.5799999999999" as="sourcePoint" />
            <mxPoint x="1871" y="594" as="targetPoint" />
          </mxGeometry>
        </mxCell>
        <mxCell id="WWlV5e2IUx9NMdd2vQTv-249" value="" style="verticalLabelPosition=bottom;verticalAlign=top;html=1;shape=mxgraph.basic.rect;fillColor2=none;strokeWidth=1;size=20;indent=5;fontFamily=Verdana;" vertex="1" parent="1">
          <mxGeometry x="1385" y="290" width="20" height="270" as="geometry" />
        </mxCell>
        <mxCell id="WWlV5e2IUx9NMdd2vQTv-250" value="" style="endArrow=classic;html=1;rounded=0;fontFamily=Verdana;entryX=0.727;entryY=0.177;entryDx=0;entryDy=0;entryPerimeter=0;" edge="1" parent="1">
          <mxGeometry width="50" height="50" relative="1" as="geometry">
            <mxPoint x="1408" y="431" as="sourcePoint" />
            <mxPoint x="1609.7600000000002" y="430.8699999999999" as="targetPoint" />
          </mxGeometry>
        </mxCell>
        <mxCell id="WWlV5e2IUx9NMdd2vQTv-251" value="Community Application Form" style="edgeLabel;html=1;align=center;verticalAlign=middle;resizable=0;points=[];fontFamily=Verdana;" vertex="1" connectable="0" parent="WWlV5e2IUx9NMdd2vQTv-250">
          <mxGeometry x="-0.2933" y="1" relative="1" as="geometry">
            <mxPoint x="22" y="-1" as="offset" />
          </mxGeometry>
        </mxCell>
        <mxCell id="WWlV5e2IUx9NMdd2vQTv-252" value="" style="verticalLabelPosition=bottom;verticalAlign=top;html=1;shape=mxgraph.basic.rect;fillColor2=none;strokeWidth=1;size=20;indent=5;fontFamily=Verdana;" vertex="1" parent="1">
          <mxGeometry x="1796" y="612" width="20" height="36" as="geometry" />
        </mxCell>
        <mxCell id="WWlV5e2IUx9NMdd2vQTv-253" value="" style="verticalLabelPosition=bottom;verticalAlign=top;html=1;shape=mxgraph.basic.rect;fillColor2=none;strokeWidth=1;size=20;indent=5;fontFamily=Verdana;" vertex="1" parent="1">
          <mxGeometry x="1385" y="603" width="20" height="46" as="geometry" />
        </mxCell>
        <mxCell id="WWlV5e2IUx9NMdd2vQTv-254" value="" style="endArrow=none;dashed=1;html=1;rounded=0;fontFamily=Verdana;entryX=0.5;entryY=1;entryDx=0;entryDy=0;" edge="1" parent="1" target="WWlV5e2IUx9NMdd2vQTv-253">
          <mxGeometry width="50" height="50" relative="1" as="geometry">
            <mxPoint x="1395" y="750" as="sourcePoint" />
            <mxPoint x="1394.58" y="140" as="targetPoint" />
          </mxGeometry>
        </mxCell>
        <mxCell id="WWlV5e2IUx9NMdd2vQTv-255" value="" style="endArrow=classic;html=1;rounded=0;dashed=1;fontFamily=Verdana;entryX=1.167;entryY=0.759;entryDx=0;entryDy=0;entryPerimeter=0;" edge="1" parent="1">
          <mxGeometry width="50" height="50" relative="1" as="geometry">
            <mxPoint x="1385" y="629" as="sourcePoint" />
            <mxPoint x="1173.3400000000001" y="629.0900000000001" as="targetPoint" />
          </mxGeometry>
        </mxCell>
        <mxCell id="WWlV5e2IUx9NMdd2vQTv-256" value="error" style="edgeLabel;html=1;align=center;verticalAlign=middle;resizable=0;points=[];fontFamily=Verdana;" vertex="1" connectable="0" parent="WWlV5e2IUx9NMdd2vQTv-255">
          <mxGeometry x="-0.2933" y="1" relative="1" as="geometry">
            <mxPoint x="-33" y="-3" as="offset" />
          </mxGeometry>
        </mxCell>
        <mxCell id="WWlV5e2IUx9NMdd2vQTv-257" value="" style="endArrow=classic;html=1;rounded=0;dashed=1;fontFamily=Verdana;" edge="1" parent="1">
          <mxGeometry width="50" height="50" relative="1" as="geometry">
            <mxPoint x="1150" y="661.0799999999999" as="sourcePoint" />
            <mxPoint x="990" y="661" as="targetPoint" />
          </mxGeometry>
        </mxCell>
        <mxCell id="WWlV5e2IUx9NMdd2vQTv-258" value="error" style="edgeLabel;html=1;align=center;verticalAlign=middle;resizable=0;points=[];fontFamily=Verdana;" vertex="1" connectable="0" parent="WWlV5e2IUx9NMdd2vQTv-257">
          <mxGeometry x="-0.2933" y="1" relative="1" as="geometry">
            <mxPoint x="-33" y="-3" as="offset" />
          </mxGeometry>
        </mxCell>
        <mxCell id="WWlV5e2IUx9NMdd2vQTv-259" value="" style="endArrow=none;dashed=1;html=1;rounded=0;fontFamily=Verdana;entryX=0.5;entryY=1;entryDx=0;entryDy=0;" edge="1" parent="1">
          <mxGeometry width="50" height="50" relative="1" as="geometry">
            <mxPoint x="988.0000000000009" y="750" as="sourcePoint" />
            <mxPoint x="987.5799999999999" y="160" as="targetPoint" />
          </mxGeometry>
        </mxCell>
        <mxCell id="WWlV5e2IUx9NMdd2vQTv-260" value="User does not exist" style="text;strokeColor=none;fillColor=none;align=center;verticalAlign=middle;spacingLeft=4;spacingRight=4;overflow=hidden;points=[[0,0.5],[1,0.5]];portConstraint=eastwest;rotatable=0;fontFamily=Verdana;html=0;horizontal=0;" vertex="1" parent="1">
          <mxGeometry x="935" y="390" width="30" height="130" as="geometry" />
        </mxCell>
        <mxCell id="WWlV5e2IUx9NMdd2vQTv-261" value="else" style="text;strokeColor=none;fillColor=none;align=center;verticalAlign=middle;spacingLeft=4;spacingRight=4;overflow=hidden;points=[[0,0.5],[1,0.5]];portConstraint=eastwest;rotatable=0;fontFamily=Verdana;html=0;horizontal=0;" vertex="1" parent="1">
          <mxGeometry x="935" y="598" width="30" height="84" as="geometry" />
        </mxCell>
        <mxCell id="WWlV5e2IUx9NMdd2vQTv-262" value="Sign-Up as a Community Sequence Diagram:" style="text;html=1;strokeColor=none;fillColor=none;align=left;verticalAlign=middle;whiteSpace=wrap;rounded=0;fontStyle=1;fontSize=16;" vertex="1" parent="1">
          <mxGeometry x="930" y="20" width="450" height="30" as="geometry" />
        </mxCell>
        <mxCell id="WWlV5e2IUx9NMdd2vQTv-263" value="Confirmation Page" style="rounded=1;whiteSpace=wrap;html=1;flipH=0;flipV=0;" vertex="1" parent="1">
          <mxGeometry x="1562" y="80" width="120" height="60" as="geometry" />
        </mxCell>
        <mxCell id="WWlV5e2IUx9NMdd2vQTv-264" value="" style="verticalLabelPosition=bottom;verticalAlign=top;html=1;shape=mxgraph.basic.rect;fillColor2=none;strokeWidth=1;size=20;indent=5;fontFamily=Verdana;" vertex="1" parent="1">
          <mxGeometry x="1612" y="422" width="20" height="58" as="geometry" />
        </mxCell>
        <mxCell id="WWlV5e2IUx9NMdd2vQTv-265" value="" style="endArrow=none;dashed=1;html=1;rounded=0;fontFamily=Verdana;entryX=0.5;entryY=1;entryDx=0;entryDy=0;" edge="1" parent="1" target="WWlV5e2IUx9NMdd2vQTv-264">
          <mxGeometry width="50" height="50" relative="1" as="geometry">
            <mxPoint x="1621.92" y="740" as="sourcePoint" />
            <mxPoint x="1621.5" y="140" as="targetPoint" />
          </mxGeometry>
        </mxCell>
        <mxCell id="WWlV5e2IUx9NMdd2vQTv-266" value="" style="endArrow=classic;html=1;rounded=0;fontFamily=Verdana;" edge="1" parent="1">
          <mxGeometry width="50" height="50" relative="1" as="geometry">
            <mxPoint x="1410" y="499" as="sourcePoint" />
            <mxPoint x="1790" y="499" as="targetPoint" />
          </mxGeometry>
        </mxCell>
        <mxCell id="WWlV5e2IUx9NMdd2vQTv-267" value="Insert DB" style="edgeLabel;html=1;align=center;verticalAlign=middle;resizable=0;points=[];fontFamily=Verdana;" vertex="1" connectable="0" parent="WWlV5e2IUx9NMdd2vQTv-266">
          <mxGeometry x="-0.2933" y="1" relative="1" as="geometry">
            <mxPoint x="75" y="-1" as="offset" />
          </mxGeometry>
        </mxCell>
        <mxCell id="WWlV5e2IUx9NMdd2vQTv-268" value="" style="endArrow=classic;html=1;rounded=0;dashed=1;fontFamily=Verdana;exitX=0.026;exitY=0.85;exitDx=0;exitDy=0;exitPerimeter=0;" edge="1" parent="1">
          <mxGeometry width="50" height="50" relative="1" as="geometry">
            <mxPoint x="1612" y="462" as="sourcePoint" />
            <mxPoint x="1409.4799999999996" y="462.47000000000025" as="targetPoint" />
          </mxGeometry>
        </mxCell>
        <mxCell id="WWlV5e2IUx9NMdd2vQTv-269" value="Community Confirm" style="edgeLabel;html=1;align=center;verticalAlign=middle;resizable=0;points=[];fontFamily=Verdana;" vertex="1" connectable="0" parent="WWlV5e2IUx9NMdd2vQTv-268">
          <mxGeometry x="-0.2933" y="1" relative="1" as="geometry">
            <mxPoint x="-28" y="-3" as="offset" />
          </mxGeometry>
        </mxCell>
        <mxCell id="WWlV5e2IUx9NMdd2vQTv-270" value="" style="endArrow=classic;html=1;rounded=0;dashed=1;fontFamily=Verdana;" edge="1" parent="1">
          <mxGeometry width="50" height="50" relative="1" as="geometry">
            <mxPoint x="1789" y="521" as="sourcePoint" />
            <mxPoint x="1409" y="521" as="targetPoint" />
          </mxGeometry>
        </mxCell>
        <mxCell id="WWlV5e2IUx9NMdd2vQTv-271" value="Succesfull message" style="edgeLabel;html=1;align=center;verticalAlign=middle;resizable=0;points=[];fontFamily=Verdana;" vertex="1" connectable="0" parent="WWlV5e2IUx9NMdd2vQTv-270">
          <mxGeometry x="-0.2933" y="1" relative="1" as="geometry">
            <mxPoint x="-28" y="-3" as="offset" />
          </mxGeometry>
        </mxCell>
        <mxCell id="WWlV5e2IUx9NMdd2vQTv-272" value="" style="endArrow=classic;html=1;rounded=0;dashed=1;fontFamily=Verdana;" edge="1" parent="1">
          <mxGeometry width="50" height="50" relative="1" as="geometry">
            <mxPoint x="1793" y="617.5799999999999" as="sourcePoint" />
            <mxPoint x="1408" y="617.5799999999999" as="targetPoint" />
          </mxGeometry>
        </mxCell>
        <mxCell id="WWlV5e2IUx9NMdd2vQTv-273" value="exist" style="edgeLabel;html=1;align=center;verticalAlign=middle;resizable=0;points=[];fontFamily=Verdana;" vertex="1" connectable="0" parent="WWlV5e2IUx9NMdd2vQTv-272">
          <mxGeometry x="-0.2933" y="1" relative="1" as="geometry">
            <mxPoint x="-35" y="-2" as="offset" />
          </mxGeometry>
        </mxCell>
        <mxCell id="WWlV5e2IUx9NMdd2vQTv-274" value="" style="endArrow=none;dashed=1;html=1;rounded=0;fontFamily=Verdana;entryX=0.5;entryY=1;entryDx=0;entryDy=0;startArrow=none;" edge="1" parent="1" source="WWlV5e2IUx9NMdd2vQTv-343">
          <mxGeometry width="50" height="50" relative="1" as="geometry">
            <mxPoint x="88" y="2900" as="sourcePoint" />
            <mxPoint x="87" y="2130" as="targetPoint" />
          </mxGeometry>
        </mxCell>
        <mxCell id="WWlV5e2IUx9NMdd2vQTv-275" value="Actor" style="shape=umlActor;verticalLabelPosition=bottom;verticalAlign=top;html=1;outlineConnect=0;" vertex="1" parent="1">
          <mxGeometry x="73" y="2040" width="30" height="60" as="geometry" />
        </mxCell>
        <mxCell id="WWlV5e2IUx9NMdd2vQTv-276" value="Community Page" style="rounded=1;whiteSpace=wrap;html=1;flipH=0;flipV=0;" vertex="1" parent="1">
          <mxGeometry x="193" y="2040" width="120" height="60" as="geometry" />
        </mxCell>
        <mxCell id="WWlV5e2IUx9NMdd2vQTv-277" value="Login Page/PopUp" style="rounded=1;whiteSpace=wrap;html=1;flipH=0;flipV=0;" vertex="1" parent="1">
          <mxGeometry x="368.5" y="2040" width="120" height="60" as="geometry" />
        </mxCell>
        <mxCell id="WWlV5e2IUx9NMdd2vQTv-278" value="Server" style="rounded=1;whiteSpace=wrap;html=1;flipH=0;flipV=0;" vertex="1" parent="1">
          <mxGeometry x="791" y="2040" width="120" height="60" as="geometry" />
        </mxCell>
        <mxCell id="WWlV5e2IUx9NMdd2vQTv-279" value="DB" style="shape=cylinder3;whiteSpace=wrap;html=1;boundedLbl=1;backgroundOutline=1;size=15;flipH=0;flipV=0;" vertex="1" parent="1">
          <mxGeometry x="972.5" y="2030" width="52.5" height="70" as="geometry" />
        </mxCell>
        <mxCell id="WWlV5e2IUx9NMdd2vQTv-280" value="Share an Event Sequence Diagram:" style="text;html=1;strokeColor=none;fillColor=none;align=left;verticalAlign=middle;whiteSpace=wrap;rounded=0;fontStyle=1;fontSize=16;" vertex="1" parent="1">
          <mxGeometry x="44" y="1980" width="317" height="30" as="geometry" />
        </mxCell>
        <mxCell id="WWlV5e2IUx9NMdd2vQTv-281" value="Event Page" style="rounded=1;whiteSpace=wrap;html=1;flipH=0;flipV=0;" vertex="1" parent="1">
          <mxGeometry x="564" y="2040" width="120" height="60" as="geometry" />
        </mxCell>
        <mxCell id="WWlV5e2IUx9NMdd2vQTv-282" value="" style="endArrow=none;dashed=1;html=1;rounded=0;fontFamily=Verdana;entryX=0.5;entryY=1;entryDx=0;entryDy=0;" edge="1" parent="1">
          <mxGeometry width="50" height="50" relative="1" as="geometry">
            <mxPoint x="254" y="2900" as="sourcePoint" />
            <mxPoint x="252" y="2110" as="targetPoint" />
          </mxGeometry>
        </mxCell>
        <mxCell id="WWlV5e2IUx9NMdd2vQTv-283" value="" style="endArrow=none;dashed=1;html=1;rounded=0;fontFamily=Verdana;entryX=0.5;entryY=1;entryDx=0;entryDy=0;" edge="1" parent="1">
          <mxGeometry width="50" height="50" relative="1" as="geometry">
            <mxPoint x="428.0000000000009" y="2900" as="sourcePoint" />
            <mxPoint x="427" y="2110" as="targetPoint" />
          </mxGeometry>
        </mxCell>
        <mxCell id="WWlV5e2IUx9NMdd2vQTv-284" value="" style="endArrow=none;dashed=1;html=1;rounded=0;fontFamily=Verdana;entryX=0.5;entryY=1;entryDx=0;entryDy=0;" edge="1" parent="1">
          <mxGeometry width="50" height="50" relative="1" as="geometry">
            <mxPoint x="622" y="2900" as="sourcePoint" />
            <mxPoint x="620.9999999999991" y="2110" as="targetPoint" />
          </mxGeometry>
        </mxCell>
        <mxCell id="WWlV5e2IUx9NMdd2vQTv-285" value="" style="endArrow=none;dashed=1;html=1;rounded=0;fontFamily=Verdana;entryX=0.5;entryY=1;entryDx=0;entryDy=0;" edge="1" parent="1">
          <mxGeometry width="50" height="50" relative="1" as="geometry">
            <mxPoint x="852" y="2900" as="sourcePoint" />
            <mxPoint x="850" y="2110" as="targetPoint" />
          </mxGeometry>
        </mxCell>
        <mxCell id="WWlV5e2IUx9NMdd2vQTv-286" value="" style="endArrow=none;dashed=1;html=1;rounded=0;fontFamily=Verdana;entryX=0.5;entryY=1;entryDx=0;entryDy=0;" edge="1" parent="1">
          <mxGeometry width="50" height="50" relative="1" as="geometry">
            <mxPoint x="1004" y="2900" as="sourcePoint" />
            <mxPoint x="1003.0000000000009" y="2110" as="targetPoint" />
          </mxGeometry>
        </mxCell>
        <mxCell id="WWlV5e2IUx9NMdd2vQTv-287" value="" style="endArrow=classic;html=1;rounded=0;fontFamily=Verdana;" edge="1" parent="1">
          <mxGeometry width="50" height="50" relative="1" as="geometry">
            <mxPoint x="90.99999999999909" y="2160" as="sourcePoint" />
            <mxPoint x="235" y="2160" as="targetPoint" />
          </mxGeometry>
        </mxCell>
        <mxCell id="WWlV5e2IUx9NMdd2vQTv-288" value="Visit Community&lt;br&gt;Page" style="edgeLabel;html=1;align=center;verticalAlign=middle;resizable=0;points=[];fontFamily=Verdana;" vertex="1" connectable="0" parent="WWlV5e2IUx9NMdd2vQTv-287">
          <mxGeometry x="-0.2933" y="1" relative="1" as="geometry">
            <mxPoint x="20" as="offset" />
          </mxGeometry>
        </mxCell>
        <mxCell id="WWlV5e2IUx9NMdd2vQTv-289" value="" style="endArrow=classic;html=1;rounded=0;fontFamily=Verdana;" edge="1" parent="1">
          <mxGeometry width="50" height="50" relative="1" as="geometry">
            <mxPoint x="90" y="2198" as="sourcePoint" />
            <mxPoint x="234" y="2198" as="targetPoint" />
          </mxGeometry>
        </mxCell>
        <mxCell id="WWlV5e2IUx9NMdd2vQTv-290" value="Click Share an &lt;br&gt;Event Button" style="edgeLabel;html=1;align=center;verticalAlign=middle;resizable=0;points=[];fontFamily=Verdana;" vertex="1" connectable="0" parent="WWlV5e2IUx9NMdd2vQTv-289">
          <mxGeometry x="-0.2933" y="1" relative="1" as="geometry">
            <mxPoint x="20" as="offset" />
          </mxGeometry>
        </mxCell>
        <mxCell id="WWlV5e2IUx9NMdd2vQTv-291" value="" style="endArrow=classic;html=1;rounded=0;fontFamily=Verdana;" edge="1" parent="1">
          <mxGeometry width="50" height="50" relative="1" as="geometry">
            <mxPoint x="260.5000000000009" y="2214" as="sourcePoint" />
            <mxPoint x="840" y="2214" as="targetPoint" />
          </mxGeometry>
        </mxCell>
        <mxCell id="WWlV5e2IUx9NMdd2vQTv-292" value="Check Login" style="edgeLabel;html=1;align=center;verticalAlign=middle;resizable=0;points=[];fontFamily=Verdana;" vertex="1" connectable="0" parent="WWlV5e2IUx9NMdd2vQTv-291">
          <mxGeometry x="-0.2933" y="1" relative="1" as="geometry">
            <mxPoint x="85" as="offset" />
          </mxGeometry>
        </mxCell>
        <mxCell id="WWlV5e2IUx9NMdd2vQTv-293" value="" style="endArrow=classic;html=1;rounded=0;dashed=1;fontFamily=Verdana;exitX=0.729;exitY=0.032;exitDx=0;exitDy=0;exitPerimeter=0;" edge="1" parent="1">
          <mxGeometry width="50" height="50" relative="1" as="geometry">
            <mxPoint x="843.7800000000007" y="2260" as="sourcePoint" />
            <mxPoint x="265" y="2259" as="targetPoint" />
          </mxGeometry>
        </mxCell>
        <mxCell id="WWlV5e2IUx9NMdd2vQTv-294" value="true" style="edgeLabel;html=1;align=center;verticalAlign=middle;resizable=0;points=[];fontFamily=Verdana;" vertex="1" connectable="0" parent="WWlV5e2IUx9NMdd2vQTv-293">
          <mxGeometry x="-0.2933" y="1" relative="1" as="geometry">
            <mxPoint x="-64" y="-3" as="offset" />
          </mxGeometry>
        </mxCell>
        <mxCell id="WWlV5e2IUx9NMdd2vQTv-295" value="" style="endArrow=none;dashed=1;html=1;dashPattern=1 3;strokeWidth=2;rounded=0;fontFamily=Verdana;" edge="1" parent="1">
          <mxGeometry width="50" height="50" relative="1" as="geometry">
            <mxPoint x="10.99999999999909" y="2470" as="sourcePoint" />
            <mxPoint x="1130" y="2469" as="targetPoint" />
          </mxGeometry>
        </mxCell>
        <mxCell id="WWlV5e2IUx9NMdd2vQTv-296" value="" style="endArrow=classic;html=1;rounded=0;fontFamily=Verdana;" edge="1" parent="1">
          <mxGeometry width="50" height="50" relative="1" as="geometry">
            <mxPoint x="260" y="2531.3500000000004" as="sourcePoint" />
            <mxPoint x="420" y="2531.3500000000004" as="targetPoint" />
          </mxGeometry>
        </mxCell>
        <mxCell id="WWlV5e2IUx9NMdd2vQTv-297" value="Redirect&amp;nbsp;" style="edgeLabel;html=1;align=center;verticalAlign=middle;resizable=0;points=[];fontFamily=Verdana;" vertex="1" connectable="0" parent="WWlV5e2IUx9NMdd2vQTv-296">
          <mxGeometry x="-0.2933" y="1" relative="1" as="geometry">
            <mxPoint x="20" as="offset" />
          </mxGeometry>
        </mxCell>
        <mxCell id="WWlV5e2IUx9NMdd2vQTv-298" value="" style="endArrow=classic;html=1;rounded=0;fontFamily=Verdana;" edge="1" parent="1">
          <mxGeometry width="50" height="50" relative="1" as="geometry">
            <mxPoint x="429.5" y="2581.3499999999995" as="sourcePoint" />
            <mxPoint x="840" y="2580.3500000000004" as="targetPoint" />
          </mxGeometry>
        </mxCell>
        <mxCell id="WWlV5e2IUx9NMdd2vQTv-299" value="Login Informations" style="edgeLabel;html=1;align=center;verticalAlign=middle;resizable=0;points=[];fontFamily=Verdana;" vertex="1" connectable="0" parent="WWlV5e2IUx9NMdd2vQTv-298">
          <mxGeometry x="-0.2933" y="1" relative="1" as="geometry">
            <mxPoint x="40" as="offset" />
          </mxGeometry>
        </mxCell>
        <mxCell id="WWlV5e2IUx9NMdd2vQTv-300" value="" style="endArrow=classic;html=1;rounded=0;fontFamily=Verdana;" edge="1" parent="1">
          <mxGeometry width="50" height="50" relative="1" as="geometry">
            <mxPoint x="857" y="2601.3499999999995" as="sourcePoint" />
            <mxPoint x="997" y="2600.3500000000004" as="targetPoint" />
          </mxGeometry>
        </mxCell>
        <mxCell id="WWlV5e2IUx9NMdd2vQTv-301" value="Check&lt;br&gt;Informations" style="edgeLabel;html=1;align=center;verticalAlign=middle;resizable=0;points=[];fontFamily=Verdana;" vertex="1" connectable="0" parent="WWlV5e2IUx9NMdd2vQTv-300">
          <mxGeometry x="-0.2933" y="1" relative="1" as="geometry">
            <mxPoint x="19" as="offset" />
          </mxGeometry>
        </mxCell>
        <mxCell id="WWlV5e2IUx9NMdd2vQTv-302" value="" style="endArrow=classic;html=1;rounded=0;dashed=1;fontFamily=Verdana;exitX=0.729;exitY=0.032;exitDx=0;exitDy=0;exitPerimeter=0;" edge="1" parent="1">
          <mxGeometry width="50" height="50" relative="1" as="geometry">
            <mxPoint x="994.6399999999994" y="2632.3500000000004" as="sourcePoint" />
            <mxPoint x="860" y="2631.3500000000004" as="targetPoint" />
          </mxGeometry>
        </mxCell>
        <mxCell id="WWlV5e2IUx9NMdd2vQTv-303" value="success" style="edgeLabel;html=1;align=center;verticalAlign=middle;resizable=0;points=[];fontFamily=Verdana;" vertex="1" connectable="0" parent="WWlV5e2IUx9NMdd2vQTv-302">
          <mxGeometry x="-0.2933" y="1" relative="1" as="geometry">
            <mxPoint x="-18" y="-2" as="offset" />
          </mxGeometry>
        </mxCell>
        <mxCell id="WWlV5e2IUx9NMdd2vQTv-304" value="" style="endArrow=classic;html=1;rounded=0;fontFamily=Verdana;" edge="1" parent="1">
          <mxGeometry width="50" height="50" relative="1" as="geometry">
            <mxPoint x="845.9999999999991" y="2651.3500000000004" as="sourcePoint" />
            <mxPoint x="267" y="2651.3500000000004" as="targetPoint" />
          </mxGeometry>
        </mxCell>
        <mxCell id="WWlV5e2IUx9NMdd2vQTv-305" value="authenticate" style="edgeLabel;html=1;align=center;verticalAlign=middle;resizable=0;points=[];fontFamily=Verdana;" vertex="1" connectable="0" parent="WWlV5e2IUx9NMdd2vQTv-304">
          <mxGeometry x="-0.2933" y="1" relative="1" as="geometry">
            <mxPoint x="-113" y="-2" as="offset" />
          </mxGeometry>
        </mxCell>
        <mxCell id="WWlV5e2IUx9NMdd2vQTv-306" value="" style="endArrow=classic;html=1;rounded=0;fontFamily=Verdana;" edge="1" parent="1">
          <mxGeometry width="50" height="50" relative="1" as="geometry">
            <mxPoint x="255.9999999999991" y="2300" as="sourcePoint" />
            <mxPoint x="612" y="2300" as="targetPoint" />
          </mxGeometry>
        </mxCell>
        <mxCell id="WWlV5e2IUx9NMdd2vQTv-307" value="Redirect&amp;nbsp;" style="edgeLabel;html=1;align=center;verticalAlign=middle;resizable=0;points=[];fontFamily=Verdana;" vertex="1" connectable="0" parent="WWlV5e2IUx9NMdd2vQTv-306">
          <mxGeometry x="-0.2933" y="1" relative="1" as="geometry">
            <mxPoint x="39" as="offset" />
          </mxGeometry>
        </mxCell>
        <mxCell id="WWlV5e2IUx9NMdd2vQTv-308" value="" style="endArrow=classic;html=1;rounded=0;fontFamily=Verdana;" edge="1" parent="1">
          <mxGeometry width="50" height="50" relative="1" as="geometry">
            <mxPoint x="630.9999999999991" y="2350" as="sourcePoint" />
            <mxPoint x="840" y="2350" as="targetPoint" />
          </mxGeometry>
        </mxCell>
        <mxCell id="WWlV5e2IUx9NMdd2vQTv-309" value="Redirect Event Informations" style="edgeLabel;html=1;align=center;verticalAlign=middle;resizable=0;points=[];fontFamily=Verdana;" vertex="1" connectable="0" parent="WWlV5e2IUx9NMdd2vQTv-308">
          <mxGeometry x="-0.2933" y="1" relative="1" as="geometry">
            <mxPoint x="30" as="offset" />
          </mxGeometry>
        </mxCell>
        <mxCell id="WWlV5e2IUx9NMdd2vQTv-310" value="" style="endArrow=classic;html=1;rounded=0;fontFamily=Verdana;" edge="1" parent="1">
          <mxGeometry width="50" height="50" relative="1" as="geometry">
            <mxPoint x="856.5" y="2361" as="sourcePoint" />
            <mxPoint x="996.5" y="2360" as="targetPoint" />
          </mxGeometry>
        </mxCell>
        <mxCell id="WWlV5e2IUx9NMdd2vQTv-311" value="Insert DB" style="edgeLabel;html=1;align=center;verticalAlign=middle;resizable=0;points=[];fontFamily=Verdana;" vertex="1" connectable="0" parent="WWlV5e2IUx9NMdd2vQTv-310">
          <mxGeometry x="-0.2933" y="1" relative="1" as="geometry">
            <mxPoint x="19" as="offset" />
          </mxGeometry>
        </mxCell>
        <mxCell id="WWlV5e2IUx9NMdd2vQTv-312" value="" style="endArrow=classic;html=1;rounded=0;dashed=1;fontFamily=Verdana;exitX=0.729;exitY=0.032;exitDx=0;exitDy=0;exitPerimeter=0;" edge="1" parent="1">
          <mxGeometry width="50" height="50" relative="1" as="geometry">
            <mxPoint x="994.6399999999994" y="2391" as="sourcePoint" />
            <mxPoint x="860" y="2390" as="targetPoint" />
          </mxGeometry>
        </mxCell>
        <mxCell id="WWlV5e2IUx9NMdd2vQTv-313" value="success" style="edgeLabel;html=1;align=center;verticalAlign=middle;resizable=0;points=[];fontFamily=Verdana;" vertex="1" connectable="0" parent="WWlV5e2IUx9NMdd2vQTv-312">
          <mxGeometry x="-0.2933" y="1" relative="1" as="geometry">
            <mxPoint x="-18" y="-2" as="offset" />
          </mxGeometry>
        </mxCell>
        <mxCell id="WWlV5e2IUx9NMdd2vQTv-314" value="" style="endArrow=classic;html=1;rounded=0;dashed=1;fontFamily=Verdana;exitX=0.729;exitY=0.032;exitDx=0;exitDy=0;exitPerimeter=0;" edge="1" parent="1">
          <mxGeometry width="50" height="50" relative="1" as="geometry">
            <mxPoint x="844.6399999999994" y="2400" as="sourcePoint" />
            <mxPoint x="630" y="2399" as="targetPoint" />
          </mxGeometry>
        </mxCell>
        <mxCell id="WWlV5e2IUx9NMdd2vQTv-315" value="success" style="edgeLabel;html=1;align=center;verticalAlign=middle;resizable=0;points=[];fontFamily=Verdana;" vertex="1" connectable="0" parent="WWlV5e2IUx9NMdd2vQTv-314">
          <mxGeometry x="-0.2933" y="1" relative="1" as="geometry">
            <mxPoint x="-18" y="-2" as="offset" />
          </mxGeometry>
        </mxCell>
        <mxCell id="WWlV5e2IUx9NMdd2vQTv-316" value="" style="endArrow=classic;html=1;rounded=0;dashed=1;fontFamily=Verdana;exitX=0.729;exitY=0.032;exitDx=0;exitDy=0;exitPerimeter=0;" edge="1" parent="1">
          <mxGeometry width="50" height="50" relative="1" as="geometry">
            <mxPoint x="832.7799999999997" y="2502.3500000000004" as="sourcePoint" />
            <mxPoint x="264" y="2501" as="targetPoint" />
          </mxGeometry>
        </mxCell>
        <mxCell id="WWlV5e2IUx9NMdd2vQTv-317" value="false" style="edgeLabel;html=1;align=center;verticalAlign=middle;resizable=0;points=[];fontFamily=Verdana;" vertex="1" connectable="0" parent="WWlV5e2IUx9NMdd2vQTv-316">
          <mxGeometry x="-0.2933" y="1" relative="1" as="geometry">
            <mxPoint x="-64" y="-3" as="offset" />
          </mxGeometry>
        </mxCell>
        <mxCell id="WWlV5e2IUx9NMdd2vQTv-318" value="" style="endArrow=classic;html=1;rounded=0;fontFamily=Verdana;" edge="1" parent="1">
          <mxGeometry width="50" height="50" relative="1" as="geometry">
            <mxPoint x="255.9999999999991" y="2681.3500000000004" as="sourcePoint" />
            <mxPoint x="612" y="2681.3500000000004" as="targetPoint" />
          </mxGeometry>
        </mxCell>
        <mxCell id="WWlV5e2IUx9NMdd2vQTv-319" value="Redirect&amp;nbsp;" style="edgeLabel;html=1;align=center;verticalAlign=middle;resizable=0;points=[];fontFamily=Verdana;" vertex="1" connectable="0" parent="WWlV5e2IUx9NMdd2vQTv-318">
          <mxGeometry x="-0.2933" y="1" relative="1" as="geometry">
            <mxPoint x="48" as="offset" />
          </mxGeometry>
        </mxCell>
        <mxCell id="WWlV5e2IUx9NMdd2vQTv-320" value="" style="endArrow=classic;html=1;rounded=0;fontFamily=Verdana;" edge="1" parent="1">
          <mxGeometry width="50" height="50" relative="1" as="geometry">
            <mxPoint x="630.9999999999991" y="2731.3500000000004" as="sourcePoint" />
            <mxPoint x="840" y="2731.3500000000004" as="targetPoint" />
          </mxGeometry>
        </mxCell>
        <mxCell id="WWlV5e2IUx9NMdd2vQTv-321" value="Redirect Event Informations" style="edgeLabel;html=1;align=center;verticalAlign=middle;resizable=0;points=[];fontFamily=Verdana;" vertex="1" connectable="0" parent="WWlV5e2IUx9NMdd2vQTv-320">
          <mxGeometry x="-0.2933" y="1" relative="1" as="geometry">
            <mxPoint x="30" as="offset" />
          </mxGeometry>
        </mxCell>
        <mxCell id="WWlV5e2IUx9NMdd2vQTv-322" value="" style="endArrow=classic;html=1;rounded=0;dashed=1;fontFamily=Verdana;exitX=0.729;exitY=0.032;exitDx=0;exitDy=0;exitPerimeter=0;" edge="1" parent="1">
          <mxGeometry width="50" height="50" relative="1" as="geometry">
            <mxPoint x="844.6399999999994" y="2781.3500000000004" as="sourcePoint" />
            <mxPoint x="630" y="2780.3500000000004" as="targetPoint" />
          </mxGeometry>
        </mxCell>
        <mxCell id="WWlV5e2IUx9NMdd2vQTv-323" value="success" style="edgeLabel;html=1;align=center;verticalAlign=middle;resizable=0;points=[];fontFamily=Verdana;" vertex="1" connectable="0" parent="WWlV5e2IUx9NMdd2vQTv-322">
          <mxGeometry x="-0.2933" y="1" relative="1" as="geometry">
            <mxPoint x="-18" y="-2" as="offset" />
          </mxGeometry>
        </mxCell>
        <mxCell id="WWlV5e2IUx9NMdd2vQTv-324" value="" style="endArrow=classic;html=1;rounded=0;dashed=1;fontFamily=Verdana;exitX=0.729;exitY=0.032;exitDx=0;exitDy=0;exitPerimeter=0;" edge="1" parent="1">
          <mxGeometry width="50" height="50" relative="1" as="geometry">
            <mxPoint x="619.3199999999997" y="2802.3500000000004" as="sourcePoint" />
            <mxPoint x="98.00000000000091" y="2801.3500000000004" as="targetPoint" />
          </mxGeometry>
        </mxCell>
        <mxCell id="WWlV5e2IUx9NMdd2vQTv-325" value="success" style="edgeLabel;html=1;align=center;verticalAlign=middle;resizable=0;points=[];fontFamily=Verdana;" vertex="1" connectable="0" parent="WWlV5e2IUx9NMdd2vQTv-324">
          <mxGeometry x="-0.2933" y="1" relative="1" as="geometry">
            <mxPoint x="-53" y="-2" as="offset" />
          </mxGeometry>
        </mxCell>
        <mxCell id="WWlV5e2IUx9NMdd2vQTv-326" value="" style="endArrow=classic;html=1;rounded=0;dashed=1;fontFamily=Verdana;exitX=0.729;exitY=0.032;exitDx=0;exitDy=0;exitPerimeter=0;" edge="1" parent="1">
          <mxGeometry width="50" height="50" relative="1" as="geometry">
            <mxPoint x="994.6399999999994" y="2772.3500000000004" as="sourcePoint" />
            <mxPoint x="860" y="2771.3500000000004" as="targetPoint" />
          </mxGeometry>
        </mxCell>
        <mxCell id="WWlV5e2IUx9NMdd2vQTv-327" value="success" style="edgeLabel;html=1;align=center;verticalAlign=middle;resizable=0;points=[];fontFamily=Verdana;" vertex="1" connectable="0" parent="WWlV5e2IUx9NMdd2vQTv-326">
          <mxGeometry x="-0.2933" y="1" relative="1" as="geometry">
            <mxPoint x="-18" y="-2" as="offset" />
          </mxGeometry>
        </mxCell>
        <mxCell id="WWlV5e2IUx9NMdd2vQTv-328" value="" style="endArrow=classic;html=1;rounded=0;fontFamily=Verdana;" edge="1" parent="1">
          <mxGeometry width="50" height="50" relative="1" as="geometry">
            <mxPoint x="856.5" y="2742.3499999999995" as="sourcePoint" />
            <mxPoint x="996.5" y="2741.3500000000004" as="targetPoint" />
          </mxGeometry>
        </mxCell>
        <mxCell id="WWlV5e2IUx9NMdd2vQTv-329" value="Insert DB" style="edgeLabel;html=1;align=center;verticalAlign=middle;resizable=0;points=[];fontFamily=Verdana;" vertex="1" connectable="0" parent="WWlV5e2IUx9NMdd2vQTv-328">
          <mxGeometry x="-0.2933" y="1" relative="1" as="geometry">
            <mxPoint x="19" as="offset" />
          </mxGeometry>
        </mxCell>
        <mxCell id="WWlV5e2IUx9NMdd2vQTv-330" value="Logged in" style="text;strokeColor=none;fillColor=none;align=center;verticalAlign=middle;spacingLeft=4;spacingRight=4;overflow=hidden;points=[[0,0.5],[1,0.5]];portConstraint=eastwest;rotatable=0;fontFamily=Verdana;html=0;horizontal=0;" vertex="1" parent="1">
          <mxGeometry x="38" y="2293" width="30" height="130" as="geometry" />
        </mxCell>
        <mxCell id="WWlV5e2IUx9NMdd2vQTv-331" value="else" style="text;strokeColor=none;fillColor=none;align=center;verticalAlign=middle;spacingLeft=4;spacingRight=4;overflow=hidden;points=[[0,0.5],[1,0.5]];portConstraint=eastwest;rotatable=0;fontFamily=Verdana;html=0;horizontal=0;" vertex="1" parent="1">
          <mxGeometry x="38" y="2609" width="30" height="130" as="geometry" />
        </mxCell>
        <mxCell id="WWlV5e2IUx9NMdd2vQTv-332" value="" style="endArrow=none;dashed=1;html=1;rounded=0;fontFamily=Verdana;entryX=0.5;entryY=1;entryDx=0;entryDy=0;" edge="1" parent="1" target="WWlV5e2IUx9NMdd2vQTv-343">
          <mxGeometry width="50" height="50" relative="1" as="geometry">
            <mxPoint x="88.00000000000091" y="2900" as="sourcePoint" />
            <mxPoint x="87" y="2130.0000000000005" as="targetPoint" />
          </mxGeometry>
        </mxCell>
        <mxCell id="WWlV5e2IUx9NMdd2vQTv-333" value="" style="verticalLabelPosition=bottom;verticalAlign=top;html=1;shape=mxgraph.basic.rect;fillColor2=none;strokeWidth=1;size=20;indent=5;fontFamily=Verdana;" vertex="1" parent="1">
          <mxGeometry x="242" y="2136" width="20" height="180" as="geometry" />
        </mxCell>
        <mxCell id="WWlV5e2IUx9NMdd2vQTv-334" value="" style="endArrow=classic;html=1;rounded=0;fontFamily=Verdana;" edge="1" parent="1">
          <mxGeometry width="50" height="50" relative="1" as="geometry">
            <mxPoint x="80.99999999999909" y="2331" as="sourcePoint" />
            <mxPoint x="610" y="2331" as="targetPoint" />
          </mxGeometry>
        </mxCell>
        <mxCell id="WWlV5e2IUx9NMdd2vQTv-335" value="Fill Informations" style="edgeLabel;html=1;align=center;verticalAlign=middle;resizable=0;points=[];fontFamily=Verdana;" vertex="1" connectable="0" parent="WWlV5e2IUx9NMdd2vQTv-334">
          <mxGeometry x="-0.2933" y="1" relative="1" as="geometry">
            <mxPoint x="40" as="offset" />
          </mxGeometry>
        </mxCell>
        <mxCell id="WWlV5e2IUx9NMdd2vQTv-336" value="" style="endArrow=classic;html=1;rounded=0;dashed=1;fontFamily=Verdana;exitX=0.729;exitY=0.032;exitDx=0;exitDy=0;exitPerimeter=0;" edge="1" parent="1">
          <mxGeometry width="50" height="50" relative="1" as="geometry">
            <mxPoint x="619.3199999999997" y="2421" as="sourcePoint" />
            <mxPoint x="98.00000000000091" y="2420" as="targetPoint" />
          </mxGeometry>
        </mxCell>
        <mxCell id="WWlV5e2IUx9NMdd2vQTv-337" value="success" style="edgeLabel;html=1;align=center;verticalAlign=middle;resizable=0;points=[];fontFamily=Verdana;" vertex="1" connectable="0" parent="WWlV5e2IUx9NMdd2vQTv-336">
          <mxGeometry x="-0.2933" y="1" relative="1" as="geometry">
            <mxPoint x="-53" y="-2" as="offset" />
          </mxGeometry>
        </mxCell>
        <mxCell id="WWlV5e2IUx9NMdd2vQTv-338" value="" style="verticalLabelPosition=bottom;verticalAlign=top;html=1;shape=mxgraph.basic.rect;fillColor2=none;strokeWidth=1;size=20;indent=5;fontFamily=Verdana;" vertex="1" parent="1">
          <mxGeometry x="243" y="2480" width="20" height="210" as="geometry" />
        </mxCell>
        <mxCell id="WWlV5e2IUx9NMdd2vQTv-339" value="" style="endArrow=classic;html=1;rounded=0;fontFamily=Verdana;" edge="1" parent="1">
          <mxGeometry width="50" height="50" relative="1" as="geometry">
            <mxPoint x="84" y="2712.3500000000004" as="sourcePoint" />
            <mxPoint x="613.0000000000009" y="2712.3500000000004" as="targetPoint" />
          </mxGeometry>
        </mxCell>
        <mxCell id="WWlV5e2IUx9NMdd2vQTv-340" value="Fill Informations" style="edgeLabel;html=1;align=center;verticalAlign=middle;resizable=0;points=[];fontFamily=Verdana;" vertex="1" connectable="0" parent="WWlV5e2IUx9NMdd2vQTv-339">
          <mxGeometry x="-0.2933" y="1" relative="1" as="geometry">
            <mxPoint x="74" as="offset" />
          </mxGeometry>
        </mxCell>
        <mxCell id="WWlV5e2IUx9NMdd2vQTv-341" value="" style="endArrow=classic;html=1;rounded=0;fontFamily=Verdana;" edge="1" parent="1">
          <mxGeometry width="50" height="50" relative="1" as="geometry">
            <mxPoint x="90.99999999999909" y="2558.3500000000004" as="sourcePoint" />
            <mxPoint x="420" y="2558.3500000000004" as="targetPoint" />
          </mxGeometry>
        </mxCell>
        <mxCell id="WWlV5e2IUx9NMdd2vQTv-342" value="Fill Informations" style="edgeLabel;html=1;align=center;verticalAlign=middle;resizable=0;points=[];fontFamily=Verdana;" vertex="1" connectable="0" parent="WWlV5e2IUx9NMdd2vQTv-341">
          <mxGeometry x="-0.2933" y="1" relative="1" as="geometry">
            <mxPoint x="40" as="offset" />
          </mxGeometry>
        </mxCell>
        <mxCell id="WWlV5e2IUx9NMdd2vQTv-343" value="" style="verticalLabelPosition=bottom;verticalAlign=top;html=1;shape=mxgraph.basic.rect;fillColor2=none;strokeWidth=1;size=20;indent=5;fontFamily=Verdana;" vertex="1" parent="1">
          <mxGeometry x="79" y="2150" width="20" height="720" as="geometry" />
        </mxCell>
        <mxCell id="WWlV5e2IUx9NMdd2vQTv-344" value="" style="verticalLabelPosition=bottom;verticalAlign=top;html=1;shape=mxgraph.basic.rect;fillColor2=none;strokeWidth=1;size=20;indent=5;fontFamily=Verdana;" vertex="1" parent="1">
          <mxGeometry x="419" y="2510" width="20" height="90" as="geometry" />
        </mxCell>
        <mxCell id="WWlV5e2IUx9NMdd2vQTv-345" value="" style="verticalLabelPosition=bottom;verticalAlign=top;html=1;shape=mxgraph.basic.rect;fillColor2=none;strokeWidth=1;size=20;indent=5;fontFamily=Verdana;" vertex="1" parent="1">
          <mxGeometry x="613" y="2280" width="20" height="180" as="geometry" />
        </mxCell>
        <mxCell id="WWlV5e2IUx9NMdd2vQTv-346" value="" style="verticalLabelPosition=bottom;verticalAlign=top;html=1;shape=mxgraph.basic.rect;fillColor2=none;strokeWidth=1;size=20;indent=5;fontFamily=Verdana;" vertex="1" parent="1">
          <mxGeometry x="612" y="2661" width="20" height="159" as="geometry" />
        </mxCell>
        <mxCell id="WWlV5e2IUx9NMdd2vQTv-347" value="" style="rounded=0;whiteSpace=wrap;html=1;fontFamily=Verdana;" vertex="1" parent="1">
          <mxGeometry x="2709" y="1206" width="1070" height="614" as="geometry" />
        </mxCell>
        <mxCell id="WWlV5e2IUx9NMdd2vQTv-348" value="" style="endArrow=none;dashed=1;html=1;rounded=0;fontFamily=Verdana;entryX=0.5;entryY=1;entryDx=0;entryDy=0;startArrow=none;" edge="1" parent="1" source="WWlV5e2IUx9NMdd2vQTv-409">
          <mxGeometry width="50" height="50" relative="1" as="geometry">
            <mxPoint x="3282" y="1680" as="sourcePoint" />
            <mxPoint x="3282.41" y="970" as="targetPoint" />
          </mxGeometry>
        </mxCell>
        <mxCell id="WWlV5e2IUx9NMdd2vQTv-349" value="Actor" style="shape=umlActor;verticalLabelPosition=bottom;verticalAlign=top;html=1;outlineConnect=0;" vertex="1" parent="1">
          <mxGeometry x="2732" y="890" width="30" height="60" as="geometry" />
        </mxCell>
        <mxCell id="WWlV5e2IUx9NMdd2vQTv-350" value="" style="endArrow=none;dashed=1;html=1;rounded=0;fontFamily=Verdana;startArrow=none;" edge="1" parent="1" source="WWlV5e2IUx9NMdd2vQTv-391">
          <mxGeometry width="50" height="50" relative="1" as="geometry">
            <mxPoint x="2746.92" y="1560" as="sourcePoint" />
            <mxPoint x="2747" y="980" as="targetPoint" />
          </mxGeometry>
        </mxCell>
        <mxCell id="WWlV5e2IUx9NMdd2vQTv-351" value="Home Page" style="rounded=1;whiteSpace=wrap;html=1;flipH=0;flipV=0;" vertex="1" parent="1">
          <mxGeometry x="2828" y="890" width="120" height="60" as="geometry" />
        </mxCell>
        <mxCell id="WWlV5e2IUx9NMdd2vQTv-352" value="Community Page" style="rounded=1;whiteSpace=wrap;html=1;flipH=0;flipV=0;" vertex="1" parent="1">
          <mxGeometry x="3004.5" y="890" width="120" height="60" as="geometry" />
        </mxCell>
        <mxCell id="WWlV5e2IUx9NMdd2vQTv-353" value="Server" style="rounded=1;whiteSpace=wrap;html=1;flipH=0;flipV=0;" vertex="1" parent="1">
          <mxGeometry x="3450" y="890" width="120" height="60" as="geometry" />
        </mxCell>
        <mxCell id="WWlV5e2IUx9NMdd2vQTv-354" value="DB" style="shape=cylinder3;whiteSpace=wrap;html=1;boundedLbl=1;backgroundOutline=1;size=15;flipH=0;flipV=0;" vertex="1" parent="1">
          <mxGeometry x="3631.5" y="880" width="52.5" height="70" as="geometry" />
        </mxCell>
        <mxCell id="WWlV5e2IUx9NMdd2vQTv-355" value="" style="endArrow=none;dashed=1;html=1;rounded=0;fontFamily=Verdana;entryX=0.5;entryY=1;entryDx=0;entryDy=0;startArrow=none;" edge="1" parent="1" source="WWlV5e2IUx9NMdd2vQTv-367">
          <mxGeometry width="50" height="50" relative="1" as="geometry">
            <mxPoint x="2887.92" y="1560" as="sourcePoint" />
            <mxPoint x="2887.5" y="970" as="targetPoint" />
          </mxGeometry>
        </mxCell>
        <mxCell id="WWlV5e2IUx9NMdd2vQTv-356" value="" style="endArrow=none;dashed=1;html=1;rounded=0;fontFamily=Verdana;entryX=0.5;entryY=1;entryDx=0;entryDy=0;startArrow=none;" edge="1" parent="1" source="WWlV5e2IUx9NMdd2vQTv-375">
          <mxGeometry width="50" height="50" relative="1" as="geometry">
            <mxPoint x="3064.42" y="1560" as="sourcePoint" />
            <mxPoint x="3064" y="970" as="targetPoint" />
          </mxGeometry>
        </mxCell>
        <mxCell id="WWlV5e2IUx9NMdd2vQTv-357" value="" style="endArrow=none;dashed=1;html=1;rounded=0;fontFamily=Verdana;entryX=0.5;entryY=1;entryDx=0;entryDy=0;startArrow=none;" edge="1" parent="1" source="WWlV5e2IUx9NMdd2vQTv-387">
          <mxGeometry width="50" height="50" relative="1" as="geometry">
            <mxPoint x="3509.5" y="1080" as="sourcePoint" />
            <mxPoint x="3509.5" y="970" as="targetPoint" />
          </mxGeometry>
        </mxCell>
        <mxCell id="WWlV5e2IUx9NMdd2vQTv-358" value="" style="endArrow=none;dashed=1;html=1;rounded=0;fontFamily=Verdana;entryX=0.5;entryY=1;entryDx=0;entryDy=0;startArrow=none;" edge="1" parent="1" source="WWlV5e2IUx9NMdd2vQTv-389">
          <mxGeometry width="50" height="50" relative="1" as="geometry">
            <mxPoint x="3657.67" y="1560" as="sourcePoint" />
            <mxPoint x="3657.25" y="970" as="targetPoint" />
          </mxGeometry>
        </mxCell>
        <mxCell id="WWlV5e2IUx9NMdd2vQTv-359" value="" style="endArrow=classic;html=1;rounded=0;fontFamily=Verdana;" edge="1" parent="1">
          <mxGeometry width="50" height="50" relative="1" as="geometry">
            <mxPoint x="2750" y="1020" as="sourcePoint" />
            <mxPoint x="2870" y="1020" as="targetPoint" />
          </mxGeometry>
        </mxCell>
        <mxCell id="WWlV5e2IUx9NMdd2vQTv-360" value="Visit HomePage" style="edgeLabel;html=1;align=center;verticalAlign=middle;resizable=0;points=[];fontFamily=Verdana;" vertex="1" connectable="0" parent="WWlV5e2IUx9NMdd2vQTv-359">
          <mxGeometry x="-0.2933" y="1" relative="1" as="geometry">
            <mxPoint x="20" as="offset" />
          </mxGeometry>
        </mxCell>
        <mxCell id="WWlV5e2IUx9NMdd2vQTv-361" value="" style="endArrow=classic;html=1;rounded=0;fontFamily=Verdana;" edge="1" parent="1">
          <mxGeometry width="50" height="50" relative="1" as="geometry">
            <mxPoint x="2870" y="1087" as="sourcePoint" />
            <mxPoint x="2760" y="1087" as="targetPoint" />
          </mxGeometry>
        </mxCell>
        <mxCell id="WWlV5e2IUx9NMdd2vQTv-362" value="&lt;font style=&quot;font-size: 9px&quot;&gt;List Communuties&lt;/font&gt;" style="edgeLabel;html=1;align=center;verticalAlign=middle;resizable=0;points=[];fontFamily=Verdana;" vertex="1" connectable="0" parent="WWlV5e2IUx9NMdd2vQTv-361">
          <mxGeometry x="-0.2933" y="1" relative="1" as="geometry">
            <mxPoint x="-13" y="-3" as="offset" />
          </mxGeometry>
        </mxCell>
        <mxCell id="WWlV5e2IUx9NMdd2vQTv-363" value="" style="endArrow=classic;html=1;rounded=0;fontFamily=Verdana;" edge="1" parent="1">
          <mxGeometry width="50" height="50" relative="1" as="geometry">
            <mxPoint x="2755" y="1109" as="sourcePoint" />
            <mxPoint x="2876" y="1109" as="targetPoint" />
          </mxGeometry>
        </mxCell>
        <mxCell id="WWlV5e2IUx9NMdd2vQTv-364" value="Click Community" style="edgeLabel;html=1;align=center;verticalAlign=middle;resizable=0;points=[];fontFamily=Verdana;fontSize=10;" vertex="1" connectable="0" parent="WWlV5e2IUx9NMdd2vQTv-363">
          <mxGeometry x="-0.2933" y="1" relative="1" as="geometry">
            <mxPoint x="18" as="offset" />
          </mxGeometry>
        </mxCell>
        <mxCell id="WWlV5e2IUx9NMdd2vQTv-365" value="" style="endArrow=classic;html=1;rounded=0;fontFamily=Verdana;" edge="1" parent="1">
          <mxGeometry width="50" height="50" relative="1" as="geometry">
            <mxPoint x="2898.5" y="1118" as="sourcePoint" />
            <mxPoint x="3052" y="1118" as="targetPoint" />
          </mxGeometry>
        </mxCell>
        <mxCell id="WWlV5e2IUx9NMdd2vQTv-366" value="Redirect Community&lt;br&gt;Page" style="edgeLabel;html=1;align=center;verticalAlign=middle;resizable=0;points=[];fontFamily=Verdana;" vertex="1" connectable="0" parent="WWlV5e2IUx9NMdd2vQTv-365">
          <mxGeometry x="-0.2933" y="1" relative="1" as="geometry">
            <mxPoint x="18" as="offset" />
          </mxGeometry>
        </mxCell>
        <mxCell id="WWlV5e2IUx9NMdd2vQTv-367" value="" style="verticalLabelPosition=bottom;verticalAlign=top;html=1;shape=mxgraph.basic.rect;fillColor2=none;strokeWidth=1;size=20;indent=5;fontFamily=Verdana;" vertex="1" parent="1">
          <mxGeometry x="2878" y="1000" width="20" height="130" as="geometry" />
        </mxCell>
        <mxCell id="WWlV5e2IUx9NMdd2vQTv-368" value="" style="endArrow=none;dashed=1;html=1;rounded=0;fontFamily=Verdana;entryX=0.5;entryY=1;entryDx=0;entryDy=0;" edge="1" parent="1" target="WWlV5e2IUx9NMdd2vQTv-367">
          <mxGeometry width="50" height="50" relative="1" as="geometry">
            <mxPoint x="2890" y="1840" as="sourcePoint" />
            <mxPoint x="2887.5" y="970" as="targetPoint" />
          </mxGeometry>
        </mxCell>
        <mxCell id="WWlV5e2IUx9NMdd2vQTv-369" value="" style="endArrow=classic;html=1;rounded=0;fontFamily=Verdana;" edge="1" parent="1">
          <mxGeometry width="50" height="50" relative="1" as="geometry">
            <mxPoint x="3050" y="1151" as="sourcePoint" />
            <mxPoint x="2760" y="1152" as="targetPoint" />
          </mxGeometry>
        </mxCell>
        <mxCell id="WWlV5e2IUx9NMdd2vQTv-370" value="Show Event Interface" style="edgeLabel;html=1;align=center;verticalAlign=middle;resizable=0;points=[];fontFamily=Verdana;" vertex="1" connectable="0" parent="WWlV5e2IUx9NMdd2vQTv-369">
          <mxGeometry x="-0.2933" y="1" relative="1" as="geometry">
            <mxPoint x="-43" y="-3" as="offset" />
          </mxGeometry>
        </mxCell>
        <mxCell id="WWlV5e2IUx9NMdd2vQTv-371" value="" style="endArrow=classic;html=1;rounded=0;fontFamily=Verdana;" edge="1" parent="1">
          <mxGeometry width="50" height="50" relative="1" as="geometry">
            <mxPoint x="2760" y="1175" as="sourcePoint" />
            <mxPoint x="3052" y="1175" as="targetPoint" />
          </mxGeometry>
        </mxCell>
        <mxCell id="WWlV5e2IUx9NMdd2vQTv-372" value="Click Register Button" style="edgeLabel;html=1;align=center;verticalAlign=middle;resizable=0;points=[];fontFamily=Verdana;" vertex="1" connectable="0" parent="WWlV5e2IUx9NMdd2vQTv-371">
          <mxGeometry x="-0.2933" y="1" relative="1" as="geometry">
            <mxPoint x="40" as="offset" />
          </mxGeometry>
        </mxCell>
        <mxCell id="WWlV5e2IUx9NMdd2vQTv-373" value="" style="endArrow=classic;html=1;rounded=0;fontFamily=Verdana;" edge="1" parent="1">
          <mxGeometry width="50" height="50" relative="1" as="geometry">
            <mxPoint x="3068.5" y="1255" as="sourcePoint" />
            <mxPoint x="3490" y="1258" as="targetPoint" />
          </mxGeometry>
        </mxCell>
        <mxCell id="WWlV5e2IUx9NMdd2vQTv-374" value="User Informations" style="edgeLabel;html=1;align=center;verticalAlign=middle;resizable=0;points=[];fontFamily=Verdana;" vertex="1" connectable="0" parent="WWlV5e2IUx9NMdd2vQTv-373">
          <mxGeometry x="-0.2933" y="1" relative="1" as="geometry">
            <mxPoint x="62" y="-1" as="offset" />
          </mxGeometry>
        </mxCell>
        <mxCell id="WWlV5e2IUx9NMdd2vQTv-375" value="" style="verticalLabelPosition=bottom;verticalAlign=top;html=1;shape=mxgraph.basic.rect;fillColor2=none;strokeWidth=1;size=20;indent=5;fontFamily=Verdana;" vertex="1" parent="1">
          <mxGeometry x="3054.5" y="1080" width="20" height="330" as="geometry" />
        </mxCell>
        <mxCell id="WWlV5e2IUx9NMdd2vQTv-376" value="" style="endArrow=none;dashed=1;html=1;rounded=0;fontFamily=Verdana;entryX=0.5;entryY=1;entryDx=0;entryDy=0;startArrow=none;" edge="1" parent="1" source="WWlV5e2IUx9NMdd2vQTv-404" target="WWlV5e2IUx9NMdd2vQTv-375">
          <mxGeometry width="50" height="50" relative="1" as="geometry">
            <mxPoint x="3065" y="1680" as="sourcePoint" />
            <mxPoint x="3064" y="970" as="targetPoint" />
          </mxGeometry>
        </mxCell>
        <mxCell id="WWlV5e2IUx9NMdd2vQTv-377" value="" style="endArrow=classic;html=1;rounded=0;fontFamily=Verdana;" edge="1" parent="1">
          <mxGeometry width="50" height="50" relative="1" as="geometry">
            <mxPoint x="3514.5" y="1267" as="sourcePoint" />
            <mxPoint x="3644.5" y="1267" as="targetPoint" />
          </mxGeometry>
        </mxCell>
        <mxCell id="WWlV5e2IUx9NMdd2vQTv-378" value="Add to DB" style="edgeLabel;html=1;align=center;verticalAlign=middle;resizable=0;points=[];fontFamily=Verdana;" vertex="1" connectable="0" parent="WWlV5e2IUx9NMdd2vQTv-377">
          <mxGeometry x="-0.2933" y="1" relative="1" as="geometry">
            <mxPoint x="19" y="-1" as="offset" />
          </mxGeometry>
        </mxCell>
        <mxCell id="WWlV5e2IUx9NMdd2vQTv-379" value="" style="endArrow=classic;html=1;rounded=0;dashed=1;fontFamily=Verdana;" edge="1" parent="1">
          <mxGeometry width="50" height="50" relative="1" as="geometry">
            <mxPoint x="3642.5" y="1290" as="sourcePoint" />
            <mxPoint x="3519.5" y="1290" as="targetPoint" />
          </mxGeometry>
        </mxCell>
        <mxCell id="WWlV5e2IUx9NMdd2vQTv-380" value="Success" style="edgeLabel;html=1;align=center;verticalAlign=middle;resizable=0;points=[];fontFamily=Verdana;" vertex="1" connectable="0" parent="WWlV5e2IUx9NMdd2vQTv-379">
          <mxGeometry x="-0.2933" y="1" relative="1" as="geometry">
            <mxPoint x="-20" y="-3" as="offset" />
          </mxGeometry>
        </mxCell>
        <mxCell id="WWlV5e2IUx9NMdd2vQTv-381" value="" style="endArrow=classic;html=1;rounded=0;dashed=1;fontFamily=Verdana;exitX=-0.017;exitY=0.865;exitDx=0;exitDy=0;exitPerimeter=0;" edge="1" parent="1" source="WWlV5e2IUx9NMdd2vQTv-387">
          <mxGeometry width="50" height="50" relative="1" as="geometry">
            <mxPoint x="3222" y="1305" as="sourcePoint" />
            <mxPoint x="3076.5" y="1305" as="targetPoint" />
          </mxGeometry>
        </mxCell>
        <mxCell id="WWlV5e2IUx9NMdd2vQTv-382" value="Success" style="edgeLabel;html=1;align=center;verticalAlign=middle;resizable=0;points=[];fontFamily=Verdana;" vertex="1" connectable="0" parent="WWlV5e2IUx9NMdd2vQTv-381">
          <mxGeometry x="-0.2933" y="1" relative="1" as="geometry">
            <mxPoint x="-51" y="-3" as="offset" />
          </mxGeometry>
        </mxCell>
        <mxCell id="WWlV5e2IUx9NMdd2vQTv-383" value="" style="endArrow=classic;html=1;rounded=0;dashed=1;fontFamily=Verdana;" edge="1" parent="1">
          <mxGeometry width="50" height="50" relative="1" as="geometry">
            <mxPoint x="3037.5" y="1324" as="sourcePoint" />
            <mxPoint x="2760" y="1324" as="targetPoint" />
          </mxGeometry>
        </mxCell>
        <mxCell id="WWlV5e2IUx9NMdd2vQTv-384" value="Success" style="edgeLabel;html=1;align=center;verticalAlign=middle;resizable=0;points=[];fontFamily=Verdana;" vertex="1" connectable="0" parent="WWlV5e2IUx9NMdd2vQTv-383">
          <mxGeometry x="-0.2933" y="1" relative="1" as="geometry">
            <mxPoint x="-52" y="-3" as="offset" />
          </mxGeometry>
        </mxCell>
        <mxCell id="WWlV5e2IUx9NMdd2vQTv-385" value="" style="endArrow=classic;html=1;rounded=0;fontFamily=Verdana;" edge="1" parent="1">
          <mxGeometry width="50" height="50" relative="1" as="geometry">
            <mxPoint x="3048" y="1338" as="sourcePoint" />
            <mxPoint x="3048" y="1398" as="targetPoint" />
            <Array as="points">
              <mxPoint x="2988" y="1338" />
              <mxPoint x="2988" y="1398" />
            </Array>
          </mxGeometry>
        </mxCell>
        <mxCell id="WWlV5e2IUx9NMdd2vQTv-386" value="Convert Button&lt;br&gt;from Register &lt;br&gt;to Cancel" style="edgeLabel;html=1;align=center;verticalAlign=middle;resizable=0;points=[];fontFamily=Verdana;" vertex="1" connectable="0" parent="WWlV5e2IUx9NMdd2vQTv-385">
          <mxGeometry x="-0.2933" y="1" relative="1" as="geometry">
            <mxPoint y="29" as="offset" />
          </mxGeometry>
        </mxCell>
        <mxCell id="WWlV5e2IUx9NMdd2vQTv-387" value="" style="verticalLabelPosition=bottom;verticalAlign=top;html=1;shape=mxgraph.basic.rect;fillColor2=none;strokeWidth=1;size=20;indent=5;fontFamily=Verdana;" vertex="1" parent="1">
          <mxGeometry x="3500" y="1170" width="20" height="160" as="geometry" />
        </mxCell>
        <mxCell id="WWlV5e2IUx9NMdd2vQTv-388" value="" style="endArrow=none;dashed=1;html=1;rounded=0;fontFamily=Verdana;entryX=0.5;entryY=1;entryDx=0;entryDy=0;startArrow=none;" edge="1" parent="1" source="WWlV5e2IUx9NMdd2vQTv-402" target="WWlV5e2IUx9NMdd2vQTv-387">
          <mxGeometry width="50" height="50" relative="1" as="geometry">
            <mxPoint x="3511.5" y="1680" as="sourcePoint" />
            <mxPoint x="3509.5" y="970" as="targetPoint" />
          </mxGeometry>
        </mxCell>
        <mxCell id="WWlV5e2IUx9NMdd2vQTv-389" value="" style="verticalLabelPosition=bottom;verticalAlign=top;html=1;shape=mxgraph.basic.rect;fillColor2=none;strokeWidth=1;size=20;indent=5;fontFamily=Verdana;" vertex="1" parent="1">
          <mxGeometry x="3646.5" y="1230" width="20" height="80" as="geometry" />
        </mxCell>
        <mxCell id="WWlV5e2IUx9NMdd2vQTv-390" value="" style="endArrow=none;dashed=1;html=1;rounded=0;fontFamily=Verdana;entryX=0.5;entryY=1;entryDx=0;entryDy=0;startArrow=none;" edge="1" parent="1" source="WWlV5e2IUx9NMdd2vQTv-415" target="WWlV5e2IUx9NMdd2vQTv-389">
          <mxGeometry width="50" height="50" relative="1" as="geometry">
            <mxPoint x="3657" y="1670" as="sourcePoint" />
            <mxPoint x="3657.25" y="970" as="targetPoint" />
          </mxGeometry>
        </mxCell>
        <mxCell id="WWlV5e2IUx9NMdd2vQTv-391" value="" style="verticalLabelPosition=bottom;verticalAlign=top;html=1;shape=mxgraph.basic.rect;fillColor2=none;strokeWidth=1;size=20;indent=5;fontFamily=Verdana;" vertex="1" parent="1">
          <mxGeometry x="2737" y="1000" width="20" height="350" as="geometry" />
        </mxCell>
        <mxCell id="WWlV5e2IUx9NMdd2vQTv-392" value="" style="endArrow=none;dashed=1;html=1;rounded=0;fontFamily=Verdana;startArrow=none;" edge="1" parent="1" source="WWlV5e2IUx9NMdd2vQTv-435" target="WWlV5e2IUx9NMdd2vQTv-391">
          <mxGeometry width="50" height="50" relative="1" as="geometry">
            <mxPoint x="2750" y="1840" as="sourcePoint" />
            <mxPoint x="2747" y="980" as="targetPoint" />
          </mxGeometry>
        </mxCell>
        <mxCell id="WWlV5e2IUx9NMdd2vQTv-393" value="Register to Community Sequence Diagram:" style="text;html=1;strokeColor=none;fillColor=none;align=left;verticalAlign=middle;whiteSpace=wrap;rounded=0;fontStyle=1;fontSize=16;" vertex="1" parent="1">
          <mxGeometry x="2703" y="830" width="387" height="30" as="geometry" />
        </mxCell>
        <mxCell id="WWlV5e2IUx9NMdd2vQTv-394" value="" style="endArrow=classic;html=1;rounded=0;fontFamily=Verdana;" edge="1" parent="1">
          <mxGeometry width="50" height="50" relative="1" as="geometry">
            <mxPoint x="3074.5" y="1187.4099999999999" as="sourcePoint" />
            <mxPoint x="3490" y="1187" as="targetPoint" />
          </mxGeometry>
        </mxCell>
        <mxCell id="WWlV5e2IUx9NMdd2vQTv-395" value="Check Login" style="edgeLabel;html=1;align=center;verticalAlign=middle;resizable=0;points=[];fontFamily=Verdana;" vertex="1" connectable="0" parent="WWlV5e2IUx9NMdd2vQTv-394">
          <mxGeometry x="-0.2933" y="1" relative="1" as="geometry">
            <mxPoint x="62" as="offset" />
          </mxGeometry>
        </mxCell>
        <mxCell id="WWlV5e2IUx9NMdd2vQTv-396" value="" style="endArrow=classic;html=1;rounded=0;dashed=1;fontFamily=Verdana;exitX=0.729;exitY=0.032;exitDx=0;exitDy=0;exitPerimeter=0;" edge="1" parent="1">
          <mxGeometry width="50" height="50" relative="1" as="geometry">
            <mxPoint x="3490.029999999999" y="1224.08" as="sourcePoint" />
            <mxPoint x="3081.25" y="1224" as="targetPoint" />
          </mxGeometry>
        </mxCell>
        <mxCell id="WWlV5e2IUx9NMdd2vQTv-397" value="true" style="edgeLabel;html=1;align=center;verticalAlign=middle;resizable=0;points=[];fontFamily=Verdana;" vertex="1" connectable="0" parent="WWlV5e2IUx9NMdd2vQTv-396">
          <mxGeometry x="-0.2933" y="1" relative="1" as="geometry">
            <mxPoint x="-64" y="-3" as="offset" />
          </mxGeometry>
        </mxCell>
        <mxCell id="WWlV5e2IUx9NMdd2vQTv-398" value="" style="rounded=0;whiteSpace=wrap;html=1;fontFamily=Verdana;" vertex="1" parent="1">
          <mxGeometry x="2670" y="1206" width="40" height="614" as="geometry" />
        </mxCell>
        <mxCell id="WWlV5e2IUx9NMdd2vQTv-399" value="Logged in" style="text;strokeColor=none;fillColor=none;align=center;verticalAlign=middle;spacingLeft=4;spacingRight=4;overflow=hidden;points=[[0,0.5],[1,0.5]];portConstraint=eastwest;rotatable=0;fontFamily=Verdana;html=0;horizontal=0;" vertex="1" parent="1">
          <mxGeometry x="2675" y="1268" width="30" height="130" as="geometry" />
        </mxCell>
        <mxCell id="WWlV5e2IUx9NMdd2vQTv-400" value="else" style="text;strokeColor=none;fillColor=none;align=center;verticalAlign=middle;spacingLeft=4;spacingRight=4;overflow=hidden;points=[[0,0.5],[1,0.5]];portConstraint=eastwest;rotatable=0;fontFamily=Verdana;html=0;horizontal=0;" vertex="1" parent="1">
          <mxGeometry x="2675" y="1585" width="30" height="130" as="geometry" />
        </mxCell>
        <mxCell id="WWlV5e2IUx9NMdd2vQTv-401" value="" style="endArrow=none;dashed=1;html=1;dashPattern=1 3;strokeWidth=2;rounded=0;fontFamily=Verdana;" edge="1" parent="1">
          <mxGeometry width="50" height="50" relative="1" as="geometry">
            <mxPoint x="2660" y="1460" as="sourcePoint" />
            <mxPoint x="3900" y="1460" as="targetPoint" />
          </mxGeometry>
        </mxCell>
        <mxCell id="WWlV5e2IUx9NMdd2vQTv-402" value="" style="verticalLabelPosition=bottom;verticalAlign=top;html=1;shape=mxgraph.basic.rect;fillColor2=none;strokeWidth=1;size=20;indent=5;fontFamily=Verdana;" vertex="1" parent="1">
          <mxGeometry x="3500" y="1470" width="20" height="210" as="geometry" />
        </mxCell>
        <mxCell id="WWlV5e2IUx9NMdd2vQTv-403" value="" style="endArrow=none;dashed=1;html=1;rounded=0;fontFamily=Verdana;entryX=0.5;entryY=1;entryDx=0;entryDy=0;" edge="1" parent="1" target="WWlV5e2IUx9NMdd2vQTv-402">
          <mxGeometry width="50" height="50" relative="1" as="geometry">
            <mxPoint x="3510" y="1840" as="sourcePoint" />
            <mxPoint x="3510" y="1330" as="targetPoint" />
          </mxGeometry>
        </mxCell>
        <mxCell id="WWlV5e2IUx9NMdd2vQTv-404" value="" style="verticalLabelPosition=bottom;verticalAlign=top;html=1;shape=mxgraph.basic.rect;fillColor2=none;strokeWidth=1;size=20;indent=5;fontFamily=Verdana;" vertex="1" parent="1">
          <mxGeometry x="3054" y="1480" width="20" height="290" as="geometry" />
        </mxCell>
        <mxCell id="WWlV5e2IUx9NMdd2vQTv-405" value="" style="endArrow=none;dashed=1;html=1;rounded=0;fontFamily=Verdana;entryX=0.5;entryY=1;entryDx=0;entryDy=0;" edge="1" parent="1" target="WWlV5e2IUx9NMdd2vQTv-404">
          <mxGeometry width="50" height="50" relative="1" as="geometry">
            <mxPoint x="3064" y="1840" as="sourcePoint" />
            <mxPoint x="3064.5" y="1410" as="targetPoint" />
          </mxGeometry>
        </mxCell>
        <mxCell id="WWlV5e2IUx9NMdd2vQTv-406" value="Login Page/PopUp" style="rounded=1;whiteSpace=wrap;html=1;flipH=0;flipV=0;" vertex="1" parent="1">
          <mxGeometry x="3223" y="890" width="120" height="60" as="geometry" />
        </mxCell>
        <mxCell id="WWlV5e2IUx9NMdd2vQTv-407" value="" style="endArrow=classic;html=1;rounded=0;dashed=1;fontFamily=Verdana;exitX=0.729;exitY=0.032;exitDx=0;exitDy=0;exitPerimeter=0;" edge="1" parent="1">
          <mxGeometry width="50" height="50" relative="1" as="geometry">
            <mxPoint x="3499.779999999999" y="1490.08" as="sourcePoint" />
            <mxPoint x="3079" y="1490" as="targetPoint" />
          </mxGeometry>
        </mxCell>
        <mxCell id="WWlV5e2IUx9NMdd2vQTv-408" value="false" style="edgeLabel;html=1;align=center;verticalAlign=middle;resizable=0;points=[];fontFamily=Verdana;" vertex="1" connectable="0" parent="WWlV5e2IUx9NMdd2vQTv-407">
          <mxGeometry x="-0.2933" y="1" relative="1" as="geometry">
            <mxPoint x="-72" y="-3" as="offset" />
          </mxGeometry>
        </mxCell>
        <mxCell id="WWlV5e2IUx9NMdd2vQTv-409" value="" style="verticalLabelPosition=bottom;verticalAlign=top;html=1;shape=mxgraph.basic.rect;fillColor2=none;strokeWidth=1;size=20;indent=5;fontFamily=Verdana;" vertex="1" parent="1">
          <mxGeometry x="3273" y="1504" width="20" height="60" as="geometry" />
        </mxCell>
        <mxCell id="WWlV5e2IUx9NMdd2vQTv-410" value="" style="endArrow=none;dashed=1;html=1;rounded=0;fontFamily=Verdana;entryX=0.5;entryY=1;entryDx=0;entryDy=0;startArrow=none;" edge="1" parent="1" target="WWlV5e2IUx9NMdd2vQTv-409">
          <mxGeometry width="50" height="50" relative="1" as="geometry">
            <mxPoint x="3290" y="1840" as="sourcePoint" />
            <mxPoint x="3282.41" y="970" as="targetPoint" />
          </mxGeometry>
        </mxCell>
        <mxCell id="WWlV5e2IUx9NMdd2vQTv-411" value="" style="endArrow=classic;html=1;rounded=0;fontFamily=Verdana;entryX=-0.071;entryY=0.272;entryDx=0;entryDy=0;entryPerimeter=0;" edge="1" parent="1" target="WWlV5e2IUx9NMdd2vQTv-409">
          <mxGeometry width="50" height="50" relative="1" as="geometry">
            <mxPoint x="3075.25" y="1520.4099999999999" as="sourcePoint" />
            <mxPoint x="3270" y="1520" as="targetPoint" />
          </mxGeometry>
        </mxCell>
        <mxCell id="WWlV5e2IUx9NMdd2vQTv-412" value="Redirect Login Page/PopUp" style="edgeLabel;html=1;align=center;verticalAlign=middle;resizable=0;points=[];fontFamily=Verdana;" vertex="1" connectable="0" parent="WWlV5e2IUx9NMdd2vQTv-411">
          <mxGeometry x="-0.2933" y="1" relative="1" as="geometry">
            <mxPoint x="25" as="offset" />
          </mxGeometry>
        </mxCell>
        <mxCell id="WWlV5e2IUx9NMdd2vQTv-413" value="" style="endArrow=classic;html=1;rounded=0;fontFamily=Verdana;entryX=0.739;entryY=0.528;entryDx=0;entryDy=0;entryPerimeter=0;" edge="1" parent="1" target="WWlV5e2IUx9NMdd2vQTv-347">
          <mxGeometry width="50" height="50" relative="1" as="geometry">
            <mxPoint x="3300" y="1530" as="sourcePoint" />
            <mxPoint x="3430" y="1530" as="targetPoint" />
          </mxGeometry>
        </mxCell>
        <mxCell id="WWlV5e2IUx9NMdd2vQTv-414" value="Login Informations" style="edgeLabel;html=1;align=center;verticalAlign=middle;resizable=0;points=[];fontFamily=Verdana;" vertex="1" connectable="0" parent="WWlV5e2IUx9NMdd2vQTv-413">
          <mxGeometry x="-0.2933" y="1" relative="1" as="geometry">
            <mxPoint x="19" y="-2" as="offset" />
          </mxGeometry>
        </mxCell>
        <mxCell id="WWlV5e2IUx9NMdd2vQTv-415" value="" style="verticalLabelPosition=bottom;verticalAlign=top;html=1;shape=mxgraph.basic.rect;fillColor2=none;strokeWidth=1;size=20;indent=5;fontFamily=Verdana;" vertex="1" parent="1">
          <mxGeometry x="3646.5" y="1520" width="20" height="140" as="geometry" />
        </mxCell>
        <mxCell id="WWlV5e2IUx9NMdd2vQTv-416" value="" style="endArrow=none;dashed=1;html=1;rounded=0;fontFamily=Verdana;entryX=0.5;entryY=1;entryDx=0;entryDy=0;" edge="1" parent="1" target="WWlV5e2IUx9NMdd2vQTv-415">
          <mxGeometry width="50" height="50" relative="1" as="geometry">
            <mxPoint x="3657" y="1840" as="sourcePoint" />
            <mxPoint x="3656.5" y="1310" as="targetPoint" />
          </mxGeometry>
        </mxCell>
        <mxCell id="WWlV5e2IUx9NMdd2vQTv-417" value="" style="endArrow=classic;html=1;rounded=0;fontFamily=Verdana;" edge="1" parent="1">
          <mxGeometry width="50" height="50" relative="1" as="geometry">
            <mxPoint x="3527" y="1539" as="sourcePoint" />
            <mxPoint x="3643" y="1539.4099999999999" as="targetPoint" />
          </mxGeometry>
        </mxCell>
        <mxCell id="WWlV5e2IUx9NMdd2vQTv-418" value="Check User" style="edgeLabel;html=1;align=center;verticalAlign=middle;resizable=0;points=[];fontFamily=Verdana;" vertex="1" connectable="0" parent="WWlV5e2IUx9NMdd2vQTv-417">
          <mxGeometry x="-0.2933" y="1" relative="1" as="geometry">
            <mxPoint x="19" y="-1" as="offset" />
          </mxGeometry>
        </mxCell>
        <mxCell id="WWlV5e2IUx9NMdd2vQTv-419" value="" style="endArrow=classic;html=1;rounded=0;dashed=1;fontFamily=Verdana;" edge="1" parent="1">
          <mxGeometry width="50" height="50" relative="1" as="geometry">
            <mxPoint x="3646.5" y="1564" as="sourcePoint" />
            <mxPoint x="3523.5" y="1564" as="targetPoint" />
          </mxGeometry>
        </mxCell>
        <mxCell id="WWlV5e2IUx9NMdd2vQTv-420" value="Success" style="edgeLabel;html=1;align=center;verticalAlign=middle;resizable=0;points=[];fontFamily=Verdana;" vertex="1" connectable="0" parent="WWlV5e2IUx9NMdd2vQTv-419">
          <mxGeometry x="-0.2933" y="1" relative="1" as="geometry">
            <mxPoint x="-20" y="-3" as="offset" />
          </mxGeometry>
        </mxCell>
        <mxCell id="WWlV5e2IUx9NMdd2vQTv-421" value="" style="endArrow=classic;html=1;rounded=0;fontFamily=Verdana;entryX=0.347;entryY=0.609;entryDx=0;entryDy=0;entryPerimeter=0;" edge="1" parent="1" target="WWlV5e2IUx9NMdd2vQTv-347">
          <mxGeometry width="50" height="50" relative="1" as="geometry">
            <mxPoint x="3490" y="1580" as="sourcePoint" />
            <mxPoint x="3214.75" y="1580" as="targetPoint" />
          </mxGeometry>
        </mxCell>
        <mxCell id="WWlV5e2IUx9NMdd2vQTv-422" value="authenticate" style="edgeLabel;html=1;align=center;verticalAlign=middle;resizable=0;points=[];fontFamily=Verdana;" vertex="1" connectable="0" parent="WWlV5e2IUx9NMdd2vQTv-421">
          <mxGeometry x="-0.2933" y="1" relative="1" as="geometry">
            <mxPoint x="-65" y="-3" as="offset" />
          </mxGeometry>
        </mxCell>
        <mxCell id="WWlV5e2IUx9NMdd2vQTv-423" value="" style="endArrow=classic;html=1;rounded=0;dashed=1;fontFamily=Verdana;" edge="1" parent="1">
          <mxGeometry width="50" height="50" relative="1" as="geometry">
            <mxPoint x="3037.5" y="1679" as="sourcePoint" />
            <mxPoint x="2760" y="1679" as="targetPoint" />
          </mxGeometry>
        </mxCell>
        <mxCell id="WWlV5e2IUx9NMdd2vQTv-424" value="Success" style="edgeLabel;html=1;align=center;verticalAlign=middle;resizable=0;points=[];fontFamily=Verdana;" vertex="1" connectable="0" parent="WWlV5e2IUx9NMdd2vQTv-423">
          <mxGeometry x="-0.2933" y="1" relative="1" as="geometry">
            <mxPoint x="-52" y="-3" as="offset" />
          </mxGeometry>
        </mxCell>
        <mxCell id="WWlV5e2IUx9NMdd2vQTv-425" value="" style="endArrow=classic;html=1;rounded=0;fontFamily=Verdana;" edge="1" parent="1">
          <mxGeometry width="50" height="50" relative="1" as="geometry">
            <mxPoint x="3048" y="1693" as="sourcePoint" />
            <mxPoint x="3048" y="1753" as="targetPoint" />
            <Array as="points">
              <mxPoint x="2988" y="1693" />
              <mxPoint x="2988" y="1753" />
            </Array>
          </mxGeometry>
        </mxCell>
        <mxCell id="WWlV5e2IUx9NMdd2vQTv-426" value="Convert Button&lt;br&gt;from Register &lt;br&gt;to Cancel" style="edgeLabel;html=1;align=center;verticalAlign=middle;resizable=0;points=[];fontFamily=Verdana;" vertex="1" connectable="0" parent="WWlV5e2IUx9NMdd2vQTv-425">
          <mxGeometry x="-0.2933" y="1" relative="1" as="geometry">
            <mxPoint y="29" as="offset" />
          </mxGeometry>
        </mxCell>
        <mxCell id="WWlV5e2IUx9NMdd2vQTv-427" value="" style="endArrow=classic;html=1;rounded=0;dashed=1;fontFamily=Verdana;exitX=-0.017;exitY=0.865;exitDx=0;exitDy=0;exitPerimeter=0;" edge="1" parent="1">
          <mxGeometry width="50" height="50" relative="1" as="geometry">
            <mxPoint x="3499.66" y="1663.3999999999996" as="sourcePoint" />
            <mxPoint x="3077" y="1663" as="targetPoint" />
          </mxGeometry>
        </mxCell>
        <mxCell id="WWlV5e2IUx9NMdd2vQTv-428" value="Success" style="edgeLabel;html=1;align=center;verticalAlign=middle;resizable=0;points=[];fontFamily=Verdana;" vertex="1" connectable="0" parent="WWlV5e2IUx9NMdd2vQTv-427">
          <mxGeometry x="-0.2933" y="1" relative="1" as="geometry">
            <mxPoint x="-65" y="-3" as="offset" />
          </mxGeometry>
        </mxCell>
        <mxCell id="WWlV5e2IUx9NMdd2vQTv-429" value="" style="endArrow=classic;html=1;rounded=0;fontFamily=Verdana;" edge="1" parent="1">
          <mxGeometry width="50" height="50" relative="1" as="geometry">
            <mxPoint x="3530" y="1622" as="sourcePoint" />
            <mxPoint x="3645.5" y="1622" as="targetPoint" />
          </mxGeometry>
        </mxCell>
        <mxCell id="WWlV5e2IUx9NMdd2vQTv-430" value="Add to DB" style="edgeLabel;html=1;align=center;verticalAlign=middle;resizable=0;points=[];fontFamily=Verdana;" vertex="1" connectable="0" parent="WWlV5e2IUx9NMdd2vQTv-429">
          <mxGeometry x="-0.2933" y="1" relative="1" as="geometry">
            <mxPoint x="19" y="-1" as="offset" />
          </mxGeometry>
        </mxCell>
        <mxCell id="WWlV5e2IUx9NMdd2vQTv-431" value="" style="endArrow=classic;html=1;rounded=0;dashed=1;fontFamily=Verdana;" edge="1" parent="1">
          <mxGeometry width="50" height="50" relative="1" as="geometry">
            <mxPoint x="3644.5" y="1645" as="sourcePoint" />
            <mxPoint x="3521.5" y="1645" as="targetPoint" />
          </mxGeometry>
        </mxCell>
        <mxCell id="WWlV5e2IUx9NMdd2vQTv-432" value="Success" style="edgeLabel;html=1;align=center;verticalAlign=middle;resizable=0;points=[];fontFamily=Verdana;" vertex="1" connectable="0" parent="WWlV5e2IUx9NMdd2vQTv-431">
          <mxGeometry x="-0.2933" y="1" relative="1" as="geometry">
            <mxPoint x="-20" y="-3" as="offset" />
          </mxGeometry>
        </mxCell>
        <mxCell id="WWlV5e2IUx9NMdd2vQTv-433" value="" style="endArrow=classic;html=1;rounded=0;fontFamily=Verdana;" edge="1" parent="1">
          <mxGeometry width="50" height="50" relative="1" as="geometry">
            <mxPoint x="3080" y="1613" as="sourcePoint" />
            <mxPoint x="3490" y="1613" as="targetPoint" />
          </mxGeometry>
        </mxCell>
        <mxCell id="WWlV5e2IUx9NMdd2vQTv-434" value="User Informations" style="edgeLabel;html=1;align=center;verticalAlign=middle;resizable=0;points=[];fontFamily=Verdana;" vertex="1" connectable="0" parent="WWlV5e2IUx9NMdd2vQTv-433">
          <mxGeometry x="-0.2933" y="1" relative="1" as="geometry">
            <mxPoint x="62" y="-1" as="offset" />
          </mxGeometry>
        </mxCell>
        <mxCell id="WWlV5e2IUx9NMdd2vQTv-435" value="" style="verticalLabelPosition=bottom;verticalAlign=top;html=1;shape=mxgraph.basic.rect;fillColor2=none;strokeWidth=1;size=20;indent=5;fontFamily=Verdana;" vertex="1" parent="1">
          <mxGeometry x="2737" y="1635" width="20" height="80" as="geometry" />
        </mxCell>
        <mxCell id="WWlV5e2IUx9NMdd2vQTv-436" value="" style="endArrow=none;dashed=1;html=1;rounded=0;fontFamily=Verdana;" edge="1" parent="1" target="WWlV5e2IUx9NMdd2vQTv-435">
          <mxGeometry width="50" height="50" relative="1" as="geometry">
            <mxPoint x="2750" y="1840" as="sourcePoint" />
            <mxPoint x="2747.7894736842104" y="1350" as="targetPoint" />
          </mxGeometry>
        </mxCell>
        <mxCell id="WWlV5e2IUx9NMdd2vQTv-437" value="" style="endArrow=classic;html=1;rounded=0;fontFamily=Verdana;entryX=-0.064;entryY=0.457;entryDx=0;entryDy=0;entryPerimeter=0;" edge="1" parent="1" target="WWlV5e2IUx9NMdd2vQTv-367">
          <mxGeometry width="50" height="50" relative="1" as="geometry">
            <mxPoint x="2760" y="1058" as="sourcePoint" />
            <mxPoint x="2870" y="1057.5" as="targetPoint" />
          </mxGeometry>
        </mxCell>
        <mxCell id="WWlV5e2IUx9NMdd2vQTv-438" value="Click Communities&lt;br style=&quot;font-size: 10px;&quot;&gt;Tab" style="edgeLabel;html=1;align=center;verticalAlign=middle;resizable=0;points=[];fontFamily=Verdana;fontSize=10;" vertex="1" connectable="0" parent="WWlV5e2IUx9NMdd2vQTv-437">
          <mxGeometry x="-0.2933" y="1" relative="1" as="geometry">
            <mxPoint x="16" as="offset" />
          </mxGeometry>
        </mxCell>
        <mxCell id="WWlV5e2IUx9NMdd2vQTv-439" value="Actor" style="shape=umlActor;verticalLabelPosition=bottom;verticalAlign=top;html=1;outlineConnect=0;" vertex="1" parent="1">
          <mxGeometry x="1489" y="2076" width="30" height="60" as="geometry" />
        </mxCell>
        <mxCell id="WWlV5e2IUx9NMdd2vQTv-440" value="Home Page" style="rounded=1;whiteSpace=wrap;html=1;flipH=0;flipV=0;" vertex="1" parent="1">
          <mxGeometry x="1585" y="2076" width="120" height="60" as="geometry" />
        </mxCell>
        <mxCell id="WWlV5e2IUx9NMdd2vQTv-441" value="Community Page" style="rounded=1;whiteSpace=wrap;html=1;flipH=0;flipV=0;" vertex="1" parent="1">
          <mxGeometry x="1761.5" y="2076" width="120" height="60" as="geometry" />
        </mxCell>
        <mxCell id="WWlV5e2IUx9NMdd2vQTv-442" value="Server" style="rounded=1;whiteSpace=wrap;html=1;flipH=0;flipV=0;" vertex="1" parent="1">
          <mxGeometry x="2207" y="2076" width="120" height="60" as="geometry" />
        </mxCell>
        <mxCell id="WWlV5e2IUx9NMdd2vQTv-443" value="DB" style="shape=cylinder3;whiteSpace=wrap;html=1;boundedLbl=1;backgroundOutline=1;size=15;flipH=0;flipV=0;" vertex="1" parent="1">
          <mxGeometry x="2388.5" y="2066" width="52.5" height="70" as="geometry" />
        </mxCell>
        <mxCell id="WWlV5e2IUx9NMdd2vQTv-444" value="Register to Community Sequence Diagram:" style="text;html=1;strokeColor=none;fillColor=none;align=left;verticalAlign=middle;whiteSpace=wrap;rounded=0;fontStyle=1;fontSize=16;" vertex="1" parent="1">
          <mxGeometry x="1460" y="2016" width="387" height="30" as="geometry" />
        </mxCell>
        <mxCell id="WWlV5e2IUx9NMdd2vQTv-445" value="Login Page/PopUp" style="rounded=1;whiteSpace=wrap;html=1;flipH=0;flipV=0;" vertex="1" parent="1">
          <mxGeometry x="1980" y="2076" width="120" height="60" as="geometry" />
        </mxCell>
      </root>
    </mxGraphModel>
  </diagram>
</mxfile>
